<svg width="51" height="22" viewBox="0 0 51 22" fill="none" xmlns="http://www.w3.org/2000/svg">
<path id="Vector" d="M45.9696 6.72008C45.4796 7.10008 44.9996 7.47008 44.5196 7.84008C44.3096 8.00008 44.1195 8.22008 43.9295 8.40008C43.7195 8.60008 43.5196 8.80008 43.3196 9.00008C42.8996 9.40008 42.4496 9.84008 41.9096 10.0901C41.8296 10.1301 41.7295 10.1601 41.6395 10.1401C41.4895 10.0901 41.5095 9.95008 41.5895 9.86008C41.8095 9.60008 43.0696 8.09008 42.1596 7.96008C41.9296 7.93008 41.6695 7.96008 41.3895 8.00008C38.0595 8.47008 34.6995 8.76008 31.3995 9.35008C23.1695 10.8401 15.2595 13.2301 8.30955 18.1301C8.09955 18.2801 7.87955 18.4301 7.65955 18.5701C6.88955 19.0601 6.86956 19.0601 6.56956 18.0801C6.26956 17.1001 5.64955 16.4501 4.70955 16.0901C4.26955 15.9201 4.28954 15.6901 4.64954 15.4401C4.81954 15.3201 4.98955 15.1901 5.16955 15.0901C8.53955 13.0301 12.0496 11.2401 15.8196 10.0301C23.9096 7.43008 32.2096 6.47008 40.6896 6.91008C41.2896 6.94008 42.0496 7.22008 42.3596 6.44008C42.6596 5.65008 41.8295 5.41008 41.4195 5.00008C40.8895 4.46008 40.3396 3.95008 39.7996 3.43008C40.4896 3.70008 41.1795 3.97008 41.8695 4.25008C43.1795 4.78008 44.4995 5.32008 45.8095 5.86008C46.5795 6.18008 46.5896 6.27008 45.9896 6.74008L45.9696 6.72008ZM50.0395 6.00008C50.0395 6.00008 50.0095 5.94008 49.9795 5.92008C49.3995 5.34008 48.5795 5.07008 47.8095 4.87008C46.9495 4.64008 46.0895 4.43008 45.2795 4.07008C43.8495 3.43008 42.4495 2.72008 41.0595 2.02008C40.3595 1.67008 39.6596 1.31008 38.9596 0.960078C38.3296 0.650078 37.7396 0.330078 37.0196 0.330078C36.6996 0.330078 36.7595 0.570078 36.7295 0.850078C36.6995 1.11008 36.6896 1.37008 36.7696 1.62008C37.2196 2.87008 37.9996 3.93008 39.0196 4.80008C39.1296 4.89008 39.3495 5.14008 39.2495 5.29008C39.1695 5.41008 38.9095 5.40008 38.7895 5.40008C38.6795 5.40008 38.5696 5.41008 38.4596 5.40008C36.0996 5.29008 33.7395 5.50008 31.3895 5.70008C29.7195 5.84008 28.0595 5.99008 26.3895 6.17008C19.2295 6.92008 12.5295 9.14008 6.30955 12.7301C5.38955 13.2601 4.50955 13.8701 3.65955 14.5201C2.83955 15.1401 1.98955 15.7801 1.24955 16.5001C1.21955 16.5201 0.53955 17.2901 0.68955 17.3301C1.33955 17.5101 2.00955 17.3301 2.66955 17.2401C2.86955 17.2101 3.07955 17.2001 3.27955 17.2001C4.07955 17.2201 4.96954 17.5401 5.17954 18.4001C5.34954 19.0901 5.19955 19.8601 4.96955 20.5301C4.91955 20.6801 4.52955 21.6301 4.55955 21.7801C4.57955 21.8701 4.74954 21.7401 4.83954 21.7201C5.55954 21.5601 6.17955 21.1501 6.80955 20.7801C7.46955 20.3901 8.10955 19.9701 8.74955 19.5501C10.0195 18.7101 11.2696 17.8501 12.5996 17.1101C15.2596 15.6201 18.0696 14.4101 20.9596 13.4501C26.3696 11.6601 31.9095 10.5001 37.5895 9.97008C38.2995 9.90008 39.0096 9.90008 39.7196 9.86008C39.4396 10.4701 39.1595 11.0801 38.8995 11.7001C38.5495 12.5201 38.1896 13.3401 37.9096 14.1901C37.8396 14.4101 38.0095 14.8501 38.1995 14.9701C38.3995 15.0901 38.8095 15.0201 39.0395 14.8801C39.3395 14.6901 39.5195 14.3301 39.7895 14.0801C40.8095 13.1401 41.7695 12.1601 42.7595 11.2001C43.7295 10.2701 44.7295 9.36008 45.8395 8.58008C46.3895 8.19008 46.9696 7.83008 47.5696 7.52008C47.8796 7.36008 48.1895 7.22008 48.5095 7.08008C48.8195 6.95008 49.1395 6.82008 49.4295 6.64008C49.5695 6.55008 50.0995 6.24008 50.0395 6.02008V6.00008Z" fill="#A39BA8"/>
</svg>
