<svg width="50" height="22" viewBox="0 0 50 22" fill="none" xmlns="http://www.w3.org/2000/svg">
<path id="Vector" d="M4.25014 5.52C5.56014 4.97 6.87014 4.44 8.19014 3.91C8.88014 3.63 9.57014 3.37 10.2601 3.09C9.72014 3.61 9.16014 4.12 8.64014 4.66C8.23014 5.08 7.40014 5.31 7.70014 6.1C8.00014 6.88 8.77014 6.6 9.37014 6.57C17.8501 6.12 26.1501 7.09 34.2401 9.69C38.0101 10.9 41.5101 12.69 44.8901 14.75C45.0701 14.86 45.2401 14.98 45.4101 15.1C45.7701 15.35 45.7801 15.58 45.3501 15.75C44.4001 16.11 43.7801 16.76 43.4901 17.74C43.1901 18.72 43.1801 18.72 42.4001 18.23C42.1801 18.09 41.9601 17.94 41.7501 17.79C34.7901 12.9 26.8801 10.5 18.6601 9.01C15.3601 8.41 12.0001 8.12 8.67014 7.66C8.39014 7.62 8.13014 7.59 7.90014 7.62C6.99014 7.75 8.25014 9.26 8.47014 9.52C8.55014 9.61 8.57014 9.76 8.42014 9.8C8.33014 9.83 8.23014 9.8 8.15014 9.75C7.62014 9.51 7.16014 9.07 6.74014 8.66C6.53014 8.46 6.33014 8.26 6.13014 8.06C5.94014 7.88 5.75014 7.66 5.54014 7.5C5.06014 7.13 4.57014 6.75 4.09014 6.38C3.48014 5.91 3.50014 5.82 4.27014 5.5L4.25014 5.52ZM0.610137 6.29C0.900137 6.47 1.21014 6.6 1.53014 6.73C1.85014 6.87 2.16014 7.01 2.47014 7.17C3.07014 7.48 3.65014 7.84 4.20014 8.23C5.30014 9.01 6.30014 9.91 7.28014 10.85C8.28014 11.81 9.24014 12.8 10.2501 13.73C10.5201 13.98 10.7001 14.34 11.0001 14.53C11.2201 14.67 11.6401 14.74 11.8401 14.62C12.0301 14.5 12.2001 14.06 12.1301 13.84C11.8601 12.99 11.4901 12.18 11.1401 11.35C10.8801 10.73 10.5901 10.12 10.3201 9.51C11.0301 9.55 11.7501 9.55 12.4501 9.62C18.1201 10.15 23.6701 11.31 29.0801 13.1C31.9701 14.06 34.7801 15.27 37.4401 16.76C38.7701 17.51 40.0201 18.37 41.2901 19.2C41.9301 19.62 42.5701 20.04 43.2301 20.43C43.8601 20.8 44.4801 21.21 45.2001 21.37C45.2901 21.39 45.4601 21.52 45.4801 21.43C45.5101 21.29 45.1201 20.33 45.0701 20.18C44.8401 19.52 44.6901 18.75 44.8601 18.05C45.0701 17.2 45.9701 16.88 46.7601 16.85C46.9601 16.85 47.1701 16.86 47.3701 16.89C48.0301 16.98 48.7101 17.16 49.3501 16.98C49.4901 16.94 48.8101 16.18 48.7901 16.15C48.0501 15.43 47.2001 14.8 46.3801 14.17C45.5301 13.52 44.6501 12.91 43.7301 12.38C37.5101 8.79 30.8101 6.57 23.6501 5.82C21.9801 5.65 20.3201 5.49 18.6501 5.35C16.3001 5.15 13.9401 4.94 11.5801 5.05C11.4701 5.05 11.3601 5.05 11.2501 5.05C11.1301 5.05 10.8701 5.05 10.7901 4.94C10.6901 4.79 10.9201 4.54 11.0201 4.45C12.0501 3.58 12.8201 2.52 13.2701 1.27C13.3601 1.02 13.3401 0.76 13.3101 0.5C13.2901 0.24 13.3501 0 13.0301 0C12.3101 0 11.7201 0.32 11.0901 0.63C10.3901 0.98 9.69014 1.33 8.99014 1.69C7.59014 2.4 6.20014 3.1 4.77014 3.74C3.96014 4.1 3.09014 4.32 2.24014 4.54C1.47014 4.74 0.640137 5.01 0.0701367 5.59C0.0501367 5.61 0.0301367 5.64 0.0101367 5.67C-0.0598633 5.88 0.480137 6.2 0.620137 6.29H0.610137Z" fill="#A39BA8"/>
</svg>
