<svg width="64" height="64" viewBox="0 0 64 64" fill="none" xmlns="http://www.w3.org/2000/svg">
<g clip-path="url(#clip0_95_212)">
<path d="M50.7516 3.09C50.4266 0.33 43.9316 0 40.2296 0C36.5276 0 32.6296 0.395 27.6296 3.09C22.6276 5.788 20.8736 10.524 20.2236 13.418C19.5736 16.312 20.3536 24.731 20.3536 24.928C20.3536 25.126 16.4566 25.126 14.9636 25.192C13.4686 25.258 13.1436 25.916 13.0136 26.31C12.8836 26.705 13.6636 37.69 13.6636 37.69L14.1186 41.636C14.9616 42.096 19.1186 41.899 19.8336 42.031C20.5476 42.164 20.8076 43.151 20.8736 45.913C20.9376 48.676 21.3276 59.266 21.3936 61.436C21.4576 63.606 22.4316 63.606 24.7706 63.672C27.1096 63.738 36.1366 64.002 36.6556 64.002C37.1746 64.002 37.6956 63.344 37.6956 61.305C37.6956 59.265 38.3456 42.098 38.4086 41.705C38.4736 41.309 39.8386 41.705 41.0066 41.705C42.1746 41.705 47.7616 41.309 48.7366 41.178C49.7096 41.046 50.0996 30.785 50.0996 27.431C50.0996 24.077 47.9576 23.944 46.5936 23.878C45.2296 23.812 38.7336 24.075 38.3436 23.812C37.9536 23.55 39.5786 18.419 41.7236 17.367C43.8656 16.315 49.1276 16.907 49.7766 17.037C50.4266 17.17 50.8806 15.657 50.9466 14.473C51.0116 13.29 51.0766 5.857 50.7516 3.093V3.09ZM46.1076 25.094C46.3026 25.094 47.2446 26.146 47.5036 26.574C47.7626 27.002 47.3736 27.758 47.2766 27.824C47.1796 27.89 46.1066 26.048 45.9446 25.784C45.7826 25.521 45.9776 25.094 46.1076 25.094ZM49.4526 12.694C48.8676 12.761 43.0876 12.169 39.8396 13.354C36.5916 14.537 34.7736 17.892 34.5796 19.734C34.3836 21.574 34.3196 24.994 34.8396 24.994C35.3596 24.994 39.9696 25.094 41.7236 25.159C43.4776 25.224 44.4196 25.125 44.5816 25.355C44.7436 25.585 47.2116 29.105 47.1796 29.335C47.1476 29.565 46.9196 30.748 46.7896 30.585C46.6596 30.422 44.3536 26.375 44.1916 26.539C44.0296 26.703 43.6066 27.329 43.8996 27.756C44.1916 28.184 46.6596 31.933 46.6276 32.096C46.5956 32.261 46.3026 33.149 46.1406 32.919C45.9806 32.689 43.1866 27.854 43.0236 27.919C42.8616 27.986 42.4066 28.611 42.6336 29.005C42.8606 29.4 45.8816 33.642 45.9136 33.872C45.9456 34.102 45.8816 35.845 45.6866 35.78C45.4916 35.715 42.7636 30.552 42.3086 30.552C41.8536 30.552 41.6916 31.44 41.9516 31.769C42.2116 32.097 45.4276 36.866 45.4276 36.964C45.4276 37.062 44.6806 37.524 44.4206 37.326C44.1606 37.129 41.5306 32.064 41.2706 32.064C41.0106 32.064 40.2956 32.394 40.5226 32.754C40.7496 33.117 43.2826 37.228 43.1526 37.261C43.0226 37.294 42.5366 37.458 42.1796 37.064C41.8216 36.669 39.7756 33.052 39.5156 33.117C39.2556 33.183 38.7686 33.742 39.0286 34.071C39.2886 34.401 41.5606 37.261 41.3006 37.327C41.0406 37.393 39.7406 37.36 39.6446 37.227C39.5476 37.097 38.2486 34.531 37.9546 34.531C37.6646 34.531 37.2746 34.991 37.4346 35.287C37.5976 35.583 38.6046 37.195 38.5076 37.195C38.4096 37.195 35.4876 37.031 35.3876 37.392C35.2916 37.754 35.5506 40.187 35.3876 40.089C35.2276 39.989 33.9276 37.359 33.7326 37.359C33.5376 37.359 33.1806 38.115 33.3106 38.444C33.4406 38.774 35.4536 41.239 35.5186 41.504C35.5836 41.769 35.5846 43.706 35.4546 43.444C35.3246 43.182 33.3766 39.727 33.2466 39.792C33.1166 39.858 32.7916 40.746 32.8566 40.942C32.9216 41.138 35.5196 44.824 35.5846 45.087C35.6496 45.35 35.6816 47.85 35.5526 47.652C35.4226 47.455 32.6296 42.127 32.4026 42.16C32.1756 42.194 31.9806 43.312 32.1106 43.674C32.2406 44.036 35.4236 48.936 35.4556 49.199C35.4876 49.461 35.5206 50.777 35.3906 50.679C35.2606 50.581 31.8506 44.265 31.6886 44.364C31.5266 44.464 31.3966 45.384 31.4936 45.778C31.5906 46.172 35.3906 52.091 35.4236 52.223C35.4556 52.355 35.3916 54.986 35.2616 54.853C35.1316 54.723 31.2996 47.948 31.0716 47.98C30.8456 48.013 30.6816 49.197 30.8456 49.493C31.0076 49.789 35.3276 55.973 35.3596 56.301C35.3926 56.631 35.5226 58.241 35.3596 58.176C35.1996 58.11 30.6516 50.446 30.4896 50.48C30.3276 50.513 30.0996 51.532 30.1646 51.763C30.2296 51.993 35.2946 59.689 35.2946 59.953C35.2946 60.217 35.2646 60.445 34.9706 60.445C34.6806 60.445 34.3546 60.478 34.0626 60.182C33.7706 59.886 29.5806 52.914 29.2886 52.98C28.9966 53.046 28.9316 54.164 29.0286 54.526C29.1256 54.888 33.5756 60.479 33.4126 60.546C33.2506 60.611 27.3726 60.183 26.9176 60.183C26.4626 60.183 26.0736 60.051 26.0736 60.051C26.0736 60.051 26.2686 59.788 25.7166 59.196C25.1646 58.604 24.3526 57.65 23.9966 57.88C23.6386 58.11 23.7686 58.505 23.9966 58.735C24.2226 58.965 25.1326 59.655 24.9696 59.787C24.8066 59.917 22.4676 59.753 22.3696 59.523C22.2736 59.293 22.2396 49.853 22.1756 46.565C22.1106 43.275 21.9486 38.573 21.2336 38.08C20.5196 37.587 15.1936 37.455 14.9006 37.16C14.6706 36.926 13.9926 26.438 14.3806 26.372C14.7706 26.306 19.7726 26.504 20.6166 25.977C21.4606 25.451 21.6566 24.53 21.5266 23.347C21.3966 22.162 20.6166 13.94 22.1106 10.783C23.6046 7.626 26.5926 4.6 31.2036 2.758C35.8146 0.92 41.5296 1.05 45.4926 1.578C49.4546 2.104 49.8446 2.828 49.9096 4.735C49.9726 6.645 50.0376 12.629 49.4526 12.694ZM22.7246 26.18C22.4976 26.212 22.5296 27.166 22.5296 27.527C22.5296 27.889 20.4196 27.659 19.8996 27.627C19.3796 27.593 18.8736 27.733 18.9566 28.152C18.9886 28.316 18.9566 28.712 19.1516 28.81C19.3466 28.91 23.3736 28.942 23.7636 28.942C24.1536 28.942 24.0556 26.902 23.9906 26.442C23.9276 25.982 22.9526 26.146 22.7256 26.179L22.7246 26.18ZM28.7646 6.906C27.7266 7.432 25.7776 9.011 24.5766 11.016C23.3746 13.023 23.0506 14.536 23.0166 15.852C22.9866 17.168 23.2066 18.036 23.4396 18.154C23.6996 18.286 24.0566 18.121 24.3496 18.121C24.6396 18.121 24.3166 14.341 26.0376 11.347C27.7576 8.354 30.2276 7.631 30.6496 7.597C31.0716 7.565 31.0066 6.94 30.9096 6.48C30.8116 6.018 29.8046 6.38 28.7656 6.906H28.7646ZM36.5266 13.286C36.2666 13.221 35.1306 13.583 34.5466 14.176C33.9606 14.766 32.8566 16.674 32.6616 17.299C32.4666 17.923 32.5576 18.809 32.8886 18.942C33.2126 19.074 33.5686 18.942 33.7966 18.778C34.0236 18.613 34.0236 17.298 34.5436 16.178C35.0636 15.061 36.6536 14.338 36.8166 14.206C36.9806 14.074 36.7866 13.351 36.5266 13.286ZM44.0936 2.83C43.5156 2.72 43.2496 3.85 43.5416 3.98C43.8336 4.113 45.8146 4.41 46.3666 4.474C46.9186 4.54 47.2766 4.507 47.4066 4.869C47.5366 5.231 47.3736 8.519 47.6006 8.684C47.8286 8.848 48.8036 9.177 48.8036 8.322C48.8036 7.467 48.9336 3.948 48.5436 3.619C48.1536 3.291 44.7766 2.963 44.0936 2.83ZM25.5176 55.712C25.1246 55.818 24.9976 56.074 25.3556 56.764C25.7126 57.454 27.8556 59.854 28.1806 59.854C28.5066 59.854 28.9936 59.46 28.6686 59.034C28.3436 58.606 26.0046 55.581 25.5176 55.712ZM27.7576 54.627C27.6276 54.527 27.0446 55.187 27.1736 55.417C27.1736 55.417 29.8696 58.967 30.2266 59.461C30.5836 59.955 30.9406 60.054 31.2986 59.857C31.6546 59.66 31.1686 59.067 30.9086 58.541C30.6486 58.015 27.8886 54.727 27.7586 54.628L27.7576 54.627Z" fill="black"/>
</g>
<defs>
<clipPath id="clip0_95_212">
<rect width="64" height="64" fill="white"/>
</clipPath>
</defs>
</svg>
