<svg width="23" height="35" viewBox="0 0 23 35" fill="none" xmlns="http://www.w3.org/2000/svg">
<g clip-path="url(#clip0_95_168)">
<path d="M22.1635 5.13718C22.1232 4.82114 22.0358 4.18906 22.0156 4.13526C21.5987 3.288 21.0406 2.86437 20.1933 2.50126C19.8167 2.33987 18.9964 2.28608 18.9426 2.27263C16.4479 1.43882 13.5699 1.13622 10.9945 0.746213C10.0665 0.598278 9.25287 0.49069 8.44595 0.49069C7.9618 0.49069 6.9935 0.342755 6.97333 0.28896C6.83212 0.0132639 6.09917 -0.0136333 6.04537 -0.000184681C5.64191 0.127577 5.0569 0.174647 4.74758 0.483965C4.46516 0.766386 4.35085 1.63382 4.33068 1.68089C3.93394 2.93834 4.06843 4.23613 3.94739 5.52719C3.44979 10.678 2.36045 16.0104 1.26439 21.0738C0.80714 23.1987 0.585238 25.3706 0.282644 27.5224C0.181779 28.2352 0.154882 28.9547 0.0540177 29.6742C0.0405691 29.8019 0.0271205 29.9768 0.0203962 30.1449C0.0203962 30.1919 0.0203962 30.239 0.0203962 30.2861C0.0203962 30.3668 0.0203962 30.4407 0.0136719 30.508C0.0136719 30.7433 0.0136719 30.9787 0.0338448 31.214C0.0674663 31.557 0.255747 32.216 0.309541 32.2361C2.54201 33.3524 5.03 32.8682 7.35661 33.5339C8.16353 33.7625 8.96372 34.1324 9.80426 34.2332C10.2413 34.2803 11.102 34.4619 11.1558 34.4686C12.299 34.6367 13.3816 34.7376 14.4037 34.8922C14.8139 34.9527 15.1165 35.0334 15.5065 34.946C15.7082 34.899 16.1049 34.8115 16.1587 34.7981C16.7975 34.63 17.275 34.6031 17.7053 34.1593C18.7274 33.117 18.6467 30.3063 18.835 29.0623C19.2654 26.2851 19.4805 23.4811 19.9042 20.7174C20.3412 17.8865 21.1145 15.338 21.6054 12.4734C21.9147 10.6444 22.0627 8.8221 22.177 6.97292C22.2106 6.36773 22.2644 5.72892 22.177 5.12373L22.1635 5.13718ZM21.5449 9.23228C21.2557 11.9489 20.8792 14.726 20.2135 17.3821C19.8705 18.7472 19.3864 20.1055 19.3864 21.5176C19.3864 22.2236 19.1847 23.629 19.1847 23.629C18.7005 26.0565 18.4517 28.484 18.1222 30.824C18.0146 31.6309 17.8533 32.3773 17.6448 33.1708C17.5574 33.5137 17.08 34.0719 17.0329 34.1189C16.616 34.3207 15.7956 34.4619 15.3316 34.5022C15.0492 34.5224 14.4844 34.4148 14.4239 34.4148C11.4719 34.4148 8.6544 33.2179 5.78312 32.7405C4.75431 32.5723 3.67169 32.8211 2.63615 32.6127C2.1789 32.5253 1.33836 32.0613 1.2375 32.0613C0.941626 32.0613 0.699551 31.9672 0.538168 31.9134C0.201952 31.8058 0.437303 30.8644 0.444027 30.8106C0.470925 30.4273 0.491097 30.044 0.538168 29.6607C0.565065 29.4792 0.639032 29.1093 0.645756 29.0623C0.94835 24.2746 2.16545 19.6079 2.82443 14.8673C3.04633 13.24 3.45652 11.6463 3.65152 10.019C3.72549 9.36677 3.81963 8.72124 3.8936 8.06898C3.90704 7.96812 3.93394 7.76639 3.93394 7.76639L4.38447 5.06994C4.3643 4.56562 4.30378 4.06802 4.38447 3.57042C4.43154 3.22076 4.53913 2.52143 4.55258 2.46763C4.63999 2.10452 4.71396 1.72124 4.84172 1.36485C4.90897 1.17657 5.0838 0.813456 5.13759 0.806732C6.469 0.67897 7.56506 0.961391 8.88303 0.961391C9.24614 0.961391 9.61598 1.00846 9.98582 1.03536C10.2682 1.06226 10.8331 1.10933 10.8869 1.10933C11.445 1.10933 12.1645 1.51951 12.7361 1.60692C13.5228 1.72796 14.3028 1.849 15.0828 1.97004C16.9724 2.25246 21.1078 2.42729 21.5785 4.41096C21.908 5.78272 21.7063 7.65207 21.5314 9.21211L21.5449 9.23228Z" fill="black"/>
<path d="M12.5943 3.49002C12.6212 3.55726 12.796 3.53709 12.796 3.53709C12.9305 3.60433 13.2465 3.63795 13.2936 3.61778C13.381 3.58416 13.4953 3.43622 13.5424 3.43622C13.6769 3.43622 13.7441 3.08656 13.7912 3.08656C13.845 3.01932 13.7441 2.83776 13.6903 2.83776V2.76379C13.6903 2.54189 13.6365 2.19223 13.4886 2.09136C13.3205 1.97033 12.8901 2.2393 12.8364 2.2393C12.7422 2.25947 12.5876 2.38723 12.5338 2.40068C12.4262 2.42758 12.3388 2.54862 12.2782 2.68983L12.3186 2.52844C12.1572 2.75035 12.0093 3.16053 12.1303 3.44295C12.1908 3.58416 12.5808 3.39588 12.5808 3.49002H12.5943Z" fill="black"/>
<path d="M19.8433 5.63499C19.6147 5.17101 19.1709 4.98273 18.6935 4.79445C18.6598 4.781 18.1421 4.57927 18.1421 4.63307C18.1421 4.65996 16.071 4.35065 15.5398 4.18254C13.9932 3.69839 13.3745 3.87994 11.6935 3.7858C11.0009 3.74546 10.3217 3.32855 9.64255 3.33528C9.36013 3.33528 9.01719 3.57063 8.74149 3.52356C8.39183 3.46976 8.04216 3.42942 7.6925 3.38907C7.52439 3.3689 7.1949 3.28148 7.14111 3.27476C6.99317 3.24786 6.69058 3.18734 6.64351 3.16717C6.26695 3.03941 6.20643 4.24306 6.13246 4.57927C5.7828 6.33432 5.32555 7.98849 5.10364 9.77716C4.60605 13.7714 3.8193 17.732 3.05273 21.6725C2.79721 22.9837 2.57531 24.3353 2.48117 25.6734C2.46099 26.0096 2.50806 26.4467 2.4341 26.7762C2.40047 26.8972 2.34668 27.4217 2.34668 27.2267V27.3276C2.34668 27.9798 2.97876 28.5245 3.69826 28.5245C6.26022 28.5245 9.50134 29.782 12.144 30.2796C13.0383 30.4477 13.8116 30.4746 14.5916 30.5754C14.9884 30.6225 15.7886 30.5284 15.8424 30.5082C17.2343 29.9904 17.1401 26.8771 17.3284 25.6801C17.4562 24.9337 17.6915 23.4342 17.6915 23.3804C17.9134 21.6993 18.4985 20.0519 18.6867 18.3843C18.9355 16.1182 19.1776 13.8588 19.46 11.586C19.6281 10.2546 19.6819 8.90972 19.8837 7.58504C19.9509 7.17485 20.0518 6.6907 19.9509 6.28725C19.8971 6.07207 19.8366 5.63499 19.8366 5.63499H19.8433ZM18.2698 17.8799C18.1421 19.0769 17.8126 20.3881 17.5772 21.5783C17.4831 22.0625 17.3889 22.5399 17.2948 23.0308C17.2477 23.2594 17.2881 23.7301 17.2746 23.7772C17.0191 25.1489 16.5686 26.5341 16.4812 27.9261C16.4475 28.4035 16.3938 28.854 16.3131 29.3247C16.2862 29.5332 16.0844 29.9232 16.0306 29.9433C15.1027 30.3401 14.3092 30.0509 13.4283 29.9702C11.3371 29.7954 9.41392 29.2978 7.32939 28.6725C6.48885 28.4237 5.5609 28.5245 4.72708 28.2959C4.40432 28.2085 3.6243 28.074 3.6243 28.074C3.85965 27.9597 2.92497 27.7243 2.92497 27.7243C2.8779 27.6907 2.77704 27.6235 2.77704 27.5629C2.77704 26.7896 2.83083 25.8953 2.94514 25.122C3.00566 24.7253 3.1267 23.9251 3.13342 23.8713C3.88655 19.4131 4.41777 14.7464 5.51383 10.3756C5.89039 8.84921 5.8097 7.41693 6.30729 5.92413C6.5023 5.33912 6.56954 4.5322 6.67041 3.97408C6.69058 3.87322 6.7242 3.67149 6.7242 3.67149C6.73765 3.65804 6.77127 3.62442 6.82507 3.62442C6.68386 3.62442 7.28904 3.77908 7.47732 3.82615C7.87406 3.92701 8.4658 4.00771 8.87598 3.94719C9.12478 3.90684 9.62238 3.82615 9.67617 3.8396C10.241 3.98753 10.8126 4.09512 11.3774 4.22961C11.6666 4.29685 12.2785 4.22961 12.339 4.22961C13.9528 4.22961 15.3649 4.92894 16.9653 4.92894C17.4427 4.92894 18.1353 5.08359 18.1757 5.09704C18.4985 5.20463 19.1238 5.48033 19.1238 5.48033V5.50723C19.1843 5.54757 19.2987 5.62154 19.3457 5.66189C19.3592 5.68206 19.3726 5.71568 19.3726 5.75603C19.3726 6.03845 19.5206 6.58311 19.5138 6.63018C18.9086 10.2748 18.6464 14.2017 18.2564 17.8732L18.2698 17.8799Z" fill="black"/>
<path d="M8.59345 30.2189C8.15637 30.2324 7.29566 30.0306 7.24187 30.0172C7.00652 29.9701 6.54254 29.876 6.51564 29.8289C6.49547 29.7953 6.38788 29.8289 6.38788 29.8289C6.38788 29.876 5.9777 29.8424 5.93735 29.876C5.84994 29.9567 6.03822 30.2256 6.01804 30.2727C5.4801 31.7184 8.8288 31.826 9.78365 31.9672C10.0997 32.0143 10.5301 32.095 10.8864 32.1219C11.068 32.1353 11.4378 32.1219 11.4782 32.095C11.6463 31.9807 11.8816 31.6243 11.8884 31.5772C11.9153 31.2343 11.6866 30.5753 11.6328 30.5619C10.604 30.2189 9.66934 30.1853 8.58673 30.2189H8.59345ZM11.3908 31.6243C11.3908 31.7453 9.95176 31.5167 9.89124 31.51C9.1314 31.4226 8.39845 31.2477 7.64533 31.1267C7.21497 31.0595 6.39461 30.7501 6.39461 30.7501C6.25339 30.6829 6.44168 30.2727 6.50892 30.2727C6.99979 30.2727 7.70584 30.582 8.18999 30.6694C8.70777 30.7703 9.25916 30.5215 9.79038 30.6291C10.1535 30.7098 10.5233 30.7636 10.8932 30.8376C11.0747 30.8712 11.4446 30.9653 11.4446 31.0191C11.4446 31.2007 11.4446 31.5705 11.3975 31.6176L11.3908 31.6243Z" fill="black"/>
<path d="M17.4022 14.2553C17.3686 14.1881 17.2879 14.1343 17.2139 14.1612C17.066 13.8115 16.7163 13.2803 16.7432 13.3341C16.481 12.9239 16.2187 12.5204 15.9565 12.1102C15.4723 11.3639 14.9949 10.6175 14.5108 9.87106C13.5021 8.31774 12.5271 6.72408 11.3772 5.27163C11.3033 5.17749 11.115 5.25818 11.1822 5.37922C12.0093 6.96616 13.018 8.45223 13.993 9.95175C14.9411 11.4109 15.8086 13.2198 16.9786 14.5041C17.0458 14.5781 17.1467 14.6251 17.2543 14.5848C17.2812 14.5713 17.3081 14.5646 17.335 14.5512C17.4224 14.5175 17.4829 14.4032 17.4426 14.3158C17.4358 14.2956 17.4224 14.2755 17.4157 14.2553H17.4022Z" fill="black"/>
<path d="M17.4492 10.6245C17.4492 10.6245 17.4357 10.6245 17.4021 10.5976C17.3617 10.5775 17.3147 10.564 17.2743 10.5842C17.3147 10.564 17.3483 10.564 17.3819 10.5707C17.3483 10.5371 17.3012 10.4833 17.234 10.3892C17.0793 10.174 16.9045 9.979 16.7566 9.76382C16.4809 9.36709 16.2455 8.94346 16.0034 8.51983C15.5395 7.71291 15.0419 6.90599 14.3291 6.29408C14.2148 6.19322 14.0265 6.36133 14.1274 6.48236C14.7594 7.22876 15.2167 8.04913 15.6941 8.90311C16.0505 9.54865 16.4741 10.5438 17.113 10.954C17.2004 11.0078 17.3214 11.0347 17.4088 10.9607C17.4223 10.9473 17.4357 10.9406 17.4424 10.9271C17.5366 10.8464 17.5568 10.6918 17.4492 10.6111C17.4492 10.6111 17.4492 10.6111 17.4424 10.6111L17.4492 10.6245Z" fill="black"/>
<path d="M16.5348 6.6367C16.4474 6.56273 16.2995 6.6636 16.3533 6.77118C16.6491 7.43017 17.1669 8.04208 17.604 8.62037C17.6645 8.70106 17.799 8.75485 17.8931 8.70778C17.9402 8.68761 17.9604 8.66744 17.994 8.63382C18.0612 8.55312 18.068 8.41191 18.0007 8.33122C17.5502 7.75966 17.0997 7.10068 16.5281 6.64342L16.5348 6.6367Z" fill="black"/>
</g>
<defs>
<clipPath id="clip0_95_168">
<rect width="22.2104" height="35" fill="white"/>
</clipPath>
</defs>
</svg>
