<svg width="543" height="268" viewBox="0 0 543 268" fill="none" xmlns="http://www.w3.org/2000/svg">
<path d="M61.6852 131.983C62.1846 136.38 63.6095 190.87 63.0736 193.927C61.7705 201.478 60.9545 194.779 60.7596 185.34C60.3699 167.193 61.7461 148.839 59.834 130.826L61.6852 131.983Z" fill="#FDFDFE"/>
<path d="M64.9377 212.707C64.9499 213.45 65.023 214.302 64.9377 215.021C60.9673 214.692 61.2231 217.493 59.8347 215.715C59.7007 212.536 58.7629 204.693 64.2435 207.129C65.3762 207.64 64.9134 211.538 64.9377 212.695V212.707Z" fill="#FDFDFE"/>
<path d="M63.5372 128.269C63.3179 128.427 62.0269 127.648 60.2853 129.426C59.9565 130.692 61.2231 127.976 61.6737 131.983L59.8225 130.826C61.7346 148.839 60.3584 167.193 60.7481 185.34H59.8225C60.0661 168.411 59.311 151.446 59.8225 134.541L57.9713 129.438C62.3436 127.002 54.3054 128.817 58.4341 127.124C53.8547 126.478 57.0822 123.677 57.0457 123.409C56.9726 122.861 50.0183 118.903 56.8143 114.823C60.0783 112.862 64.2801 112.813 66.789 115.98C70.3209 120.425 63.4154 123.373 63.5372 123.872C63.6711 124.408 66.3505 124.432 65.8512 125.26C65.498 125.845 63.8782 125.139 63.5372 125.723C63.4397 125.882 65.8268 126.71 63.5372 128.281V128.269Z" fill="#060506"/>
<path d="M60.5291 114.811C63.5617 114.543 66.5212 115.992 65.1693 116.662L55.6574 117.356C55.2433 116.504 59.7983 114.872 60.5291 114.799V114.811Z" fill="#FDFDFE"/>
<path d="M56.3516 118.988C60.6995 117.575 73.8165 120.681 55.8887 119.914C55.4259 119.78 56.108 119.061 56.3516 118.988Z" fill="#ADADAE"/>
<path d="M62.3796 123.166C64.2674 123.47 62.3675 124.737 58.4336 123.86C61.7585 123.726 62.1848 123.129 62.3796 123.166Z" fill="#333133"/>
<path d="M57.7391 124.554L57.9705 125.248L57.2763 125.48L57.0449 125.248L57.7391 124.554Z" fill="#FDFDFE"/>
<path d="M387.856 35.0128C387.746 35.0494 388.221 36.8397 386.699 35.0128C391.059 41.6748 394.031 47.533 390.414 37.8018C392.642 41.7114 393.812 41.9428 393.897 42.2107C394.213 43.2094 394.494 61.3198 392.508 58.4455C392.289 58.1289 394.506 56.1558 391.583 51.2598C390.523 46.3394 390.158 47.399 387.868 43.8305C387.04 42.5274 387.04 43.1485 386.017 42.2107C388.489 41.4191 384.665 39.1537 382.534 36.8762L381.839 37.1076C384.896 42.71 381.048 36.5839 380.682 36.4134C380.597 36.3769 379.44 37.6922 379.294 37.8018C374.52 31.0911 370.939 26.3656 380.22 35.0128C381.937 31.0911 382.497 37.1563 385.554 35.707C382.802 31.0911 380.67 31.8584 380.451 31.5296C380.561 28.497 377.662 27.2791 375.811 25.0381C380.244 25.4035 383.995 31.1398 387.868 35.0128H387.856Z" fill="#FDFDFE"/>
<path d="M394.858 17.6454L145.186 17.6454V174.757H394.858V17.6454Z" fill="#FDFDFE"/>
<path d="M374.86 46.1447C383.167 58.2507 388.903 78.456 385.298 93.0101C387.283 69.553 381.571 62.7936 374.86 46.1447Z" fill="#C1C1C0"/>
<path d="M364.423 150.532C366.201 151.08 352.719 164.66 360.708 157.486C362.194 158.022 346.678 172.187 349.114 167.23C343.852 170.275 353.157 163.783 359.088 157.255C360.988 155.16 362.511 152.627 364.423 150.532Z" fill="#C1C1C0"/>
<path d="M181.626 141.727C182.272 141.544 190.529 151.738 187.655 152.858C185.183 153.833 179.641 142.287 181.626 141.727Z" fill="#FDFDFE"/>
<path d="M375.555 140.326C376.31 144.053 370.026 152.237 366.969 155.404C370.196 155.879 359.089 160.726 361.403 162.833L356.068 167.242L358.626 163.759L356.543 164.916C359.491 158.302 358.553 162.979 358.857 163.065C360.234 163.418 375.896 144.321 375.555 140.326Z" fill="#C1C1C0"/>
<path d="M376.492 141.727C378.441 145.746 371.462 153.333 370.695 155.416C370.634 155.574 372.839 157.986 370.464 156.11L355.617 170.957C363.461 160.738 373.922 155.745 376.492 141.727Z" fill="#C1C1C0"/>
<path d="M151.458 58.2141C152.274 72.89 151.738 87.6024 151.458 102.29C151.263 87.6268 150.8 72.8535 151.458 58.2141Z" fill="#545252"/>
<path d="M183.246 158.887C183.112 158.765 182.235 159.021 182.089 158.887C174.781 151.982 177.595 147.524 184.171 156.804C185.499 158.68 186.4 161.42 183.477 157.962C183.148 157.986 183.246 158.546 183.246 158.887Z" fill="#FDFDFE"/>
<path d="M370.914 47.5331C375.627 55.9611 380.341 64.7179 381.583 74.449C379.013 65.0224 374.763 56.4482 370.914 47.5331Z" fill="#949494"/>
<path d="M161.664 87.4441L164.453 114.36C162.322 105.64 161.396 96.4323 161.664 87.4441Z" fill="#C1C1C0"/>
<path d="M381.133 53.099C385.505 61.6244 388.562 71.1972 387.624 80.9406C387.551 71.1242 384.287 62.1847 381.133 53.099Z" fill="#ADADAE"/>
<path d="M392.265 129.194C392.216 133.92 391.924 143.432 391.108 147.524C389.439 155.867 386.857 157.194 390.645 146.136L392.265 129.207V129.194Z" fill="#C1C1C0"/>
<path d="M164.453 54.0367C165.342 53.9149 165.147 54.4873 165.147 55.1937C165.147 56.3995 159.544 83.7538 160.969 70.0401L164.453 54.0367Z" fill="#E3E4E5"/>
<path d="M151.458 102.753L153.772 123.166C152.627 123.701 151.275 104.19 151.458 102.753Z" fill="#605F61"/>
<path d="M391.57 51.2476C394.469 64.6447 388.891 47.3747 387.855 43.8184C390.133 47.3747 390.498 46.3273 391.57 51.2476Z" fill="#FDFDFE"/>
<path d="M159.35 28.5092C162.273 27.6445 156.329 36.6328 154.709 41.0416C153.881 40.8102 158.29 28.8259 159.35 28.5092Z" fill="#E3E4E5"/>
<path d="M353.985 71.1972C350.283 60.3456 338.98 39.6532 351.671 62.6109C352.719 65.5583 353.547 68.0672 353.985 71.1972Z" fill="#C1C1C0"/>
<path d="M173.502 33.1495C177.948 2`7.0721 182.478 23.6132 180.457 23.6375C182.332 22.6145 184.391 21.6523 186.948 20.8485L183.465 24.3318L183.002 23.4061C180.98 25.7324 174.501 31.7976 173.49 33.1495H173.502Z" fill="#C1C1C0"/>
<path d="M371.853 46.6074C375.372 51.3329 379.988 59.4077 380.67 65.1685L371.853 46.6074Z" fill="#ADADAE"/>
<path d="M336.581 46.6074L343.304 55.6565C357.213 77.3842 336.861 49.1529 336.35 47.7644C336.252 47.4965 336.264 46.7536 336.581 46.6074Z" fill="#C1C1C0"/>
<path d="M167.242 137.549C167.864 137.549 172.151 147.646 169.557 144.041C169.557 148.109 164.575 137.513 167.242 137.549Z" fill="#E3E4E5"/>
<path d="M358.856 151.47L359.551 151.701C359.904 152.603 348.163 164.623 345.861 165.391L358.856 151.47Z" fill="#C1C1C0"/>
<path d="M382.521 73.0605L383.678 78.8578C383.775 99.7451 382.594 81.2449 382.521 73.0605Z" fill="#E3E4E5"/>
<path d="M202.038 20.6293C206.021 20.4588 198.08 22.651 197.398 22.9433C194.17 24.3927 191.32 26.8041 187.886 27.815C190.248 25.7933 199.955 20.7146 202.038 20.6293Z" fill="#C1C1C0"/>
<path d="M213.633 162.602L228.248 163.759C223.303 165.44 211.173 163.637 213.633 162.602Z" fill="#C1C1C0"/>
<path d="M333.341 129.194L334.036 129.426C322.843 145.539 320.736 146.062 333.341 129.194Z" fill="#E3E4E5"/>
<path d="M227.554 165.391C233.461 165.074 223.242 168.533 215.253 166.548C220.977 166.791 226.275 165.452 227.554 165.391Z" fill="#C1C1C0"/>
<path d="M333.342 22.4805C336.703 22.651 349.759 29.788 343.548 28.5092C343.438 28.4848 343 27.0598 342.16 26.6579C339.602 25.4522 334.608 24.3073 333.342 22.4805Z" fill="#C1C1C0"/>
<path d="M161.433 164.916C159.874 163.186 158.4 161.64 157.255 159.581C156.793 158.741 153.723 151.823 154.698 151.921C156.732 156.354 158.656 160.872 161.421 164.916H161.433Z" fill="#545252"/>
<path d="M331.016 147.293C331.345 147.475 331.333 148.133 331.247 148.45C330.894 149.802 312.406 164.477 331.016 147.293Z" fill="#E3E4E5"/>
<path d="M315.707 163.065C317.351 163.028 314.318 165.232 313.393 165.854C312.406 166.511 303.637 171.407 303.418 170.725L315.719 163.065H315.707Z" fill="#C1C1C0"/>
<path d="M325.449 161.676C325.742 161.615 326.046 161.627 326.144 161.908C305.878 181.553 323.659 162.042 325.449 161.676Z" fill="#C1C1C0"/>
<path d="M379.27 84.6552C380.11 86.7013 379.879 88.7839 379.964 90.9152C380.573 106.578 378.417 91.171 379.27 84.6552Z" fill="#E3E4E5"/>
<path d="M153.553 148.218L152.165 148.45C149.607 138.852 150.496 138.621 153.553 148.218Z" fill="#605F61"/>
<path d="M367.675 54.0367C368.32 54.9745 374.093 65.3147 372.778 65.6313L367.675 54.0367Z" fill="#C1C1C0"/>
<path d="M173.271 37.3269L168.631 47.0702C167.608 46.6561 172.284 38.2891 173.271 37.3269Z" fill="#E3E4E5"/>
<path d="M155.867 162.139C153.748 160.531 154.503 161.688 155.404 163.527C155.331 163.418 154.308 163.065 153.553 161.445C149.899 147.841 150.752 154.819 155.867 162.139Z" fill="#43423F"/>
<path d="M190.895 145.904L199.481 153.565C196.972 153.285 191.832 148.364 190.895 145.904Z" fill="#C1C1C0"/>
<path d="M374.629 60.0654C375.445 61.4051 377.065 66.6178 377.187 67.7261C377.808 73.3529 374.629 64.1333 374.629 60.0654Z" fill="#C1C1C0"/>
<path d="M153.322 59.6025C153.675 59.6025 153.578 64.2793 153.554 64.937C153.079 75.679 151.666 64.2428 153.322 59.6025Z" fill="#757376"/>
<path d="M154.71 116.199L156.561 124.554C154.503 124.956 155.258 119.756 154.71 116.199Z" fill="#757376"/>
<path d="M388.087 138.012C388.89 137.902 388.696 138.219 388.781 138.706C389.11 140.691 381.449 158.461 388.087 138.012Z" fill="#C1C1C0"/>
<path d="M156.099 46.6074C155.246 51.1746 152.591 63.6461 154.016 51.9419L156.099 46.6074Z" fill="#605F61"/>
<path d="M154.015 156.573C151.787 154.356 152.274 149.4 149.838 148.45C150.91 143.602 153.065 154.49 154.015 156.573Z" fill="#605F61"/>
<path d="M172.114 35.0128C170.543 37.3512 168.606 42.0646 167.242 44.7561C167.084 40.9928 170.153 37.9358 172.114 35.0128Z" fill="#C1C1C0"/>
<path d="M301.323 157.499C302.882 157.462 300.202 159.179 299.934 159.35C290.946 165.391 290.24 163.515 301.323 157.499Z" fill="#C1C1C0"/>
<path d="M170.713 168.63C170.628 168.557 169.008 168.058 168.631 167.705C163.82 163.284 164.892 161.506 170.713 168.63Z" fill="#605F61"/>
<path d="M301.785 162.602L296.219 168.168L294.6 167.936L301.785 162.602Z" fill="#C1C1C0"/>
<path d="M170.02 163.99L177.205 170.713C175.403 170.616 170.154 165.841 170.02 163.99Z" fill="#43423F"/>
<path d="M378.806 70.2716C380.378 72.9997 380.706 83.7783 379.038 75.1433C378.77 73.7792 378.404 71.587 378.806 70.2716Z" fill="#C1C1C0"/>
<path d="M382.059 39.6531C382.266 39.5556 384.982 42.9171 385.079 43.1363C387.454 48.3734 380.402 40.3838 382.059 39.6531Z" fill="#FDFDFE"/>
<path d="M154.709 133.372L156.098 140.326C155.038 138.097 153.248 135.795 154.709 133.372Z" fill="#757376"/>
<path d="M202.964 25.2696C203.305 25.2208 203.987 25.1599 204.121 25.501C190.37 33.9289 200.589 25.5984 202.964 25.2696Z" fill="#C1C1C0"/>
<path d="M298.071 157.036C298.363 156.999 298.668 156.975 298.765 157.267C283.748 167.084 295.879 157.34 298.071 157.036Z" fill="#C1C1C0"/>
<path d="M176.048 124.554C176.438 124.371 177.047 124.956 177.205 125.248C179.385 129.231 179.726 137.805 176.048 124.554Z" fill="#E3E4E5"/>
<path d="M367.443 42.43C365.75 40.6275 364.033 38.6179 362.34 36.8641C364.654 38.8006 365.75 39.9089 367.443 42.43Z" fill="#C1C1C0"/>
<path d="M150.532 158.424C152.457 162.395 156.159 170.275 151.226 161.908L150.532 158.424Z" fill="#43423F"/>
<path d="M317.557 156.11L313.843 160.288C312.345 158.838 314.842 158.351 317.557 156.11Z" fill="#C1C1C0"/>
<path d="M158.193 163.064C156.269 160.763 155.27 159.313 154.016 156.573C156.135 158.168 156.951 160.884 158.193 163.064Z" fill="#43423F"/>
<path d="M324.523 22.0177L330.321 24.1003C328.957 24.6606 325.632 23.1869 324.523 22.0177Z" fill="#C1C1C0"/>
<path d="M160.971 158.887C161.129 159.131 165.587 161.359 164.454 162.602C161.446 161.335 161.921 160.3 160.971 158.887Z" fill="#545252"/>
<path d="M338.213 155.648C336.922 157.608 335.704 159.326 333.804 160.751C333.159 159.703 336.362 157.389 338.213 155.648Z" fill="#E3E4E5"/>
<path d="M186.729 160.75L192.063 164.697C190.577 164.709 187.07 162.188 186.729 160.75Z" fill="#FDFDFE"/>
<path d="M151.921 52.1733C152.871 52.0636 152.579 52.6726 152.615 53.3303C152.956 58.5917 150.045 60.0897 151.921 52.1733Z" fill="#757376"/>
<path d="M345.398 20.1665L350.733 21.7863L345.398 21.0921V20.1665Z" fill="#757376"/>
<path d="M169.325 161.213C170.251 162.492 172.857 163.844 173.271 165.854C171.237 165.038 170.458 162.821 169.325 161.213Z" fill="#4D5047"/>
<path d="M218.735 157.962L224.07 158.193C222.901 159.545 219.978 158.863 218.735 157.962Z" fill="#E3E4E5"/>
<path d="M153.321 126.417C155.343 132.763 154.685 135.223 153.553 130.826C153.407 130.254 152.895 126.478 153.321 126.417Z" fill="#605F61"/>
<path d="M163.991 154.71C165.598 156.39 167.876 162.87 164.916 157.499C164.661 157.024 162.943 155.075 163.991 154.71Z" fill="#605F61"/>
<path d="M178.605 35.0128C177.472 36.4621 176.717 38.4839 175.122 39.6531C174.854 37.9724 177.753 35.9263 178.605 35.0128Z" fill="#C1C1C0"/>
<path d="M362.34 36.8641C362.121 36.6814 359.247 35.4513 357.7 33.3808C358.553 32.8328 360.928 35.4026 362.34 36.8641Z" fill="#C1C1C0"/>
<path d="M178.605 35.0129C179.702 33.6123 180.493 31.9072 182.089 30.8354C182.819 31.9681 179.811 33.7219 178.605 35.0129Z" fill="#C1C1C0"/>
<path d="M341.684 116.674C342.244 117.405 341.818 118.245 341.684 118.988C340.795 123.933 339.894 119.293 341.684 116.674Z" fill="#E3E4E5"/>
<path d="M151.458 43.3556C152.165 43.2582 152.116 43.4774 152.153 44.0498C152.226 45.0972 148.389 53.0502 151.458 43.3556Z" fill="#757376"/>
<path d="M150.995 50.7849C151.348 50.8458 151.263 52.8675 151.227 53.3425C150.764 58.8353 149.448 53.2086 150.995 50.7849Z" fill="#605F61"/>
<path d="M327.776 156.11C328.494 156.731 327.447 157.316 326.619 158.193C322.624 162.443 325.717 157.34 327.776 156.11Z" fill="#C1C1C0"/>
<path d="M154.709 166.316C154.856 166.304 156.792 168.18 156.561 168.63C153.833 169.422 154.49 166.329 154.709 166.316Z" fill="#43423F"/>
<path d="M155.173 106.456C156.197 106.273 155.819 107.308 155.868 108.538C156.063 112.886 155.064 111.011 155.173 106.456Z" fill="#605F61"/>
<path d="M161.201 166.316C162.894 167.437 165.671 171.529 162.358 168.399C161.506 167.595 160.519 166.864 161.201 166.316Z" fill="#605F61"/>
<path d="M387.625 20.6292C388.039 20.6048 389.232 22.1394 389.245 22.249C389.513 24.6361 387.15 23.5035 387.625 20.6292Z" fill="#545252"/>
<path d="M158.193 144.966C157.998 144.552 156.793 142.859 156.805 142.409C156.975 137.184 158.144 144.674 158.193 144.966Z" fill="#757376"/>
<path d="M373.24 66.0941C373.472 66.0332 375.42 69.6505 374.166 69.8088L373.24 66.0941Z" fill="#E3E4E5"/>
<path d="M367.674 145.429C367.942 145.344 368.259 145.393 368.369 145.661C364.715 151.896 366.493 145.831 367.674 145.429Z" fill="#C1C1C0"/>
<path d="M355.374 31.761C354.193 31.1764 352.962 30.811 352.122 29.6783C353.352 29.1546 354.753 31.2007 355.374 31.761Z" fill="#C1C1C0"/>
<path d="M150.533 161.676C152.566 165.123 152.408 166.682 150.995 163.99C150.825 163.661 149.765 161.847 150.533 161.676Z" fill="#43423F"/>
<path d="M161.433 164.916C161.969 165.513 164.149 166.499 163.515 167.705C161.238 165.841 161.53 165.062 161.433 164.916Z" fill="#545252"/>
<path d="M158.193 144.966C158.534 145.709 160.166 147.061 159.35 148.218C158.388 147.439 158.4 146.05 158.193 144.966Z" fill="#605F61"/>
<path d="M387.856 35.0129C385.359 30.1412 389.293 34.9642 389.244 35.2443C389.122 35.9751 388.051 34.952 387.856 35.0129Z" fill="#FDFDFE"/>
<path d="M343.548 153.321C344.206 153.918 343.511 154.222 343.085 154.71C341.417 156.622 340.735 155.647 343.548 153.321Z" fill="#E3E4E5"/>
<path d="M206.216 23.8689C206.557 23.8202 207.239 23.7593 207.373 24.1003C208.104 25.8541 202.185 24.4901 206.216 23.8689Z" fill="#E3E4E5"/>
<path d="M163.065 140.789C163.199 140.85 164.1 143.42 163.528 143.578C162.882 143.761 162.163 140.35 163.065 140.789Z" fill="#6E6F69"/>
<path d="M160.276 149.607C160.666 149.546 160.86 150.544 160.97 150.764C162.724 154.381 159.131 149.789 160.276 149.607Z" fill="#605F61"/>
<path d="M385.298 21.092C386.224 21.1651 385.591 22.9311 385.298 22.9432C384.495 22.9798 383.837 20.9824 385.298 21.092Z" fill="#4D5047"/>
<path d="M164.916 168.63C166.938 170.25 167.048 171.846 165.379 170.019C164.929 169.532 164.271 169.203 164.916 168.63Z" fill="#757376"/>
<path d="M159.814 167.242C160.423 167.205 161.933 168.74 161.896 168.862C161.689 169.714 159.448 167.839 159.814 167.242Z" fill="#282B29"/>
<path d="M367.443 42.4301C368.052 43.0755 369.27 43.4409 369.063 44.7441C368.004 44.6467 367.516 42.5397 367.443 42.4301Z" fill="#C1C1C0"/>
<path d="M162.37 163.065C162.93 163.734 164.501 164.124 163.527 165.379C162.468 164.514 162.455 163.235 162.37 163.065Z" fill="#757376"/>
<path d="M153.784 123.628C154.856 123.312 154.576 125.894 154.247 125.943C154.125 125.955 153.37 123.75 153.784 123.628Z" fill="#757376"/>
<path d="M167.011 157.499C166.658 156.902 165.257 156.049 165.854 155.185C167.425 156.293 166.926 157.34 167.011 157.499Z" fill="#545252"/>
<path d="M170.714 168.63C171.481 169.215 172.797 170.043 172.334 170.482C170.592 170.104 170.787 168.716 170.714 168.63Z" fill="#757376"/>
<path d="M155.174 102.753C155.527 102.753 155.405 103.789 155.405 104.373C155.405 108.453 154.382 102.753 155.174 102.753Z" fill="#605F61"/>
<path d="M368.138 149.144C368.747 149.655 367.407 151.494 367.212 151.458C366.543 151.348 367.748 149.278 368.138 149.144Z" fill="#C1C1C0"/>
<path d="M152.395 169.093C155.574 169.191 150.983 170.932 150.775 169.787C150.763 169.702 152.31 169.093 152.395 169.093Z" fill="#545252"/>
<path d="M168.399 159.813C167.534 158.619 167.608 158.607 167.011 157.499C167.425 158.217 167.961 159.106 168.399 159.813Z" fill="#545252"/>
<path d="M374.861 46.1446C374.824 46.0471 373.302 45.6939 374.167 44.2933C375.202 44.9145 374.751 45.9862 374.861 46.1446Z" fill="#C1C1C0"/>
<path d="M172.113 35.0129C172.698 34.136 172.978 33.868 173.502 33.1616C173.075 33.734 172.466 34.4892 172.113 35.0129Z" fill="#C1C1C0"/>
<path d="M156.793 165.391C157.037 165.695 158.766 166.329 157.95 167.242C156.525 166.17 156.854 165.476 156.793 165.391Z" fill="#333133"/>
<path d="M184.403 28.5092C184.683 28.4727 185 28.4483 185.097 28.7406C185.706 30.5188 180.652 29.0207 184.403 28.5092Z" fill="#E3E4E5"/>
<path d="M156.793 165.391C156.184 164.624 156.111 164.989 155.404 163.54C155.782 164.088 156.366 164.806 156.793 165.391Z" fill="#43423F"/>
<path d="M174.197 150.532C174.294 150.557 175.232 152.201 174.66 152.384C174.124 152.554 173.137 150.289 174.197 150.532Z" fill="#6E6F69"/>
<path d="M158.193 163.065C158.486 163.406 160.154 163.99 159.35 164.916C157.95 163.856 158.242 163.15 158.193 163.065Z" fill="#43423F"/>
<path d="M391.107 21.092C391.631 21.5305 392.898 21.908 392.264 22.9433C390.852 21.8837 391.168 21.1773 391.107 21.092Z" fill="#43423F"/>
<path d="M350.502 27.5835C350.6 27.547 352.341 28.5335 351.428 28.9719C350.807 29.2764 349.771 27.8393 350.502 27.5835Z" fill="#C1C1C0"/>
<path d="M157.961 126.417C158.741 126.186 158.558 126.807 158.656 127.112C159.411 129.535 156.926 126.722 157.961 126.417Z" fill="#757376"/>
<path d="M163.99 159.35C164.088 159.313 165.769 160.921 164.916 161.201C164.819 161.238 163.138 159.63 163.99 159.35Z" fill="#545252"/>
<path d="M151.458 48.4709C151.896 48.6414 151.933 50.6753 150.995 50.3221C150.447 50.1151 151.361 48.4222 151.458 48.4709Z" fill="#757376"/>
<path d="M154.71 112.959C155.063 112.959 155.063 115.286 154.71 115.274C154.357 115.274 154.345 112.959 154.71 112.959Z" fill="#757376"/>
<path d="M152.396 167.242C152.396 167.242 152.969 167.778 153.09 167.936C154.43 169.629 150.971 167.632 152.396 167.242Z" fill="#605F61"/>
<path d="M162.139 153.784C162.31 154.04 162.761 154.271 162.834 154.478C163.491 156.232 161.616 155.465 162.139 153.784Z" fill="#605F61"/>
<path d="M338.213 155.647C338.274 155.587 338.225 153.723 339.601 154.49C339.382 154.965 338.262 155.574 338.213 155.647Z" fill="#E3E4E5"/>
<path d="M156.561 115.736C156.915 115.736 156.915 118.063 156.561 118.05C156.208 118.05 156.196 115.736 156.561 115.736Z" fill="#605F61"/>
<path d="M155.867 162.139C155.916 162.212 157 162.797 157.256 163.296C155.867 164.063 155.94 162.188 155.867 162.139Z" fill="#4D5047"/>
<path d="M375.091 70.7344C375.274 71.0267 375.542 71.6113 375.554 71.66C375.785 72.9997 374.141 72.7074 375.091 70.7344Z" fill="#C1C1C0"/>
<path d="M164.453 145.429C164.623 145.685 165.074 145.916 165.147 146.123C165.805 147.877 163.929 147.11 164.453 145.429Z" fill="#6E6F69"/>
<path d="M184.635 160.276C184.537 160.19 183.246 160.556 183.246 158.887C183.843 159.411 184.135 159.642 184.635 160.276Z" fill="#FDFDFE"/>
<path d="M163.296 157.961C163.43 157.011 162.383 156.695 163.065 156.11C164.599 157.523 163.345 157.888 163.296 157.961Z" fill="#605F61"/>
<path d="M152.859 165.854C153.163 165.817 153.967 167.157 153.321 167.242C153.017 167.279 152.213 165.939 152.859 165.854Z" fill="#545252"/>
<path d="M157.036 118.988C157.39 118.988 157.39 120.852 157.036 120.839C156.683 120.839 156.683 118.976 157.036 118.988Z" fill="#605F61"/>
<path d="M156.099 112.497C156.452 112.497 156.452 114.36 156.099 114.348C155.746 114.348 155.746 112.485 156.099 112.497Z" fill="#605F61"/>
<path d="M353.985 71.1972C353.985 71.1972 354.375 71.1607 354.911 71.8914L354.217 72.5856L353.985 71.1972Z" fill="#E3E4E5"/>
<path d="M319.421 154.71C319.713 154.673 320.03 154.661 320.115 154.941C320.505 156.269 317.314 155.002 319.421 154.71Z" fill="#C1C1C0"/>
<path d="M150.995 165.391C151.3 165.354 152.104 166.694 151.458 166.779C151.154 166.816 150.35 165.476 150.995 165.391Z" fill="#605F61"/>
<path d="M355.374 31.761C355.374 31.761 356.129 31.5174 356.762 32.4552C355.91 33.2591 355.435 31.7976 355.374 31.761Z" fill="#C1C1C0"/>
<path d="M157.499 163.99C157.804 163.954 158.607 165.293 157.962 165.379C157.657 165.415 156.854 164.075 157.499 163.99Z" fill="#545252"/>
<path d="M389.476 28.5093C389.78 28.4727 390.584 29.8124 389.938 29.8977C389.634 29.9342 388.83 28.5945 389.476 28.5093Z" fill="#6E6F69"/>
<path d="M387.624 25.7323C387.929 25.6958 388.732 27.0355 388.087 27.1207C387.782 27.1573 386.979 25.8176 387.624 25.7323Z" fill="#5D5E58"/>
<path d="M391.339 22.9434C391.643 22.9068 392.447 24.2465 391.802 24.3318C391.497 24.3683 390.693 23.0286 391.339 22.9434Z" fill="#6E6F69"/>
<path d="M167.937 161.676C167.973 161.737 169.435 162.224 168.631 163.065C167.693 162.431 167.985 161.737 167.937 161.676Z" fill="#545252"/>
<path d="M162.371 163.065C162.334 162.991 160.861 162.529 161.677 161.676C162.614 162.309 162.322 163.004 162.371 163.065Z" fill="#605F61"/>
<path d="M167.936 161.676C167.9 161.615 166.438 161.128 167.242 160.288C168.18 160.921 167.887 161.615 167.936 161.676Z" fill="#545252"/>
<path d="M316.632 159.813C316.924 159.776 317.241 159.764 317.326 160.044C317.716 161.372 314.525 160.105 316.632 159.813Z" fill="#C1C1C0"/>
<path d="M169.325 161.213C168.923 160.653 168.777 160.434 168.399 159.825C169.021 160.677 169.264 161.14 169.325 161.213Z" fill="#545252"/>
<path d="M166.779 166.779C167.084 166.743 167.888 168.082 167.242 168.168C166.938 168.204 166.134 166.865 166.779 166.779Z" fill="#757376"/>
<path d="M162.602 151.933C162.87 151.86 163.198 151.884 163.296 152.164C163.746 153.382 162.662 153.906 162.602 151.933Z" fill="#605F61"/>
<path d="M361.647 148.218C362.292 148.303 361.488 149.655 361.184 149.607C360.538 149.521 361.342 148.169 361.647 148.218Z" fill="#E3E4E5"/>
<path d="M159.35 141.727C159.654 141.69 160.458 143.03 159.813 143.115C159.508 143.152 158.704 141.812 159.35 141.727Z" fill="#757376"/>
<path d="M172.346 168.63L173.04 168.862L172.809 169.556L172.577 169.325L172.346 168.63Z" fill="#605F61"/>
<path d="M152.858 125.017L153.321 125.48V125.942H152.858V125.017Z" fill="#605F61"/>
<path d="M153.553 148.218C153.577 148.291 154.527 148.255 153.784 149.607L153.553 148.218Z" fill="#605F61"/>
<path d="M367.675 23.869L368.138 24.344V24.8068H367.675V23.869Z" fill="#605F61"/>
<path d="M391.108 21.0921C391.108 21.0921 389.598 21.3113 390.414 20.1665C391.096 20.6658 391.059 21.0556 391.108 21.0921Z" fill="#43423F"/>
<path d="M184.634 160.276C184.634 160.276 185.877 160.726 185.329 161.201C184.318 161.372 184.707 160.336 184.634 160.276Z" fill="#FDFDFE"/>
<path d="M393.19 169.556L393.422 170.262L392.728 170.494L392.496 170.262L393.19 169.556Z" fill="#605F61"/>
<path d="M389.013 20.6293L389.707 20.8607L389.476 21.5549L389.244 21.3235L389.013 20.6293Z" fill="#605F61"/>
<path d="M168.631 169.093L169.094 169.556V170.019H168.631V169.093Z" fill="#545252"/>
<path d="M163.296 157.962C163.211 158.132 163.455 158.924 163.065 158.887C160.982 158.717 163.284 158.059 163.296 157.962Z" fill="#605F61"/>
<path d="M154.247 169.093L154.71 169.556V170.019H154.247V169.093Z" fill="#605F61"/>
<path d="M382.521 27.5836L383.215 27.815L382.983 28.5092L382.752 28.2778L382.521 27.5836Z" fill="#787C76"/>
<path d="M203.196 203.426C203.586 219.515 202.697 236.066 204.122 251.912V215.252H205.048C204.317 220.282 205.486 249.683 205.048 251.437C204 255.602 202.259 252.143 202.027 252.131C200.736 252.094 199.421 255.188 198.081 248.416C196.851 242.18 197.034 198.676 197.618 189.493C205.023 188.129 202.928 192.843 203.184 203.414L203.196 203.426Z" fill="#FDFDFE"/>
<path d="M207.836 189.043C207.325 189.238 207.069 189.981 206.911 190.431C206.618 191.259 206.533 191.272 206.448 192.282C206.204 195.376 207.081 199.078 205.985 202.026C206.034 195.79 204.511 182.636 203.671 195.997C203.598 197.069 203.695 198.177 203.671 199.249C203.647 200.016 203.671 200.796 203.671 201.563C203.671 201.721 203.671 201.867 203.671 202.026C203.671 202.489 203.659 202.964 203.671 203.414H203.208C202.952 192.843 205.047 188.129 197.642 189.493C197.642 189.335 196.887 188.495 197.18 186.473C199.786 186.351 206.265 185.693 207.849 189.031L207.836 189.043Z" fill="#454145"/>
<path d="M205.985 202.038C204.146 206.97 206.399 194.901 203.671 196.009C204.511 182.649 206.034 195.802 205.985 202.038Z" fill="#C1C1C0"/>
<path d="M205.753 203.889C206.18 203.889 205.96 211.611 205.985 212.475C206.423 230.781 204.791 211.745 205.753 203.889Z" fill="#C1C1C0"/>
<path d="M203.659 203.426C203.647 202.964 203.659 202.501 203.659 202.038C203.963 202.038 204.463 201.904 204.584 202.269C205.315 204.364 204.389 225.836 203.659 203.426Z" fill="#949494"/>
<path d="M203.658 201.575C203.658 200.808 203.634 200.028 203.658 199.261C205.059 198.944 205.059 201.904 203.658 201.575Z" fill="#949494"/>
<path d="M200.175 254.006C201.223 254.445 199.116 256.186 198.555 255.163C198.288 254.676 200.09 253.97 200.175 254.006Z" fill="#949494"/>
<path d="M213.633 251.68C214.632 250.962 214.194 253.324 213.633 253.069C213.28 252.91 213.244 251.96 213.633 251.68Z" fill="#949494"/>
<path d="M194.609 252.143C194.877 252.07 195.206 252.094 195.304 252.374C195.754 253.592 194.67 254.116 194.609 252.143Z" fill="#949494"/>
<path d="M206.447 192.295C206.533 191.272 206.618 191.259 206.91 190.443L206.447 192.295Z" fill="#949494"/>
<path d="M160.97 158.887C157.706 154.003 154.345 143.858 158.412 156.573C153.212 148.303 151.519 138.268 149.826 129.901C150.289 129.803 150.922 129.194 150.983 129.206C151.677 129.328 155.441 141.3 154.929 142.433C157.463 144.248 164.599 161.469 159.569 154.49C161.944 159.094 160.824 158.692 160.958 158.899L160.97 158.887Z" fill="#605F61"/>
<path d="M153.784 141.264C154.101 142.177 155.879 146.318 155.867 146.598C155.745 150.642 152.189 141.215 153.784 141.264Z" fill="#949494"/>
<path d="M156.561 146.83L157.268 147.061L156.561 147.755L156.33 147.524L156.561 146.83Z" fill="#ADADAE"/>
<path d="M279.29 194.146C278.206 184.951 279.071 193.829 279.29 200.406C279.522 207.263 279.656 242.034 278.827 245.639C277.902 249.658 273.14 252.898 269.315 253.531C263.737 254.457 273.371 251.047 275.113 246.808C278.048 239.696 276.148 203 275.576 219.893C266.867 228.747 280.971 216.3 273.018 224.301C266.429 225.41 275.101 221.963 275.101 217.578C270.119 220.769 276.282 213.425 276.489 212.475C277.646 207.36 274.211 193.817 275.563 187.886H274.638C269.133 197.739 265.491 198.81 274.175 187.886L269.303 191.369L272.787 187.423C269.851 187.338 261.168 189.822 266.295 186.266C271.24 185.462 280.252 184.439 281.604 190.675C281.689 191.064 282.116 196.85 282.067 197.166C281.641 199.821 280.886 194.048 279.278 194.146H279.29Z" fill="#060506"/>
<path d="M279.29 194.146C279.631 197.008 279.619 199.906 280.216 202.732C280.532 209.625 280.545 240.926 279.753 245.651H278.827C279.655 242.046 279.522 207.275 279.29 200.418C279.071 193.841 278.206 184.963 279.29 194.158V194.146Z" fill="#C1C1C0"/>
<path d="M266.295 186.266C261.18 189.834 269.851 187.35 272.786 187.423L269.303 191.369L274.175 187.886C265.491 198.81 269.133 197.739 274.638 187.886H275.563C274.211 193.817 277.646 207.36 276.489 212.475C276.27 213.425 270.119 220.769 275.1 217.578C275.1 221.963 266.417 225.422 273.018 224.301C280.971 216.3 266.867 228.747 275.575 219.893C276.148 203 278.048 239.684 275.113 246.808C273.359 251.059 263.737 254.457 269.315 253.531C273.14 252.898 277.902 249.671 278.827 245.639H279.753C279.534 246.93 279.351 248.136 278.827 249.354C276.525 254.652 265.917 255.882 261.192 253.994C261.058 253.288 259.84 252.642 259.803 252.374C259.012 247.101 262.3 200.905 260.266 187.886C262.799 189.725 260.705 184.208 263.749 187.654C263.944 184.293 265.735 186.351 266.307 186.266H266.295Z" fill="#FDFDFE"/>
<path d="M273.955 191.832C274.089 196.326 268.475 202.513 274.418 195.084C273.407 199.432 273.772 201.271 269.315 202.038C273.578 195.583 262.385 203.085 272.798 194.377L273.955 191.82V191.832Z" fill="#949494"/>
<path d="M275.344 226.628C276.087 227.249 274.808 228.04 273.724 229.185C268.743 234.386 272.762 228.43 275.344 226.628Z" fill="#605F61"/>
<path d="M264.212 189.981V193.232C263.116 192.124 262.836 190.784 264.212 189.981Z" fill="#605F61"/>
<path d="M270.703 246.577C272.908 245.481 273.078 247.88 271.166 247.503C271.032 247.478 270.253 246.796 270.703 246.577Z" fill="#C1C1C0"/>
<path d="M266.989 196.472L267.683 196.703L266.989 197.398L266.758 197.166L266.989 196.472Z" fill="#838A84"/>
<path d="M386.004 183.94C385.542 183.964 385.067 183.915 384.616 183.94C378.636 184.22 372.729 183.343 366.749 183.477C366.018 184.013 366.116 184.402 366.055 184.402C365.75 184.402 365.434 184.402 365.129 184.402C364.971 184.402 364.825 184.402 364.666 184.402C364.508 184.402 364.362 184.402 364.204 184.402L348.894 184.634C350.344 185.523 347.579 188.397 347.506 188.811C346.739 193.33 347.713 216.336 347.969 222.913C348.042 224.679 347.677 235.531 348.2 235.908C356.981 235.202 416.391 241.973 419.424 240.086L420.812 223.851C420.8 224.618 420.837 225.397 420.812 226.165C420.788 227.139 420.812 228.004 420.812 228.954C420.812 232.583 420.812 236.225 420.812 239.854C460.931 243.52 501.499 243.191 541.678 247.515V250.304C519.512 249.025 497.273 247.003 475.095 245.664C472.927 245.53 470.759 245.335 468.603 245.201C446.754 243.885 424.795 243.423 402.958 241.949C389.926 241.072 360.976 237.321 352.853 237.309C348.139 237.309 347.543 236.639 347.518 239.623C347.518 240.317 347.518 241.011 347.518 241.705C368.917 243.971 390.523 246.48 412.007 248.428V248.891C390.742 246.979 369.502 244.58 348.212 242.862C346.666 249.33 350.173 247.149 352.853 251.217C353.279 251.132 354.594 249.817 354.704 249.829C362.547 250.426 370.488 251.729 378.368 252.143C404.979 253.58 431.786 253.105 458.397 254.457C458.093 256.15 457.399 256.442 458.86 256.771C461.613 257.404 478.676 256.808 484.607 257.234C503.57 258.598 522.411 262.446 541.447 263.262H541.91C542.019 263.896 541.837 264.687 541.91 265.345C513.618 262.885 485.265 258.975 456.777 257.684C414.406 257.295 371.998 258.951 329.651 258.61C328.762 258.61 326.582 257.222 326.4 257.222C309.933 257.088 293.443 257.441 276.989 257.222C276.526 257.222 276.063 257.222 275.6 257.222C258.927 257.027 242.376 256.564 225.727 255.833C212.853 260.084 197.544 258.123 183.964 258.622C183.307 258.135 183.307 257.745 183.27 257.697H213.657C234.666 252.106 256.235 258.452 277.683 256.308C280.046 254.798 281.519 249.366 278.84 249.354C279.364 248.136 279.546 246.93 279.766 245.639C280.557 240.926 280.545 209.613 280.228 202.72C279.632 199.894 279.644 196.996 279.303 194.134C280.898 194.036 281.665 199.809 282.092 197.154C282.14 196.837 281.714 191.052 281.629 190.663C280.277 184.427 271.264 185.45 266.32 186.254C265.747 186.351 263.957 184.293 263.762 187.642C260.717 184.195 262.812 189.713 260.279 187.873C262.313 200.905 259.024 247.089 259.816 252.362C259.853 252.642 261.071 253.276 261.205 253.982C258.403 252.874 259.292 250.742 259.353 247.953L258.659 247.028C255.748 247.576 252.082 248.075 249.147 247.953C247.856 247.905 244.848 247.064 243.581 247.028C246.188 245.725 258.294 247.673 259.353 245.408C258.683 234.849 260.255 195.96 259.353 191.588C258.842 189.104 255.139 186.838 254.482 183.465C248.904 184.743 215.935 183.063 214.12 183.927C213.815 184.074 213.523 186.607 211.099 188.336C211.989 198.92 211.818 209.504 212.025 220.124H211.099C211.099 218.114 211.112 216.093 211.099 214.095C210.978 195.193 210.551 195.327 210.637 214.095C210.698 225.714 210.125 237.284 210.174 248.891C209.821 248.867 208.834 249.037 208.785 248.66C207.458 239.136 210.296 194.134 207.86 189.043C206.264 185.706 199.797 186.375 197.191 186.485C196.899 188.507 197.666 189.347 197.654 189.505C197.069 198.701 196.886 242.193 198.116 248.428H197.654C193.659 243.703 197.934 241.523 193.708 241.474C189.883 241.425 169.629 246.297 160.763 245.651V246.577H172.358L115.517 249.135C129.804 246.467 144.857 248.246 159.362 246.577V245.651C151.251 246.346 142.872 247.43 134.773 246.577C155.027 245.98 175.086 243.934 195.084 241.011L195.778 189.274C193.026 187.118 194.073 184.634 193.22 183.477L160.507 184.171V218.504L161.201 219.198C163.625 218.833 165.976 216.787 168.631 216.409C172.041 215.922 180.566 220.392 180.457 223.595H181.382C180.773 218.784 181.65 194.925 181.382 193.439C181.334 193.171 179.555 193.208 179.531 192.514C179.507 191.954 184.427 190.663 177.68 190.2C188.069 188.348 181.967 192.964 181.857 193.452C180.871 197.921 183.002 216.032 182.32 223.144C184.999 223.644 188.215 220.769 189.981 221.525C194.049 223.266 190.894 227.76 193.927 227.785C196.752 238.819 187.715 233.411 183.489 235.445C178.398 237.881 192.222 234.995 192.77 234.982C198.798 234.836 190.176 237.711 182.101 237.772C181.285 237.321 183.842 233.631 180.944 232.9C182.832 218.65 178.52 223.68 180.944 239.854C181.699 241.596 192.563 237.918 194.633 239.623C186.632 240.828 178.545 241.157 170.506 241.937C170.36 241.949 168.704 242.582 168.655 243.325C167.62 240.987 165.683 243.216 164.478 243.325C164.149 243.35 164.344 242.363 164.015 242.4C150.581 243.593 137.184 245.457 123.653 245.651C130.035 243.216 178.484 242.692 180.03 240.317C182.795 236.054 163.004 239.952 160.775 240.548C157.45 235.25 172.869 238.393 179.336 235.908C169.776 237.601 113.496 237.638 110.207 238.697C108.758 239.16 108.648 240.524 109.744 241.011C111.717 241.888 146.842 238.259 152.895 238.222C153.882 238.222 162.346 238.149 158.461 240.536C157.596 241.06 157.852 239.136 157.535 239.148C157.243 239.148 156.732 240.146 151.97 240.536C125.297 242.753 98.4666 244.056 71.7089 245.176C68.384 245.396 64.3893 246.358 61.2714 246.565C60.8695 243.252 62.1483 243.496 62.197 243.313L107.43 241.462C109.927 238.186 105.689 239.306 103.022 239.148C104.032 236.225 106.115 237.382 106.273 237.065C105.579 235.007 105.932 233.618 106.273 231.268C106.834 227.444 106.42 225.251 108.125 224.545C106.42 224.387 107.162 215.654 107.199 209.004C107.613 131.874 104.727 130.497 106.273 209.004C103.996 209.723 105.043 208.542 104.885 208.542V147.061C98.7223 144.991 113.739 145.112 102.802 144.504L104.885 143.346C103.204 142.433 102.132 144.321 101.17 142.884C95.4948 134.346 113.824 132.702 112.302 141.495C109.976 144.321 109.647 147.755 107.662 149.85L108.125 208.773C119.208 209.224 113.264 211.525 113.228 212.025C113.082 213.876 130.145 211.44 130.632 219.685C134.651 219.454 132.958 221.317 133.421 221.537C136.453 223.059 140.984 216.896 147.342 215.508C151.665 218.443 156.586 218.334 156.159 211.793C160.008 229.587 158.388 196.509 158.717 184.183C144.674 183.233 147.549 180.651 159.18 179.08C154.588 176.449 148.559 179.616 144.333 175.365C143.225 174.257 146.538 173.319 140.156 172.114L140.85 15.989L141.776 171.419L394.408 171.188L394.871 20.8607C394.566 19.9229 383.885 19.1312 382.57 19.2409C380.402 19.4114 383.179 22.0786 379.318 19.2409L149.193 19.7037L149.424 169.8L142.701 170.031L142.007 15.2948L180.286 15.0634L180.518 5.08867C174.659 3.98037 167.047 5.90468 171.468 0.217009C172.565 -0.0265743 171.943 1.58108 172.394 1.60543C177.692 1.95863 185.73 1.24006 191.418 1.60543C188.751 -0.525918 174.014 1.48364 174.014 0.448414C183.745 0.606743 196.618 -2.08485 192.344 4.39446C189.579 5.62456 184.744 0.777249 187.703 15.0634L353.803 15.0634C354.265 14.8807 354.326 5.49058 354.034 5.08867C353.632 4.52843 346.8 6.08736 348.931 1.37403C349.613 -0.136186 370.512 -0.927832 371.207 1.83684C372.352 6.42838 364.106 3.35923 355.666 4.85727L356.129 15.0634H399.742L400.899 16.6832L400.205 171.419L399.511 17.6088L398.354 16.4518L142.47 16.2204L397.879 17.3774L398.573 18.0717C396.503 69.1632 398.196 120.474 397.648 171.651C405.211 175.158 392.191 170.092 398.573 174.44C396.077 181.333 387.332 174.939 383.495 179.312C363.838 180.225 390.498 179.933 391.85 180.7C392.411 181.017 391.071 183.879 390.925 183.952C390.486 184.147 387.417 183.867 386.053 183.952L386.004 183.94Z" fill="#060506"/>
<path d="M332.173 234.982C330.918 235.056 328.373 235.202 327.995 233.825C327.618 232.413 327.849 207.872 327.995 204.595C328.117 201.965 331.357 195.23 326.375 196.935C322.709 198.189 327.435 201.063 327.532 201.344C328.068 202.89 328.373 233.484 326.838 234.057C326.728 234.093 324.889 233.241 324.755 232.9C323.83 230.598 326.071 215.252 323.83 233.363C320.846 231.158 324.012 227.224 321.041 230.574C321.528 224.776 320.383 210.125 321.041 206.909C321.163 206.301 322.855 205.631 322.892 205.521C324.11 202.196 318.593 202.196 318.252 204.133C317.935 205.923 319.762 202.61 321.735 203.438C324.658 204.669 319.324 205.789 319.177 205.996C318.849 206.483 320.481 207.043 320.566 207.847C320.846 210.344 320.822 231.962 320.334 233.131C320.298 233.204 319.031 234.045 318.946 234.057C317.558 234.264 315.986 230.537 317.095 227.565C318.106 236.761 320.14 229.063 316.169 223.388L315.938 232.9C314.866 233.911 314.708 224.642 313.855 233.131C308.922 234.24 311.468 219.771 310.835 212.025C310.238 211.148 306.438 213.255 305.732 214.582C303.259 219.174 308.862 234.069 302.943 231.511C303.844 213.45 302.163 211.136 302.248 231.28C299.009 230.476 296 232.413 294.356 230.354C289.46 234.581 290.885 227.845 290.41 226.871C288.693 223.29 290.897 232.035 289.022 231.511C287.256 223.972 289.399 235.762 287.402 230.354C286.221 234.13 286.89 229.331 283.456 232.912C297.742 234.909 312.211 235.031 326.607 235.932C329.152 236.091 331.746 235.397 332.635 236.627C334.012 243.021 328.908 251.656 328.226 251.242C327.654 250.901 328.336 249.329 327.764 248.928C326.704 248.185 310.786 249.013 301.786 248.465C294.295 248.014 276.623 246.48 286.245 245.907L282.53 244.982C283.858 235.604 281.799 193.354 282.993 189.773C283.298 188.86 286.16 189.067 286.476 183.513L329.858 184.208C328.775 186.741 332.087 188.531 332.173 188.848C332.855 191.052 333.281 232.985 332.173 235.007V234.982Z" fill="#E3E4E5"/>
<path d="M107.15 208.992C106.846 209.029 106.444 208.919 106.224 208.992C104.69 130.485 107.564 131.862 107.15 208.992Z" fill="#E3E4E5"/>
<path d="M366.042 1.60551L369.757 1.60551C372.655 3.4202 351.391 3.50546 350.501 2.99393C349.868 2.62856 350.38 1.44718 350.964 1.1427C352.255 2.76253 361.621 2.22665 366.042 1.60551Z" fill="#757376"/>
<path d="M105.067 136.624C106.894 136.429 111.778 137.488 110.865 139.181C107.32 137.294 101.937 139.888 101.815 138.024C102.997 137.683 104.885 136.648 105.067 136.636V136.624Z" fill="#FDFDFE"/>
<path d="M259.341 247.965H249.135C252.07 248.087 255.736 247.588 258.647 247.04L259.341 247.965Z" fill="#605F61"/>
<path d="M105.067 139.401L110.402 140.558C105.274 139.961 98.3932 141.191 105.067 139.401Z" fill="#949494"/>
<path d="M161.201 239.16C161.59 239.197 162.784 238.99 162.82 239.391C162.857 239.732 160.506 239.854 161.201 239.16Z" fill="#C1C1C0"/>
<path d="M243.788 175.597C249.743 176.182 283.151 174.878 285.075 175.597C285.319 175.694 286.001 176.462 285.769 176.754L243.775 177.448V175.597H243.788Z" fill="#FDFDFE"/>
<path d="M339.833 175.134C340.722 175.134 341.026 176.06 341.221 176.06C343.133 176.06 362.084 174.391 360.476 176.754C359.453 178.264 328.177 176.401 324.061 176.985C321.674 175.414 334.145 175.171 339.833 175.134Z" fill="#C1C1C0"/>
<path d="M182.552 4.85725C186.449 3.05473 185.377 14.698 184.866 15.0634C180.432 18.2178 181.589 5.2957 182.552 4.85725Z" fill="#FDFDFE"/>
<path d="M201.575 175.597C202.476 175.085 219.479 175.816 222.219 175.828C221.61 176.181 221.866 176.851 221.525 176.985C220.623 177.351 202.939 177.826 202.038 177.448C201.453 177.205 200.954 175.938 201.575 175.597Z" fill="#E3E4E5"/>
<path d="M304.111 175.597C304.878 175.098 322.538 175.244 321.515 176.754C320.979 177.546 300.043 178.276 304.111 175.597Z" fill="#FDFDFE"/>
<path d="M388.086 174.659C389.84 174.647 393.92 174.476 394.578 174.659C400.351 176.303 378.197 177.095 377.649 176.279C376.748 174.939 386.43 174.671 388.086 174.659Z" fill="#FDFDFE"/>
<path d="M182.552 175.597C183.282 175.183 199.493 175.451 199.481 176.291C194.767 177.46 178.727 177.765 182.552 175.597Z" fill="#E3E4E5"/>
<path d="M289.265 175.597C289.849 175.378 301.2 175.39 301.797 175.597C308.776 178.057 282.42 178.081 289.265 175.597Z" fill="#FDFDFE"/>
<path d="M225.239 175.597C257.136 174.61 231.938 179.19 225.702 176.985C225.349 176.864 224.606 175.914 225.239 175.597Z" fill="#FDFDFE"/>
<path d="M167.242 175.134C167.839 174.878 179.677 175.268 180.237 175.597C183.891 177.777 161.299 177.643 167.242 175.134Z" fill="#FDFDFE"/>
<path d="M369.525 175.134C374.214 175.098 377.211 175.926 374.166 176.985C369.513 178.605 353.985 175.268 369.525 175.134Z" fill="#FDFDFE"/>
<path d="M365.347 178.374C366.2 178.228 373.788 178.142 374.165 178.374C376.82 179.969 367.576 180.201 362.108 180.225C362.071 179.75 365.177 178.398 365.36 178.374H365.347Z" fill="#FDFDFE"/>
<path d="M172.808 2.0683L191.6 2.76251C185.693 2.79905 175.438 3.91953 172.808 2.0683Z" fill="#949494"/>
<path d="M224.764 179.299C230.232 177.533 257.988 181.163 224.301 180.225C223.838 180.091 224.52 179.372 224.764 179.299Z" fill="#E3E4E5"/>
<path d="M152.858 174.659C175.329 174.72 159.788 175.621 149.144 176.048V175.122L152.858 174.659Z" fill="#E3E4E5"/>
<path d="M243.788 179.299C271.459 178.69 246.138 181.492 243.788 180.688C243.008 180.42 243.045 179.713 243.788 179.299Z" fill="#FDFDFE"/>
<path d="M316.169 179.299C321.479 177.582 346.41 181.138 315.706 180.225C315.243 180.091 315.925 179.372 316.169 179.299Z" fill="#FDFDFE"/>
<path d="M299.934 179.299C305.451 177.509 328.214 181.151 299.471 180.225C299.008 180.091 299.69 179.372 299.934 179.299Z" fill="#FDFDFE"/>
<path d="M282.762 179.299L297.377 179.994C292.542 180.103 283.626 181.053 282.762 179.299Z" fill="#D3D1D8"/>
<path d="M168.167 178.837C173.404 177.667 193.329 181.808 167.704 179.762C167.229 179.616 167.984 178.873 168.167 178.837Z" fill="#E3E4E5"/>
<path d="M261.424 178.837L274.65 179.068C272.032 180.164 261.826 180.322 261.424 178.837Z" fill="#C1C1C0"/>
<path d="M183.014 179.299C199.894 178.849 199.857 180.603 183.014 180.225V179.299Z" fill="#E3E4E5"/>
<path d="M349.113 179.299C353.948 177.741 372.449 181.053 348.65 180.225C348.188 180.091 348.87 179.373 349.113 179.299Z" fill="#E3E4E5"/>
<path d="M212.707 179.299C224.63 178.873 224.533 180.395 212.707 180.225V179.299Z" fill="#E3E4E5"/>
<path d="M161.201 178.837L166.073 179.531C163.807 179.969 160.738 180.067 161.201 178.837Z" fill="#E3E4E5"/>
<path d="M343.085 178.837C345.131 179.141 342.318 180.858 340.064 179.531C342.695 179.372 342.927 178.812 343.085 178.837Z" fill="#FDFDFE"/>
<path d="M208.067 178.837C210.649 177.241 211.258 181.565 208.067 179.762C207.677 179.543 207.677 179.068 208.067 178.837Z" fill="#E3E4E5"/>
<path d="M197.861 178.837C200.297 178.496 200.309 180.188 196.935 179.762C196.363 179.592 197.8 178.849 197.861 178.837Z" fill="#D3D1D8"/>
<path d="M277.658 178.837C279.789 177.74 281.397 180.895 278.12 179.762C277.95 179.701 277.207 179.068 277.658 178.837Z" fill="#ADADAE"/>
<path d="M336.118 179.299C340.089 177.071 337.836 181.553 336.118 180.225C335.741 179.933 335.704 179.531 336.118 179.299Z" fill="#E3E4E5"/>
<path d="M344.936 179.299L347.493 179.531C346.665 180.103 344.923 180.87 344.936 179.299Z" fill="#B7BCC6"/>
<path d="M204.351 178.837C206.555 178.264 206.007 180.822 203.888 179.762C203.438 179.543 204.205 178.873 204.351 178.837Z" fill="#878793"/>
<path d="M161.201 176.522C161.822 176.547 162.443 176.474 163.052 176.522C166.389 176.766 163.479 177.594 161.201 176.522Z" fill="#E3E4E5"/>
<path d="M333.804 179.299C333.804 179.299 334.742 179.981 334.267 180.225C333.073 180.858 332.927 179.397 333.804 179.299Z" fill="#F5EFF7"/>
<path d="M258.634 179.299C259.024 179.336 260.217 179.129 260.254 179.531C260.291 179.872 257.94 179.994 258.634 179.299Z" fill="#E3E4E5"/>
<path d="M211.087 220.136L210.161 248.903C210.112 237.296 210.685 225.714 210.624 214.107H211.087C211.099 216.117 211.087 218.139 211.087 220.136Z" fill="#605F61"/>
<path d="M211.087 214.107H210.624C210.539 195.339 210.977 195.205 211.087 214.107Z" fill="#858381"/>
<path d="M201.574 179.299H202.037C203.73 179.506 201.27 180.335 201.574 179.299Z" fill="#D3D1D8"/>
<path d="M343.084 187.191L343.547 251.68L342.39 251.449L343.084 187.191Z" fill="#E3E4E5"/>
<path d="M331.94 247.04C334.632 246.784 331.295 258.829 332.172 249.123L330.32 250.511C330.917 249.963 331.002 247.125 331.94 247.028V247.04Z" fill="#ADADAE"/>
<path d="M337.043 249.829C337.481 249.78 338.724 252.996 337.968 253.544C335.971 254.981 336.787 249.866 337.043 249.829Z" fill="#ADADAE"/>
<path d="M333.804 254.006C334.949 253.288 342.463 257.173 333.804 254.932V254.006Z" fill="#545252"/>
<path d="M330.552 251.68C331.355 251.327 331.538 252.837 331.014 253.069C330.211 253.422 330.028 251.912 330.552 251.68Z" fill="#ADADAE"/>
<path d="M328.237 251.68C328.627 251.449 329.431 252.314 329.394 252.374C329.041 253.142 327.202 252.313 328.237 251.68Z" fill="#949494"/>
<path d="M333.803 251.68C334.375 251.29 334.412 253.458 333.803 253.069C333.45 252.849 333.401 251.948 333.803 251.68Z" fill="#ADADAE"/>
<path d="M339.832 254.469C341.025 254.628 341.366 255.565 340.295 255.395C340.148 255.371 339.345 254.628 339.832 254.469Z" fill="#696771"/>
<path d="M339.369 252.143L339.832 252.606V253.081L339.369 253.081V252.143Z" fill="#C1C1C0"/>
<path d="M332.414 254.006L332.646 254.701L331.939 254.932L331.708 254.701L332.414 254.006Z" fill="#C1C1C0"/>
<path d="M341.221 253.081L341.915 253.312L341.684 254.006L341.452 253.775L341.221 253.081Z" fill="#858381"/>
<path d="M339.138 250.755C340.917 242.375 338.31 216.629 338.676 239.854C338.736 243.423 339.565 247.125 339.138 250.755C338.115 250.17 335.241 248.331 334.961 247.271C335.789 236.675 334.011 193.89 334.498 191.125C335.229 186.997 336.605 186.229 340.527 187.874C339.309 216.702 341.367 224.594 340.99 190.663H341.915C340.308 203.585 342.658 244.361 341.915 249.123C341.842 249.61 341.233 252.009 340.758 252.143C340.32 251.729 339.589 251.01 339.138 250.755Z" fill="#FDFDFE"/>
<path d="M338.906 207.604C340.063 207.506 339.552 212.061 339.601 215.727C339.856 235.652 337.676 216.141 338.906 207.604Z" fill="#757376"/>
<path d="M339.137 250.755C339.563 247.125 338.735 243.411 338.674 239.854C338.309 216.629 340.915 242.375 339.137 250.755Z" fill="#545252"/>
<path d="M338.906 225.239C339.917 225.093 339.54 225.97 339.601 226.859C339.844 230.549 337.908 229.283 338.906 225.239Z" fill="#757376"/>
<path d="M340.294 213.632C341.305 213.523 340.891 214.217 340.989 214.789C341.561 217.932 339.21 217.7 340.294 213.632Z" fill="#757376"/>
<path d="M339.37 195.083C339.747 195.083 339.601 197.446 339.601 198.104C339.601 204.352 338.614 198.542 339.37 195.083Z" fill="#757376"/>
<path d="M339.37 189.98C339.735 189.98 339.577 190.979 339.601 191.6C339.821 196.691 338.432 189.98 339.37 189.98Z" fill="#757376"/>
<path d="M339.369 202.038C339.722 202.038 339.722 204.364 339.369 204.352C339.016 204.352 339.004 202.038 339.369 202.038Z" fill="#757376"/>
<path d="M348.882 222.913C348.2 223.522 350.672 225.3 350.733 228.247C350.831 233.229 347.883 228.832 350.271 233.35C350.331 233.472 349.016 234.166 349.576 234.507C360.075 234.751 370.476 236.432 380.889 237.297C383.349 237.504 385.846 237.577 388.318 237.759C398.658 238.539 409.132 238.466 419.399 240.073C416.367 241.961 356.969 235.19 348.176 235.896C347.652 235.518 348.017 224.667 347.944 222.901H348.87L348.882 222.913Z" fill="#E3E4E5"/>
<path d="M541.422 263.287C522.386 262.459 503.545 258.622 484.582 257.258C478.65 256.832 461.575 257.429 458.835 256.795C466.532 256.259 474.546 255.918 482.268 256.333C489.429 256.71 531.569 261.192 539.802 262.361C539.899 262.373 541.385 262.995 541.422 263.287Z" fill="#E3E4E5"/>
<path d="M324.987 250.755C329.919 252.301 306.73 253.178 304.574 253.069C297.291 252.728 316.546 251.96 323.598 251.68C323.683 251.68 324.743 250.949 324.987 250.755Z" fill="#757376"/>
<path d="M354.68 254.932C357.773 254.932 360.867 254.932 363.96 254.932C386.126 254.956 361.524 256.113 354.68 254.932Z" fill="#454145"/>
<path d="M421.495 241.011C424.052 240.134 423.175 243.009 421.032 241.937C420.581 241.718 421.324 241.072 421.495 241.011Z" fill="#ADADAE"/>
<path d="M313.855 207.141C317.935 205.229 313.916 208.773 314.318 209.455C317.399 208.03 315.694 215.24 314.086 212.475C318.312 211.258 310.347 208.785 313.855 207.141Z" fill="#605F61"/>
<path d="M316.632 219.21C317.18 219.393 316.608 221.037 316.4 221.293C315.317 222.682 312.15 222.803 316.632 219.21Z" fill="#333133"/>
<path d="M295.757 221.987C296.938 225.349 295.964 228.162 295.525 224.545C295.477 224.106 295.428 221.999 295.757 221.987Z" fill="#757376"/>
<path d="M299.008 225.702C299.081 225.678 300.141 226.786 300.165 226.859C302.078 232.705 297.693 226.116 299.008 225.702Z" fill="#605F61"/>
<path d="M299.008 221.987C299.666 221.732 300.482 223.619 299.934 223.839C299.276 224.094 298.46 222.207 299.008 221.987Z" fill="#43423F"/>
<path d="M315.706 217.81C316.498 217.859 316.802 218.248 316.169 218.736C314.342 220.136 313.088 217.639 315.706 217.81Z" fill="#545252"/>
<path d="M294.368 225.702C294.733 225.702 294.575 226.701 294.599 227.322C294.819 232.413 293.43 225.702 294.368 225.702Z" fill="#757376"/>
<path d="M292.504 224.776C293.284 224.545 293.101 225.166 293.199 225.471C293.954 227.894 291.469 225.081 292.504 224.776Z" fill="#333133"/>
<path d="M292.041 228.479C293.04 227.76 292.602 230.123 292.041 229.867C291.688 229.709 291.652 228.759 292.041 228.479Z" fill="#605F61"/>
<path d="M298.545 219.673C298.642 219.649 299.605 221.512 299.008 221.525C298.533 221.525 297.9 219.856 298.545 219.673Z" fill="#333133"/>
<path d="M297.145 221.525L297.607 221.987V222.45H297.145V221.525Z" fill="#545252"/>
<path d="M300.397 219.673L301.092 219.905L300.397 220.599L300.166 220.368L300.397 219.673Z" fill="#1B1B1C"/>
<path d="M298.546 228.479C298.887 228.454 298.899 229.879 298.546 229.867C298.193 229.867 298.18 228.491 298.546 228.479Z" fill="#333133"/>
<path d="M305.73 214.57C305.828 214.351 310.091 212.463 310.371 212.95C310.042 215.593 311.235 232.778 309.214 233.131C308.568 233.241 307.74 231.682 307.362 231.28C307.326 231.231 306.546 232.303 306.205 231.511C305.864 230.732 305.402 215.35 305.743 214.582L305.73 214.57Z" fill="#FDFDFE"/>
<path d="M332.172 234.982C331.782 235.701 328.335 235.555 327.531 235.445C327.848 234.702 326.74 233.801 326.606 234.982C326.569 235.287 326.618 235.604 326.606 235.908C312.21 235.019 297.753 234.885 283.455 232.888C286.89 229.319 286.22 234.118 287.401 230.33C289.399 235.738 287.255 223.948 289.021 231.487C290.909 232.011 288.692 223.266 290.409 226.847C290.872 227.821 289.459 234.544 294.355 230.33C295.987 232.388 298.996 230.464 302.248 231.256C302.162 211.111 303.843 213.425 302.942 231.487C308.861 234.033 303.246 219.15 305.731 214.558C305.39 215.338 305.853 230.72 306.194 231.487C306.547 232.279 307.314 231.207 307.351 231.256C307.74 231.658 308.569 233.229 309.202 233.107C311.236 232.754 310.03 215.569 310.359 212.926C310.079 212.451 305.816 214.327 305.719 214.546C306.437 213.218 310.225 211.111 310.822 211.988C311.455 219.734 308.897 234.203 313.842 233.095C314.695 224.606 314.853 233.874 315.925 232.863L316.156 223.351C320.127 229.027 318.105 236.724 317.082 227.529C315.973 230.501 317.545 234.227 318.933 234.02C319.018 234.02 320.297 233.168 320.321 233.095C320.809 231.926 320.833 210.308 320.553 207.811C320.455 206.995 318.823 206.447 319.164 205.96C319.298 205.753 324.645 204.644 321.722 203.402C319.761 202.574 317.922 205.886 318.239 204.096C318.58 202.172 324.097 202.16 322.879 205.485C322.842 205.594 321.15 206.264 321.028 206.873C320.37 210.088 321.515 224.74 321.028 230.537C324 227.188 320.821 231.122 323.817 233.326C326.058 215.204 323.817 230.561 324.742 232.863C324.876 233.204 326.715 234.069 326.825 234.02C328.36 233.448 328.055 202.854 327.519 201.307C327.422 201.027 322.696 198.165 326.362 196.898C331.344 195.181 328.104 201.928 327.982 204.559C327.836 207.835 327.605 232.376 327.982 233.789C328.36 235.177 330.905 235.019 332.16 234.946L332.172 234.982Z" fill="#333133"/>
<path d="M327.544 235.445C327.081 235.384 327.02 234.958 326.618 234.983C326.752 233.801 327.86 234.702 327.544 235.445Z" fill="#858381"/>
<path d="M326.837 197.398C328.554 197.044 329.054 199.151 327.763 199.712C325.656 200.65 325.132 197.739 326.837 197.398Z" fill="#FDFDFE"/>
<path d="M321.735 231.731C322.088 231.731 322.088 233.594 321.735 233.582C321.381 233.582 321.381 231.718 321.735 231.731Z" fill="#C1C1C0"/>
<path d="M158.656 231.268C157.876 231.048 157.657 231.779 157.267 231.731C155.708 228.588 157.486 225.276 155.416 223.607C156.597 222.133 154.783 218.053 157.499 218.273C159.35 218.419 158.777 228.734 158.656 231.268Z" fill="#757376"/>
<path d="M157.267 231.731C157.657 231.779 157.876 231.049 158.655 231.268C158.132 242.18 156.573 227.212 156.098 236.371C152.517 229.904 154.831 231.426 157.255 231.731H157.267Z" fill="#ADADAE"/>
<path d="M132.434 235.908C133.433 235.189 132.994 237.552 132.434 237.296C132.081 237.138 132.044 236.188 132.434 235.908Z" fill="#333133"/>
<path d="M134.298 235.908C134.639 235.884 134.651 237.309 134.298 237.296C133.945 237.296 133.932 235.92 134.298 235.908Z" fill="#949494"/>
<path d="M168.63 217.347C170.067 219.052 167.485 221.062 167.473 221.293C167.437 222.206 168.862 222.158 168.862 222.681C168.862 222.852 165.671 225.531 168.862 224.07C167.217 230.257 164.757 229.721 164.684 230.099C164.16 232.729 168.715 228.929 168.399 230.561C167.351 231.304 163.515 235.238 163.064 235.433C162.772 235.555 161.749 234.118 160.275 235.433L160.044 220.818C160.47 219.271 166.487 218.784 166.304 219.661L168.618 217.347H168.63Z" fill="#757376"/>
<path d="M166.303 221.524C167.399 221.658 166.596 223.607 165.841 222.45C165.536 221.987 166.255 221.512 166.303 221.524Z" fill="#605F61"/>
<path d="M482.5 255.858C496.226 256.856 510.122 258.415 523.787 260.035C526.382 260.339 540.85 261.472 541.654 261.886C542.093 262.118 541.812 262.861 541.886 263.275H541.423C541.386 262.97 539.888 262.361 539.803 262.349C531.57 261.18 489.43 256.698 482.269 256.32C474.547 255.906 466.533 256.247 458.836 256.783C457.374 256.454 458.069 256.162 458.373 254.469C466.375 254.883 474.51 255.273 482.5 255.858Z" fill="#060506"/>
<path d="M495.031 266.527H494.569L439.592 259.097C439.641 258.732 441.784 258.172 441.906 258.172C449.165 257.855 496.03 268.877 512.898 266.527C511.278 268.463 500.804 266.965 495.031 266.527Z" fill="#545252"/>
<path d="M516.37 254.469V255.395C508.502 254.457 480.733 250.645 476.934 250.754V250.292C478.834 250.864 510.304 253.751 516.37 254.469Z" fill="#949494"/>
<path d="M411.983 248.903C424.076 249.987 436.28 251.412 448.398 252.155C452.052 252.374 457.849 252.557 456.985 251.692C458.397 251.802 459.798 252.045 461.162 252.155C461.503 252.179 461.856 253.117 467.885 253.081C468.068 253.081 469.493 252.179 470.199 252.155C472.744 254.627 480.015 253.056 482.5 255.87C474.51 255.285 466.375 254.883 458.373 254.481C431.762 253.117 404.955 253.592 378.344 252.167C370.464 251.741 362.523 250.45 354.68 249.853C354.57 249.853 353.255 251.169 352.828 251.242C350.149 247.174 346.641 249.366 348.188 242.887C369.477 244.604 390.718 247.015 411.983 248.915V248.903Z" fill="#FDFDFE"/>
<path d="M468.579 245.189C470.26 249.853 463.086 244.373 462.319 248.903C428.582 247.174 394.956 244.263 361.402 240.548C356.786 240.037 352.134 239.586 347.481 239.623C347.506 236.639 348.103 237.297 352.816 237.309C360.952 237.309 389.889 241.072 402.921 241.949C424.758 243.423 446.729 243.885 468.567 245.201L468.579 245.189Z" fill="#FDFDFE"/>
<path d="M361.402 240.548C361.402 240.865 361.292 241.389 361.633 241.474C373.252 244.421 443.952 248.246 462.781 249.366C463.414 251.583 463.865 252.362 461.161 252.155C459.797 252.045 458.397 251.802 456.984 251.692C442.003 250.499 426.95 249.804 411.982 248.44C390.498 246.492 368.892 243.971 347.493 241.718C347.493 241.023 347.493 240.317 347.493 239.635C352.146 239.598 356.798 240.049 361.414 240.561L361.402 240.548Z" fill="#E3E4E5"/>
<path d="M456.984 251.68C457.849 252.545 452.064 252.362 448.398 252.143C436.28 251.412 424.076 249.975 411.982 248.891V248.428C426.951 249.792 442.004 250.486 456.984 251.68Z" fill="#43423F"/>
<path d="M468.579 245.189C470.734 245.323 472.902 245.517 475.07 245.651C474.473 248.112 474.437 249.537 476.921 250.292V250.754C474.888 250.815 474.644 250.608 475.302 253.068C489.271 252.691 503.168 254.713 517.064 255.858C517.429 255.882 517.174 256.759 517.527 256.783C525.431 257.356 525.638 256.491 516.37 255.395V254.469C519.67 254.859 541.264 256.625 542.117 257.721C547.22 264.176 525.784 257.928 523.787 260.035C510.11 258.415 496.225 256.856 482.5 255.858C480.027 253.056 472.744 254.615 470.199 252.143C469.492 252.167 468.067 253.068 467.885 253.068C461.844 253.093 461.49 252.167 461.162 252.143C463.865 252.362 463.415 251.57 462.781 249.354C443.952 248.233 373.252 244.421 361.634 241.462C361.28 241.376 361.402 240.841 361.402 240.536C394.956 244.239 428.582 247.162 462.319 248.891C463.086 244.36 470.272 249.853 468.579 245.176V245.189Z" fill="#C1C1C0"/>
<path d="M476.933 250.755C480.733 250.645 508.502 254.457 516.37 255.395C525.65 256.491 525.431 257.356 517.527 256.783C517.161 256.759 517.429 255.882 517.064 255.858C503.167 254.725 489.283 252.703 475.301 253.069C474.656 250.608 474.887 250.803 476.921 250.755H476.933Z" fill="#FDFDFE"/>
<path d="M466.728 251.217C466.606 251.351 466.947 252.557 466.497 252.606C466.095 252.654 465.157 251.205 466.728 250.755V251.217Z" fill="#E3E4E5"/>
<path d="M466.728 251.217V250.754C467.178 248.051 468.104 249.622 466.728 251.217Z" fill="#757376"/>
<path d="M519.623 205.29C519.55 205.886 520.865 205.899 521.474 205.752L521.937 241.705C521.109 243.557 513.765 241.267 514.045 242.862C512.34 242.826 510.525 242.436 508.942 242.4C508.857 241.778 507.687 241.839 507.553 241.243C506.823 238.113 508.101 214.546 507.553 207.372C507.87 206.836 517.747 205.704 519.611 205.29H519.623Z" fill="#C1C1C0"/>
<path d="M414.297 206.678C413.579 214.034 414.589 237.004 413.372 237.991C410.181 240.573 410.692 235.518 410.582 234.045C410.302 230.074 411.301 226.189 411.045 222.219C410.814 221.853 402.824 222.682 402.459 222.913C401.57 223.498 401.107 227.042 404.542 227.553V237.528C400.133 239.026 400.547 235.25 400.364 224.764C400.315 222.073 400.73 219.259 399.901 216.641C412.044 214.546 405.93 214.327 408.719 208.749C408.281 208.067 400.462 210.32 400.364 208.054C405.285 207.421 409.633 206.654 414.285 206.666L414.297 206.678Z" fill="#C1C1C0"/>
<path d="M490.856 241.011C489.37 243.094 484.791 241.45 482.964 241.474V218.041C483.341 217.177 490.564 216.093 490.856 217.116C491.136 222.974 490.259 237.613 490.856 241.011Z" fill="#E3E4E5"/>
<path d="M443.99 217.81C449.044 220.258 444.355 232.34 447.242 239.854L438.424 239.623C438.777 238.368 437.157 216.604 437.961 213.645C441.785 214.595 435.623 217.554 443.99 217.822V217.81Z" fill="#E3E4E5"/>
<path d="M524.726 172.808C523.751 173.064 524.726 173.246 524.726 173.271C525.261 175.463 526.065 175 526.114 175.122C528.257 183.245 512.035 181.102 508.247 184.402C507.066 185.425 507.407 187.35 508.247 187.654C509.623 188.154 527.977 181.467 536.551 179.762C538.999 179.275 542.361 178.751 541.192 179.762C539.889 180.895 509.599 186.351 508.016 189.043C507.2 190.431 508.016 191.393 507.09 192.295C507.017 190.638 507.529 185.438 505.933 185.34C500.818 189.493 474.036 194.682 473.22 196.703C473.147 210.49 471.905 202.306 472.294 194.621H472.757C472.684 195.339 472.684 195.571 473.451 195.546C475.156 195.498 504.07 186.022 505.933 184.877C506.372 184.609 507.09 183.976 505.933 183.952C505.166 183.927 494.96 188.056 491.55 189.055C490.015 189.505 490.003 188.568 489.93 188.592C489.966 188.3 489.857 187.898 489.93 187.666C500.087 184.037 510.586 181.26 521.242 179.312C521.839 176.985 520.585 177.058 518.685 177.46C518.904 176.242 518.051 176.51 516.833 176.535V176.072C518.405 175.816 519.196 175.646 520.779 176.072C521.388 172.065 523.24 172.942 524.726 172.82V172.808Z" fill="#FDFDFE"/>
<path d="M417.086 221.525C418.864 220.818 420.253 221.476 420.801 221.525V223.839L419.412 240.073C409.145 238.454 398.671 238.527 388.331 237.759V236.834C388.696 236.931 394.701 237.248 395.992 237.297C396.321 237.297 396.625 236.371 396.686 236.371C396.99 236.371 397.307 236.371 397.612 236.371C397.782 236.371 397.051 237.881 400.401 237.528C399.926 233.326 400.206 228.929 399.938 224.764H400.401C400.571 235.25 400.169 239.026 404.578 237.528V227.553C404.578 227.553 404.542 227.504 405.041 227.553C405.284 229.806 404.7 236.554 405.041 237.297C405.431 238.161 409.084 238.49 409.45 238.222C409.925 237.881 409.632 234.861 409.681 234.045H410.607C410.704 235.518 410.205 240.573 413.396 237.991C414.614 237.004 413.603 214.022 414.321 206.678C414.419 205.643 415.052 198.116 415.71 201.806C415.746 202.013 414.796 205.497 414.784 205.984C414.626 210.088 413.213 236.529 413.859 238.003C414.175 238.721 417.476 239.099 417.573 238.929C418.34 237.54 417.11 224.167 417.11 221.525H417.086Z" fill="#333133"/>
<path d="M532.617 173.733C535.833 173.624 539.584 172.26 542.361 174.196C542.507 175.901 541.898 175.512 541.898 175.585C538.159 175.962 533.92 177.728 530.535 178.374C528.781 178.703 528.221 177.241 526.82 179.299C526.381 178.971 526.844 176.9 526.126 175.122C526.077 175 525.273 175.463 524.737 173.271C527.271 173.953 530.023 173.819 532.629 173.733H532.617Z" fill="#E3E4E5"/>
<path d="M542.362 174.196C539.585 172.248 535.834 173.624 532.618 173.733V172.808C534.92 172.71 543.214 173.405 541.436 169.325C540.486 167.145 522.51 168.192 519.867 170.019C515.324 167.364 540.827 165.829 541.911 168.399C541.594 170.396 542.215 172.284 542.374 174.196H542.362Z" fill="#060506"/>
<path d="M431.701 194.146C451.054 193.719 442.894 195.96 430.544 194.84L431.701 194.146Z" fill="#1B1B1C"/>
<path d="M431.007 197.86H430.081C430.081 197.86 429.363 197.86 429.619 197.166C430.24 195.473 444.1 195.485 442.382 196.472L430.788 196.935L431.019 197.86H431.007Z" fill="#858381"/>
<path d="M532.618 172.808V173.734C530.024 173.819 527.271 173.953 524.726 173.271C524.726 173.246 523.752 173.064 524.726 172.808C527.32 172.613 530.012 172.918 532.618 172.808Z" fill="#605F61"/>
<path d="M514.057 242.862C513.777 241.255 521.121 243.557 521.949 241.705L521.486 205.753C528.209 204.194 534.883 202.099 541.898 201.807L542.361 242.631C541.63 243.898 517.491 242.948 514.057 242.862Z" fill="#333133"/>
<path d="M528.672 220.599C530.34 220.538 530.462 229.867 528.903 232.425C531.29 230.72 532.386 236.992 528.209 238.685L528.672 220.587V220.599Z" fill="#757376"/>
<path d="M539.803 216.422C544.371 217.81 533.178 218.236 526.577 219.442C524.933 216.872 538.354 217.566 539.803 216.422Z" fill="#C1C1C0"/>
<path d="M539.341 219.211C540.546 226.737 539.706 234.836 538.878 242.412L539.341 219.211Z" fill="#949494"/>
<path d="M532.386 221.525C532.861 228.467 532.8 235.506 531.923 242.4C531.411 235.458 531.594 228.43 532.386 221.525Z" fill="#949494"/>
<path d="M535.163 221.987C536.308 221.89 535.833 226.469 535.858 230.111C536.004 248.757 534.384 229.916 535.163 221.987Z" fill="#949494"/>
<path d="M537.027 227.09C537.831 227.09 536.722 246.492 536.795 233.351C536.795 232.62 536.649 227.09 537.027 227.09Z" fill="#757376"/>
<path d="M530.986 221.987C531.887 226.469 530.401 235.823 530.755 226.859C530.803 225.617 530.572 221.987 530.986 221.987Z" fill="#858381"/>
<path d="M538.414 219.211C538.78 219.211 538.67 222.182 538.646 222.694C538.426 228.248 537.403 226.384 538.414 219.211Z" fill="#949494"/>
<path d="M540.729 222.913C541.106 222.913 540.96 225.276 540.96 225.934C540.96 232.181 539.974 226.372 540.729 222.913Z" fill="#858381"/>
<path d="M537.952 226.165C538.658 225.909 538.975 226.847 538.415 227.09C537.733 227.395 537.392 226.36 537.952 226.165Z" fill="#858381"/>
<path d="M539.803 215.033H540.266C541.959 215.24 539.498 216.068 539.803 215.033Z" fill="#949494"/>
<path d="M437.96 213.632C437.157 216.604 438.776 238.368 438.423 239.611C438.216 240.366 437.522 239.83 437.498 240.536C432.943 240.195 428.375 239.805 423.808 239.611C422.603 238.746 425.623 222.499 420.788 228.942C420.788 227.992 420.763 227.127 420.788 226.153C423.394 228.247 423.053 221.05 421.945 220.587C421.823 220.538 421.275 221.549 420.788 221.512C420.252 221.464 418.851 220.806 417.073 221.512C417.073 220.477 416.927 215.959 417.073 215.715C417.158 215.581 419.935 214.522 420.094 214.558C421.616 214.899 420.337 218.48 420.788 219.43C423.419 224.947 425.952 208.298 421.019 211.306C420.398 207.531 418.376 208.042 418.462 207.823C418.73 207.19 421.616 209.625 420.776 201.331C414.065 200.394 420.483 200.978 421.238 198.542C422.115 195.753 420.496 163.747 421.238 157.255C418.133 154.697 420.581 154.21 420.313 153.54C415.612 151.458 419.862 150.654 419.85 150.289C419.813 149.278 414.71 150.459 417.061 146.111C418.803 142.896 426.743 142.896 427.267 147.037C427.681 150.289 425.148 149.716 424.953 150.289C424.636 151.202 427.547 151.604 424.027 153.54C425.258 156.768 423.224 156.049 423.102 156.792C421.945 163.759 424.332 188.714 423.565 199.017L431.688 199.249C431.786 207.007 434.112 205.74 429.606 207.372C440.421 205.57 431.871 208.213 426.585 208.529C422.408 217.53 427.657 213.645 435.866 213.17C436.937 212.451 437.571 206.045 434.246 205.046C439.885 202.221 435.646 204.437 437.266 205.278C439.057 206.215 462.696 197.933 466.728 197.154L457.447 201.331L457.216 215.021L456.29 201.563C453.891 202.014 439.385 205.204 438.655 205.74C437.522 206.569 437.644 210.843 438.655 211.306C439.714 211.793 451.638 208.444 454.195 208.749C451.224 211.05 438.837 210.344 437.96 213.62V213.632Z" fill="#1B1B1C"/>
<path d="M435.877 213.632C436.912 213.986 436.961 219.186 435.877 219.661C430.055 219.149 423.028 222.097 425.671 215.021C427.291 215.52 435.39 213.462 435.877 213.632Z" fill="#FDFDFE"/>
<path d="M427.523 200.649C428.339 200.625 430.531 200.454 431.006 200.881C431.262 201.112 432.76 205.825 429.386 206.678C423.212 208.237 421.64 200.795 427.535 200.649H427.523Z" fill="#FDFDFE"/>
<path d="M419.631 215.958C421.324 216.287 420.24 221.646 418.242 220.136C417.524 219.588 418.657 215.776 419.631 215.958Z" fill="#949494"/>
<path d="M420.799 226.165C420.824 225.397 420.787 224.618 420.799 223.85V221.536C421.287 221.573 421.847 220.562 421.956 220.611C423.065 221.074 423.406 228.272 420.799 226.177V226.165Z" fill="#FDFDFE"/>
<path d="M422.42 174.196C421.689 177.472 424.527 207.664 422.883 208.066C422.468 208.164 421.835 207.677 421.726 207.372C421.165 205.813 421.652 178.422 422.42 174.196Z" fill="#FDFDFE"/>
<path d="M421.494 144.503C426.682 143.967 428.424 146.72 418.242 146.817V145.892C419.399 145.563 421.311 144.515 421.494 144.503Z" fill="#E3E4E5"/>
<path d="M425.208 237.759L425.44 238.465L424.733 238.697L424.502 238.465L425.208 237.759Z" fill="#C1C1C0"/>
<path d="M398.526 219.673C385.713 225.544 385.263 216.762 387.625 215.033C388.234 214.582 394.08 214.473 395.517 214.107C403.531 212.074 388.125 214.424 386.237 214.107C384.422 224.825 388.393 240.427 381.365 236.383C381.329 236.322 380.513 236.554 380.44 236.152C380.026 233.825 380.744 228.881 380.44 225.946H381.365C381.986 238.21 381.292 226.043 381.828 225.02C382.218 224.277 384.727 226.883 384.142 217.591C383.594 216.214 378.308 218.382 377.188 218.748C377.2 218.65 376.396 218.845 377.651 216.896C380.537 215.557 384.142 215.094 385.774 212.256L398.769 209.942C398.745 213.084 400.499 217.274 398.538 219.685L398.526 219.673Z" fill="#FDFDFE"/>
<path d="M377.65 216.884C376.395 218.833 377.199 218.65 377.187 218.735C376.602 222.682 376.347 224.715 381.596 222.913C383.106 222.389 381.864 219.223 383.678 223.144C373.168 224.046 379.696 227.005 377.881 236.371C376.809 234.629 373.959 236.188 370.695 235.445C371.377 230.817 369.563 224.545 371.158 220.136C372.608 216.129 373.594 217.457 373.716 221.987C373.643 215.861 375.543 217.859 377.662 216.884H377.65Z" fill="#C1C1C0"/>
<path d="M399.914 224.776C400.182 228.942 399.902 233.338 400.377 237.54C397.04 237.893 397.77 236.383 397.588 236.383C398.111 230.768 395.322 224.557 398.976 219.685C399.804 220.343 399.829 223.644 399.902 224.788L399.914 224.776Z" fill="#E3E4E5"/>
<path d="M371.147 220.136C369.551 224.557 371.366 230.817 370.684 235.445C370.087 235.311 369.466 235.738 368.833 234.751L368.37 220.599C369.15 219.685 369.454 218.321 370.684 217.81L371.147 220.124V220.136Z" fill="#ADADAE"/>
<path d="M362.803 226.165L363.266 234.057C362.877 234.349 360.246 234.568 360.014 234.52C360.112 231.779 359.284 229.356 359.089 226.628C362.134 225.373 362.621 226.201 362.803 226.165Z" fill="#757376"/>
<path d="M360.015 221.062C359.881 221.671 359.272 221.853 359.089 222.45C358.236 225.288 359.077 226.42 359.089 226.628C359.284 229.356 360.112 231.779 360.015 234.52C359.089 234.313 358.163 234.057 357.226 233.825L356.763 221.768C357.774 221.878 359.125 221.427 360.015 221.074V221.062Z" fill="#C1C1C0"/>
<path d="M364.655 225.239C364.289 225.276 364.119 225.556 363.729 225.702C362.621 226.128 362.852 226.153 362.803 226.165C362.621 226.201 362.133 225.373 359.089 226.628C359.076 226.421 358.236 225.288 359.089 222.45C363.875 221.768 363.948 219.746 364.655 225.239Z" fill="#060506"/>
<path d="M386.005 183.94L385.542 210.612C386.188 212.061 395.566 211.075 394.591 208.054C395.42 210.685 396.357 208.566 400.389 208.054C400.486 210.32 408.293 208.054 408.744 208.749C405.955 214.327 412.069 214.546 399.926 216.641C400.754 219.259 400.34 222.073 400.389 224.764H399.926C399.853 223.619 399.828 220.319 399 219.661H398.538C400.498 217.25 398.745 213.06 398.769 209.918L385.774 212.232C384.142 215.07 380.549 215.532 377.65 216.872C375.531 217.846 373.631 215.849 373.704 221.975C373.595 217.432 372.596 216.117 371.147 220.124L370.684 217.81C386.724 211.306 365.13 218.991 360.015 221.062C359.126 221.415 357.774 221.865 356.763 221.756L357.226 233.813C358.151 234.045 359.089 234.3 360.015 234.507C360.246 234.556 362.865 234.337 363.267 234.045C364.436 233.168 363.352 227.2 363.729 225.69C364.119 225.544 364.29 225.263 364.655 225.227C364.886 226.981 364.351 233.752 364.655 234.276C364.74 234.422 367.493 235.348 367.907 234.276C368.735 232.108 367.468 224.788 366.056 222.219C366.713 220.599 367.858 221.196 368.37 220.599L368.833 234.751C369.466 235.738 370.087 235.311 370.684 235.445C373.96 236.188 376.81 234.629 377.869 236.371C379.684 227.005 373.156 224.046 383.667 223.144C381.852 219.223 383.094 222.389 381.584 222.913C376.335 224.728 376.591 222.681 377.175 218.735C378.296 218.37 383.594 216.202 384.13 217.578C384.702 226.871 382.193 224.265 381.816 225.008C381.28 226.031 381.974 238.21 381.353 225.933H380.427C380.732 228.869 380.013 233.813 380.427 236.139C380.5 236.541 381.316 236.31 381.353 236.371C381.523 236.651 380.817 236.907 380.89 237.296C370.465 236.444 360.076 234.751 349.577 234.507C349.017 234.166 350.345 233.472 350.272 233.35C347.884 228.832 350.832 233.229 350.734 228.247C350.673 225.3 348.189 223.522 348.883 222.913L353.986 222.219C352.744 238.514 357.579 236.712 356.3 226.396C356.239 225.885 354.936 225.653 354.912 225.471C353.523 217.079 358.699 221.756 365.581 217.578C366.214 216.531 366.348 195.522 366.043 192.989C365.642 189.591 362.767 187.496 364.192 184.402C364.351 184.402 364.497 184.402 364.655 184.402C364.485 187.459 365.288 187.459 365.118 184.402C365.422 184.402 365.739 184.402 366.043 184.402C365.983 190.017 367.408 189.846 367.432 190.2C367.749 193.793 366.056 214.838 366.969 216.178C368.857 217.225 371.195 214.4 372.304 214.095C376.03 213.048 381.085 216.093 384.605 212.475C384.19 203.913 385.153 195.023 384.605 186.497C384.58 186.083 382.875 187.045 384.605 183.94C385.067 183.915 385.542 183.964 385.993 183.94H386.005Z" fill="#333133"/>
<path d="M364.655 184.402C364.813 184.402 364.959 184.402 365.118 184.402C365.288 187.459 364.484 187.459 364.655 184.402Z" fill="#FDFDFE"/>
<path d="M370.683 217.81C369.453 218.321 369.149 219.686 368.369 220.599C367.858 221.196 366.713 220.599 366.055 222.219C367.48 224.789 368.735 232.108 367.907 234.276C367.505 235.348 364.74 234.422 364.655 234.276C364.35 233.752 364.886 226.993 364.655 225.227C363.948 219.746 363.863 221.756 359.089 222.438C359.272 221.829 359.881 221.646 360.014 221.05C365.13 218.991 386.723 211.306 370.683 217.798V217.81Z" fill="#FDFDFE"/>
<path d="M404.091 211.781C402.045 212.841 400.462 212.415 400.839 209.93C403.64 208.895 403.604 211.087 404.091 211.781Z" fill="#605F61"/>
<path d="M404.091 211.781C406.6 215.423 395.833 211.781 400.839 209.93C400.461 212.427 402.045 212.841 404.091 211.781Z" fill="#757376"/>
<path d="M401.083 213.632C406.527 212.402 410.521 215.106 400.157 214.558C399.584 214.387 401.022 213.645 401.083 213.632Z" fill="#ADADAE"/>
<path d="M363.73 225.702C363.352 227.212 364.436 233.18 363.267 234.057L362.804 226.165C362.804 226.165 362.622 226.116 363.73 225.702Z" fill="#C1C1C0"/>
<path d="M406.186 212.244H406.648C408.341 212.451 405.881 213.279 406.186 212.244Z" fill="#757376"/>
<path d="M410.595 234.057H409.67C409.84 231.499 409.329 228.917 410.132 226.396C407.599 227.992 407.514 227.042 406.418 227.09C405.395 227.139 405.334 227.59 405.029 227.553C404.53 227.504 404.591 227.553 404.567 227.553C401.132 227.042 401.595 223.498 402.484 222.913C402.849 222.682 410.839 221.853 411.07 222.219C411.326 226.189 410.327 230.074 410.607 234.045L410.595 234.057Z" fill="#060506"/>
<path d="M472.757 194.621C478.518 192.684 484.096 190.346 489.929 188.592C490.015 188.568 490.015 189.505 491.549 189.055C494.959 188.056 505.166 183.927 505.933 183.952C507.09 183.988 506.371 184.609 505.933 184.877C504.069 186.022 475.168 195.51 473.451 195.546C472.672 195.571 472.672 195.327 472.757 194.621Z" fill="#060506"/>
<path d="M541.898 175.597C542.02 185.511 541.301 178.617 540.047 180.931C539.438 182.04 540.948 195.948 539.353 201.112L538.89 180.7L508.04 189.055C509.623 186.375 539.913 180.907 541.216 179.774C542.397 178.763 539.024 179.287 536.576 179.774C528.002 181.467 509.66 188.154 508.271 187.666C507.431 187.362 507.09 185.45 508.271 184.415C512.047 181.114 528.269 183.258 526.138 175.134C526.857 176.912 526.394 178.97 526.832 179.311C528.221 177.241 528.781 178.715 530.547 178.386C533.933 177.753 538.183 175.987 541.91 175.597H541.898Z" fill="#333133"/>
<path d="M540.266 176.522C545.479 176.815 524.725 181.954 523.568 182.088C523.106 182.137 521.072 182.198 521.011 181.857C524.591 181.09 538.39 176.413 540.266 176.522Z" fill="#FDFDFE"/>
<path d="M514.288 183.477C515.396 183.477 514.763 183.806 514.751 183.939C514.605 185.45 513.509 184.743 514.288 183.477Z" fill="#ADADAE"/>
<path d="M396.674 236.371C396.674 236.371 396.296 237.309 395.98 237.297C394.701 237.248 388.697 236.931 388.319 236.834C388.015 236.749 387.54 237.029 386.931 236.14L386.468 226.859C399.244 221.391 395.821 222.109 396.674 236.371Z" fill="#C1C1C0"/>
<path d="M406.417 227.09C408.743 229.928 410.193 239.136 405.029 237.296C404.688 236.554 405.272 229.806 405.029 227.553C405.333 227.578 405.394 227.139 406.417 227.09Z" fill="#949494"/>
<path d="M409.657 234.057C409.608 234.861 409.9 237.893 409.425 238.234C409.06 238.502 405.419 238.174 405.017 237.309C410.181 239.148 408.731 229.94 406.405 227.103C407.501 227.054 407.586 228.004 410.12 226.408C409.316 228.93 409.827 231.512 409.657 234.069V234.057Z" fill="#ADADAE"/>
<path d="M516.833 176.522C518.063 176.498 518.916 176.242 518.685 177.448C518.271 177.533 517.528 177.229 517.296 177.679C517.942 178.861 518.672 177.533 519.854 177.911C522.594 178.788 517.357 178.776 517.065 178.836C513.107 179.738 506.98 183.014 505.933 181.15C503.448 183.099 490.624 185.194 489.93 187.642C489.857 187.886 489.966 188.275 489.93 188.568C484.096 190.321 478.518 192.66 472.757 194.596H472.294C472.392 192.672 472.221 190.723 472.294 188.799C480.966 186.692 511.645 176.608 516.833 176.498V176.522Z" fill="#FDFDFE"/>
<path d="M489.93 187.654C490.624 185.194 503.449 183.099 505.933 181.163C506.981 183.014 513.107 179.75 517.065 178.849C517.345 178.788 522.582 178.788 519.854 177.923C518.673 177.546 517.942 178.873 517.296 177.692C517.528 177.241 518.271 177.546 518.685 177.46C520.572 177.058 521.839 176.997 521.242 179.311C510.573 181.26 500.087 184.025 489.93 187.666V187.654Z" fill="#060506"/>
<path d="M477.628 187.654H478.091C479.784 187.861 477.324 188.689 477.628 187.654Z" fill="#545252"/>
<path d="M475.777 188.117H476.24C477.933 188.324 475.473 189.152 475.777 188.117Z" fill="#545252"/>
<path d="M516.833 176.06V176.522C511.644 176.632 480.965 186.704 472.294 188.823C472.22 190.748 472.391 192.709 472.294 194.621C471.904 202.318 473.158 210.502 473.219 196.703C474.035 194.669 500.817 189.493 505.932 185.34C507.528 185.45 507.016 190.638 507.089 192.294C507.187 194.475 506.468 205.204 507.784 206.215L530.522 202.038C531.935 201.015 531.606 186.266 531.679 183.708H532.605L532.142 201.806C531.752 202.391 521.29 204.912 519.61 205.29C517.734 205.704 507.869 206.849 507.552 207.372C508.1 214.546 506.821 238.112 507.552 241.243C507.698 241.851 508.855 241.778 508.941 242.4C503.679 242.278 498.259 243.617 492.937 242.4L492.474 231.731C491.5 232.254 491.78 246.309 490.855 241.011C490.258 237.613 491.135 222.974 490.855 217.116C490.562 216.093 483.352 217.177 482.962 218.041V241.474C481.391 241.498 473.036 242.923 472.294 241.243C472.062 239.282 472.695 226.153 472.062 225.702C471.867 225.556 467.41 225.629 467.19 225.933C466.74 226.567 466.935 239.915 468.116 241.243L467.422 241.937C457.471 241.182 447.448 241.291 437.498 240.548C437.522 239.83 438.216 240.378 438.423 239.623L447.241 239.854C444.355 232.34 449.043 220.258 443.989 217.81C446.9 217.907 466.63 215.642 467.19 214.327L467.422 195.534L438.655 204.815L437.96 204.12C441.882 201.733 466.18 195.985 467.422 195.071C468.53 194.268 468.421 190.796 467.422 190.431C465.461 189.725 438.667 202.281 434.014 200.174C450.468 196.825 434.575 199.882 430.763 198.786C430.434 198.689 430.239 198.104 430.068 197.86H430.994C444.172 199.31 455.754 192.489 468.116 189.274C467.373 170.689 469.31 151.665 467.653 133.128C467.653 133.031 468.311 132.531 468.579 132.203C461.941 129.974 471.697 130.619 465.79 129.413C453.732 114.299 486.458 115.505 472.281 128.025C475.874 129.937 472.635 129.219 472.281 129.876C472.135 130.144 471.417 135.223 471.356 135.905C470.381 145.794 472.427 174.281 472.281 187.411C487.359 184.451 501.694 178.471 516.821 176.047L516.833 176.06Z" fill="#060506"/>
<path d="M469.285 136.161L470.442 140.107C469.468 150.581 471.758 196.557 470.442 201.818C470.369 202.111 469.565 203.913 469.285 203.901V136.161Z" fill="#FDFDFE"/>
<path d="M468.348 207.141C468.482 207.056 471.259 207.725 471.369 207.835C471.819 208.322 472.136 220.672 471.6 221.062C471.442 221.183 468.056 221.354 467.654 220.367C467.411 219.758 467.8 207.506 468.348 207.141Z" fill="#C1C1C0"/>
<path d="M468.348 221.524C469.457 221.037 473.841 221.305 472.757 223.607C471.418 226.445 464.305 223.315 468.348 221.524Z" fill="#FDFDFE"/>
<path d="M470.212 118.988C475.631 118.72 472.854 121.156 465.803 121.546C466.631 120.364 468.957 119.049 470.212 118.988Z" fill="#FDFDFE"/>
<path d="M470.211 121.302C477.543 120.437 473.378 122.057 464.414 123.86C463.902 122.825 469.346 121.412 470.211 121.302Z" fill="#FDFDFE"/>
<path d="M471.6 205.29C471.734 205.314 473.159 206.227 473.22 206.447L472.526 212.707L472.294 206.909C464.39 206.836 470.139 204.973 471.6 205.29Z" fill="#C1C1C0"/>
<path d="M466.96 128.269C469.067 127.842 467.946 129.986 466.497 129.194C466.046 128.951 466.838 128.293 466.96 128.269Z" fill="#C1C1C0"/>
<path d="M466.034 126.88C467.642 126.673 467.155 128.634 465.571 127.806C465.108 127.562 465.937 126.892 466.034 126.88Z" fill="#FDFDFE"/>
<path d="M471.137 203.889C472.221 204.449 470.309 205.387 469.98 204.583C469.956 204.522 471.076 203.852 471.137 203.889Z" fill="#E3E4E5"/>
<path d="M503.618 187.654C504.3 187.654 504.958 187.496 505.238 187.886C504.519 191.491 507.089 207.774 504.543 209.455L472.756 213.401C479.211 211.927 474.912 210.295 477.165 205.74C502.704 203.511 496.651 202.172 473.45 205.277L474.376 196.46C478.736 195.899 502.083 187.642 503.606 187.642L503.618 187.654Z" fill="#FDFDFE"/>
<path d="M501.755 215.496C502.474 215.496 505.385 215.289 505.701 215.727V241.705L493.875 241.937C491.72 231.572 494.484 229.721 494.107 229.173C493.717 228.6 492.195 229.282 491.793 228.71C491.464 228.235 492.048 218.845 491.793 217.115C492.024 216.58 500.732 215.471 501.767 215.496H501.755Z" fill="#E3E4E5"/>
<path d="M464.877 223.851C464.877 222.974 463.878 223.656 463.951 224.776C464.049 226.433 464.439 228.345 462.563 229.648C463.525 241.401 460.687 244.677 459.774 238.697C460.59 238.051 460.456 229.879 460.005 229.879C459.567 230.634 459.81 231.743 459.774 232.668C457.338 234.593 460.407 238.685 458.385 240.329C458.593 224.192 457.716 224.204 457.923 240.329H456.997V220.611L457.46 219.685C458.434 218.918 459.36 219.369 459.774 219.222L460.005 223.863C461.357 223.838 461.467 220.026 462.088 218.76C463.927 218.406 463.415 218.76 463.476 218.76L463.245 220.611L463.939 218.76C466.156 218.406 469.042 215.13 467.191 220.842C467.142 220.988 465.766 222.645 464.877 222.231C466.071 223.57 464.901 223.777 464.877 223.851Z" fill="#757376"/>
<path d="M481.574 224.313C480.1 223.899 480.636 230.939 480.648 235.908C480.039 235.616 477.482 236.285 477.396 236.139C477.238 235.859 476.605 230.781 476.471 229.879C476.312 228.844 476.057 227.626 476.008 226.627C478.699 224.727 476.3 227.906 478.322 227.322V218.273C481.939 219.344 479.467 221.037 480.404 221.062C481.026 221.062 480.1 218.09 481.099 217.81C482.024 219.734 481.403 222.194 481.562 224.301L481.574 224.313Z" fill="#757376"/>
<path d="M480.648 235.908C480.648 236.164 481.756 239.282 480.879 241.011L473.219 240.78L476.933 239.854L476.471 229.879C476.605 230.793 477.25 235.871 477.396 236.139C477.481 236.286 480.039 235.616 480.648 235.908Z" fill="#E3E4E5"/>
<path d="M478.323 218.273V227.322C476.301 227.906 478.688 224.715 476.009 226.627C475.655 220.051 475.254 217.371 478.323 218.273Z" fill="#C1C1C0"/>
<path d="M462.087 218.735C461.466 220.002 461.357 223.826 460.005 223.838L459.773 219.198C462.319 218.273 461.564 218.833 462.087 218.735Z" fill="#C1C1C0"/>
<path d="M481.574 224.313C481.404 222.206 482.025 219.746 481.111 217.822L482.037 217.59C482.816 223.814 482 229.83 481.574 224.313Z" fill="#C1C1C0"/>
<path d="M459.774 238.697C459.579 237.455 459.713 234.276 459.774 232.668C459.81 231.755 459.567 230.634 460.005 229.879C460.456 229.879 460.59 238.051 459.774 238.697Z" fill="#ADADAE"/>
<path d="M463.244 235.445C463.622 235.445 463.451 236.736 463.476 237.528C463.646 242.887 462.392 237.759 463.244 235.445Z" fill="#949494"/>
<path d="M463.951 218.735L463.257 220.587L463.488 218.735C463.634 218.711 463.805 218.76 463.951 218.735Z" fill="#949494"/>
<path d="M464.877 223.851C464.706 224.289 464.475 224.727 463.951 224.776C463.878 223.656 464.877 222.974 464.877 223.851Z" fill="#C1C1C0"/>
<path d="M465.57 238.697C466.763 238.064 466.91 239.525 466.033 239.623C465.984 239.623 465.095 238.941 465.57 238.697Z" fill="#D3D1D8"/>
<path d="M452.113 220.136C452.332 220.099 456.351 220.209 456.521 220.83C456.168 223.132 457.277 240.207 455.827 240.548C453.976 240.987 455.023 238.977 454.439 238.697C454.122 238.539 455.206 241.498 448.642 239.391C449.129 232.571 448.386 227.322 448.179 220.83C449.506 220.757 450.846 220.343 452.125 220.136H452.113Z" fill="#ADADAE"/>
<path d="M451.649 230.342C454.146 229.319 451.954 237.917 451.186 239.16C450.748 237.966 450.772 230.707 451.649 230.342Z" fill="#C1C1C0"/>
<path d="M452.112 222.913C452.087 223.972 453.269 228.929 452.575 229.404C450.492 230.817 451.966 223.838 452.112 222.913Z" fill="#FDFDFE"/>
<path d="M398.525 219.673H398.988C395.322 224.557 398.111 230.756 397.6 236.371C397.295 236.371 396.979 236.371 396.674 236.371C395.822 222.109 399.244 221.39 386.468 226.859L386.931 236.139C387.552 237.029 388.015 236.761 388.319 236.834V237.759C385.847 237.577 383.362 237.504 380.89 237.296C380.817 236.907 381.536 236.651 381.353 236.371C388.38 240.427 384.41 224.813 386.224 214.095C388.1 214.412 403.519 212.061 395.505 214.095C394.068 214.461 388.234 214.57 387.613 215.021C385.262 216.738 385.701 225.531 398.513 219.661L398.525 219.673Z" fill="#060506"/>
<path d="M387.162 221.524C387.942 221.22 403.507 221.451 387.162 224.776C386.176 224.423 386.151 221.939 387.162 221.524Z" fill="#FDFDFE"/>
<path d="M384.604 183.94C382.875 187.033 384.58 186.071 384.604 186.497C385.152 195.023 384.19 203.913 384.604 212.475C381.084 216.105 376.03 213.048 372.303 214.095C371.195 214.412 368.856 217.225 366.969 216.178C366.055 214.838 367.748 193.78 367.431 190.2C367.407 189.847 365.982 190.017 366.043 184.402C366.104 184.402 366.006 184.013 366.737 183.477C372.717 183.343 378.624 184.22 384.604 183.94Z" fill="#FDFDFE"/>
<path d="M220.125 201.575C221.379 202.671 218.493 204.035 218.042 203.195C217.567 202.33 219.382 202.817 220.125 201.575Z" fill="#545252"/>
<path d="M215.021 199.724L215.728 199.955L215.496 200.649L215.253 200.418L215.021 199.724Z" fill="#949494"/>
<path d="M364.192 184.402C362.779 187.496 365.641 189.591 366.043 192.989C366.347 195.522 366.213 216.531 365.58 217.578C358.687 221.744 353.523 217.067 354.911 225.47C354.948 225.653 356.239 225.885 356.3 226.396C357.566 236.712 352.731 238.527 353.986 222.219L348.883 222.913H347.957C347.701 216.336 346.727 193.33 347.494 188.811C347.567 188.397 350.332 185.523 348.883 184.634L364.192 184.402Z" fill="#FDFDFE"/>
<path d="M357.006 217.81C357.639 217.651 358.504 217.53 358.626 218.504C358.686 219.04 352.828 218.833 357.006 217.81Z" fill="#43423F"/>
<path d="M106.225 208.992C106.444 208.919 106.846 209.029 107.151 208.992C107.114 215.642 106.371 224.375 108.076 224.533C106.371 225.251 106.785 227.444 106.225 231.256C105.263 228.357 104.897 232.839 104.142 233.107C103.29 233.399 103.472 232.12 103.217 232.181C102.656 232.303 103.68 235.458 92.7792 234.97C92.4016 233.217 90.8549 232.437 90.4651 224.764C90.3799 223.108 89.8927 219.673 90.0023 219.43C90.4895 218.346 94.0823 218.139 92.7913 215.021C94.0214 214.059 96.7496 208.456 104.849 208.529C105.019 208.529 103.96 209.711 106.237 208.992H106.225Z" fill="#757376"/>
<path d="M88.5894 218.273C85.849 220.745 83.328 220.611 82.5607 224.533C85.9221 224.106 87.5907 225.665 89.0522 225.69C88.7355 226.311 89.1252 228.442 87.6637 228.71C90.7572 230.829 85.9343 232.693 88.5894 234.739C86.6042 236.517 85.9952 232.644 83.2549 236.359C81.8665 233.424 76.0935 236.7 70.2597 234.97L70.0283 220.818C75.7403 218.626 73.9744 217.956 74.2058 217.798C74.6077 217.53 74.9487 215.362 81.8665 215.484C83.742 217.652 86.0439 217.481 88.5894 218.273Z" fill="#757376"/>
<path d="M66.7891 213.17C66.8256 220.148 67.8974 220.684 74.2184 217.81C73.987 217.968 75.7651 218.638 70.0409 220.83L70.2723 234.983C76.1061 236.724 81.879 233.448 83.2675 236.371C86.0078 232.644 86.6167 236.529 88.6019 234.751C85.9347 232.705 90.7698 230.842 87.6763 228.722C89.15 228.454 88.7481 226.323 89.0648 225.702C89.1013 225.629 90.1974 224.898 90.4532 224.776C90.8429 232.449 92.4018 233.229 92.7672 234.983C92.7916 235.129 91.5615 238.113 92.9986 235.908C94.521 238.478 95.4953 236.261 95.7876 236.371C96.1287 236.505 95.8973 238.039 96.7133 238.222C98.9055 238.721 102.852 237.26 102.511 239.148C91.8051 238.648 76.3254 239.586 65.6199 240.999C64.268 234.361 67.9339 216.604 61.6738 218.723C63.586 216.714 64.2923 220.721 64.9257 215.009C65.0109 214.278 64.9378 213.425 64.9257 212.695C65.8391 212.756 65.0596 214.302 65.6199 214.546C65.7173 214.595 66.0218 213.133 66.7769 213.157L66.7891 213.17Z" fill="#333133"/>
<path d="M2.29999 209.93C2.51922 207.933 1.99551 204.242 2.29999 203.207C2.40961 202.83 5.27171 201.392 6.47745 197.41C6.76975 198.055 7.03769 198.53 7.17166 199.261C10.9837 198.372 7.07423 203.853 8.79149 205.521L2.29999 209.93Z" fill="#605F61"/>
<path d="M90.4532 224.776C90.1974 224.898 89.1013 225.629 89.0647 225.702C87.6032 225.678 85.9225 224.119 82.5732 224.545C83.3405 220.623 85.8738 220.757 88.6019 218.285C89.9295 217.091 91.3788 216.129 92.7794 215.033C94.0704 218.151 90.4775 218.358 89.9904 219.442C89.8807 219.685 90.3679 223.12 90.4532 224.776Z" fill="#605F61"/>
<path d="M42.6617 240.548C42.4059 240.548 40.7495 240.914 37.5586 241.011C41.1027 238.186 36.3041 235.665 38.7156 234.52C42.4303 232.766 44.6712 237.881 42.6617 240.548Z" fill="#333133"/>
<path d="M106.225 231.268C105.884 233.619 105.531 235.007 106.225 237.065C106.066 237.382 103.984 236.225 102.973 239.148C102.815 239.148 102.668 239.148 102.51 239.148C102.851 237.26 98.893 238.722 96.7129 238.222C95.8969 238.027 96.1283 236.493 95.7873 236.371C95.495 236.261 94.5206 238.478 92.9982 235.908C91.5611 238.113 92.7912 235.117 92.7668 234.983C103.667 235.482 102.644 232.315 103.204 232.194C103.472 232.133 103.277 233.424 104.13 233.119C104.897 232.851 105.25 228.357 106.213 231.268H106.225Z" fill="#333133"/>
<path d="M63.5368 128.269C61.9292 148.571 64.2919 169.276 63.5368 189.749C64.3894 193.147 70.2475 191.113 65.8509 194.852C67.1297 198.031 65.7047 204.388 66.3137 206.447C66.5694 207.311 68.0188 207.019 68.1649 207.372C68.2867 207.665 66.7399 206.666 66.7765 213.17C66.0214 213.145 65.7169 214.607 65.6195 214.558C65.0592 214.302 65.8265 212.768 64.9253 212.707C64.9009 211.55 65.3637 207.64 64.231 207.141C58.7626 204.705 59.7004 212.536 59.8222 215.727C61.2106 217.505 60.9548 214.704 64.9253 215.033C64.3041 220.745 63.5977 216.738 61.6734 218.748C60.2363 220.246 60.3824 238.137 61.2106 241.023C60.8209 240.975 60.76 241.133 60.7478 241.486C57.9466 239.988 48.1058 240.427 42.6496 240.561C44.6591 237.893 42.4182 232.778 38.7035 234.532C36.2799 235.677 41.0785 238.198 37.5465 241.023C25.3917 241.389 13.2247 241.584 1.13082 242.875L0.899414 219.442C2.40963 218.127 1.94682 213.084 2.28784 209.93L8.77933 205.521C7.04989 203.84 10.9716 198.372 7.1595 199.261C7.01335 198.53 6.74541 198.055 6.46529 197.41C5.01597 194.146 6.46529 193.244 6.46529 193.001C6.46529 192.916 5.53967 191.698 5.53967 191.612C5.53967 191.308 7.42744 189.006 6.00248 186.047C10.0338 182.429 14.26 176.352 19.6919 175.146C21.945 174.647 31.8467 175.292 33.1498 176.535C33.8197 177.18 32.3947 178.532 32.4556 178.617C32.6139 178.849 37.4612 179.592 35.2446 181.638C33.2594 182.015 33.4299 182.807 31.53 183.258C34.5991 183.282 32.1999 184.938 33.1498 185.34C33.4178 185.462 37.8997 182.953 35.7074 181.626C37.985 181.626 37.7048 183.221 38.7279 183.477C39.3977 183.647 53.3794 182.99 49.1654 186.034C58.044 187.009 55.9979 192.014 58.9087 192.526C59.8953 198.92 59.7491 191.807 59.8344 185.34H60.76C60.967 194.779 61.783 201.478 63.074 193.927C63.5977 190.87 62.1849 136.38 61.6856 131.983C61.235 127.989 59.9562 130.705 60.2972 129.426C62.0266 127.648 63.3176 128.415 63.549 128.269H63.5368Z" fill="#605F61"/>
<path d="M60.0653 199.249C65.4119 196.862 64.194 205.448 63.7799 205.74C59.3467 208.895 58.6403 199.882 60.0653 199.249Z" fill="#FDFDFE"/>
<path d="M65.6316 199.249C66.6303 202.817 65.1444 210.941 64.9374 203.195C64.9008 201.721 64.6085 199.967 65.6316 199.249Z" fill="#C1C1C0"/>
<path d="M35.2439 181.626C35.3901 181.601 35.5606 181.626 35.7067 181.626C37.9112 182.953 33.4292 185.45 33.1491 185.34C32.187 184.926 34.5984 183.27 31.5293 183.258C33.4171 182.807 33.2587 182.015 35.2439 181.638V181.626Z" fill="#333133"/>
<path d="M41.0416 227.553C46.2543 227.76 43.7211 233.363 43.3557 233.582C42.9903 233.801 35.0251 233.704 34.7694 233.351C33.795 231.974 33.1495 227.237 41.0295 227.553H41.0416Z" fill="#FDFDFE"/>
<path d="M30.3723 224.314C31.6998 224.277 32.9908 237.126 28.0583 233.594C27.1326 232.936 29.8242 224.326 30.3723 224.314Z" fill="#E3E4E5"/>
<path d="M29.4349 183.014C32.3579 183.026 29.4106 187.557 28.0465 187.192C26.0613 186.656 27.7299 183.002 29.4349 183.014Z" fill="#333133"/>
<path d="M29.8979 179.299C32.285 178.398 32.7113 181.845 30.8235 182.551C29.1671 183.172 30.4581 180.907 28.2659 181.394C28.2172 180.822 29.6178 179.409 29.8857 179.312L29.8979 179.299Z" fill="#43423F"/>
<path d="M20.1546 229.417C22.3469 229.904 18.8149 232.9 18.3034 232.668C17.7675 232.425 18.7662 229.112 20.1546 229.417Z" fill="#ADADAE"/>
<path d="M58.6648 229.879C60.8693 229.295 60.0289 235.068 57.5078 232.437C59.3834 231.865 58.5309 229.916 58.6648 229.879Z" fill="#FDFDFE"/>
<path d="M46.1445 194.621C47.9836 195.936 43.5991 197.714 43.5869 196.241C43.5869 195.169 45.0362 195.753 46.1445 194.621Z" fill="#43423F"/>
<path d="M19.6915 203.889C20.6536 203.828 20.4953 204.169 19.6915 204.815C17.4992 206.581 17.5845 204.778 19.6915 203.889Z" fill="#333133"/>
<path d="M25.7329 191.369C27.4746 191.125 25.5868 193.293 25.0387 192.063C25.0144 192.014 25.6842 191.369 25.7329 191.369Z" fill="#333133"/>
<path d="M236.14 228.479H236.603C236.737 230.586 236.737 235.579 237.991 229.636C238.284 228.284 236.786 222.231 237.991 219.198C238.344 219.174 238.503 219.125 238.454 218.736L239.148 232.194C241.048 223.412 239.891 234.52 241.706 231.499C241.389 222.012 242.717 238.283 243.094 228.71C244.531 230.22 244.337 227.31 245.883 225.227C245.262 227.054 243.399 231.621 243.801 232.181C244.946 233.826 245.494 230.306 245.652 230.33C246.407 234.203 248.222 230.671 248.441 230.793C248.977 231.11 248.368 232.327 248.904 232.644C249.768 233.168 249.476 231.39 249.829 231.256C249.902 231.231 250.706 232.218 250.755 232.181C250.962 232.035 251.839 226.396 251.449 230.561C257.1 231.158 247.15 234.69 244.958 235.433C245.396 234.642 245.555 234.727 244.726 234.045C240.585 235.019 236.152 234.617 231.963 234.97L233.351 232.888L231.268 234.045C231.329 232.766 230.404 232.62 230.111 231.731C233.704 232.011 231.073 222.511 232.194 215.959C234.264 220.087 231.049 236.736 233.582 229.417C234.727 235.226 234.764 232.888 235.202 228.722C235.239 228.333 236.128 228.54 236.128 228.491L236.14 228.479Z" fill="#545252"/>
<path d="M238.454 218.735C238.502 219.125 238.344 219.174 237.991 219.198C234.763 219.466 236.188 222.097 236.602 228.479H236.14C236.201 226.104 234.727 221.098 234.751 218.273L235.214 217.347C235.677 216.702 236.505 218.687 238.466 218.735H238.454Z" fill="#949494"/>
<path d="M240.78 221.987C240.61 221.549 240.366 221.11 239.854 221.062C240.488 217.81 240.731 220.976 241.012 221.062C241.158 221.11 241.292 219.454 242.169 220.367C242.4 220.599 241.901 225.933 242.169 226.859H241.243C241.267 225.081 241.426 223.717 240.78 221.987Z" fill="#ADADAE"/>
<path d="M240.78 221.987C241.621 223.522 238.941 233.18 239.855 221.987C240.135 222.012 240.756 221.951 240.78 221.987Z" fill="#858381"/>
<path d="M247.041 225.239C249.184 225.653 247.284 229.453 247.041 229.417C246.139 229.258 248.015 227.346 247.041 225.239Z" fill="#757376"/>
<path d="M233.582 214.57C233.74 214.461 234.605 214.497 234.739 214.802C235.092 215.569 232.084 215.593 233.582 214.57Z" fill="#1B1B1C"/>
<path d="M232.193 213.632C232.486 213.596 232.802 213.584 232.888 213.864C233.277 215.191 230.086 213.925 232.193 213.632Z" fill="#43423F"/>
<path d="M240.78 221.987C240.78 221.987 240.135 222.012 239.854 221.987C239.879 221.683 239.794 221.342 239.854 221.062C240.366 221.11 240.622 221.549 240.78 221.987Z" fill="#43423F"/>
<path d="M235.215 217.347L234.752 218.273C234.752 217.907 234.508 217.81 234.289 217.578L235.215 217.347Z" fill="#333133"/>
<path d="M245.883 225.239C245.98 225.105 245.639 223.753 246.808 224.545C246.285 225.263 245.895 225.19 245.883 225.239Z" fill="#6E6F69"/>
<path d="M230.111 231.731C230.404 232.632 231.329 232.778 231.268 234.045L233.351 232.888L231.963 234.97C225.678 235.506 219.162 237.613 212.939 236.821C212.939 236.773 212.062 236.98 212.013 236.59C211.806 235.031 212.5 231.865 212.476 231.256C215.935 237.601 213.852 225.239 215.959 230.793C218.432 222.925 214.035 197.726 218.98 201.331C218.505 202.099 217.616 202.026 217.591 202.257C216.702 208.566 218.553 223.704 217.128 231.95C220.137 232.936 219.467 220.112 221.306 227.31C221.428 227.76 220.867 234.227 223.157 231.487C224.631 229.733 222.889 208.541 223.157 207.36C223.778 204.62 228.76 205.095 228.26 207.823C227.785 210.405 224.375 208.286 224.083 209.211C224.399 217.128 223.194 225.592 225.24 232.644L226.165 228.929C227.566 232.132 225.215 233.484 228.723 231.95C227.164 225.848 229.71 218.614 228.26 212C234.727 210.125 229.356 212.573 229.186 212.926C228.443 214.509 229.369 229.453 230.111 231.718V231.731Z" fill="#333133"/>
<path d="M222.451 234.52C225.423 235.604 213.268 237.321 212.476 236.14C210.99 233.959 218.59 236.444 222.451 234.52Z" fill="#E3E4E5"/>
<path d="M215.497 233.594L216.191 233.826L215.96 234.52L215.728 234.288L215.497 233.594Z" fill="#ADADAE"/>
<path d="M225.239 206.215C227.444 205.375 228.564 208.603 226.165 208.53C225.434 208.505 223.607 206.837 225.239 206.215Z" fill="#FDFDFE"/>
<path d="M220.125 229.417C220.831 229.161 221.148 230.099 220.588 230.342C219.906 230.647 219.565 229.612 220.125 229.417Z" fill="#ADADAE"/>
<path d="M219.662 233.594L219.893 234.288L219.199 234.52L218.968 234.288L219.662 233.594Z" fill="#949494"/>
<path d="M237.991 219.21C236.786 222.243 238.284 228.296 237.991 229.648C236.737 235.579 236.737 230.586 236.603 228.491C236.189 222.109 234.764 219.478 237.991 219.21Z" fill="#FDFDFE"/>
<path d="M243.326 221.987C246.919 220.477 243.984 228.686 242.632 226.396C242.522 226.201 242.327 222.414 243.326 221.987Z" fill="#949494"/>
<path d="M243.789 222.45C244.374 221.951 244.447 225.544 243.326 225.239C243.022 225.154 243.631 222.584 243.789 222.45Z" fill="#FDFDFE"/>
</svg>
