<svg width="250" height="389" viewBox="0 0 250 389" fill="none" xmlns="http://www.w3.org/2000/svg">
<g clip-path="url(#clip0_65_7113)">
<path d="M181.829 302.168C180.768 303.775 179.108 304.769 178.345 306.591C176.752 306.955 178.66 304.818 177.084 305.332C166.382 308.761 134.11 313.715 122.097 314.792C116.937 315.256 72.3039 317.79 71.8394 314.477C72.1712 313.765 74.295 312.423 74.3614 312.273C78.8745 313.301 79.9032 307.022 76.5681 305.332C108.458 309.126 141.643 306.823 173.284 301.538C175.674 302.698 168.705 303.543 166.332 304.686C154.485 305.431 142.721 306.624 130.941 307.834V309.093C141.212 306.574 156.194 307.602 165.702 305.945C174.379 304.421 183.356 298.241 181.813 302.151L181.829 302.168Z" fill="#FDFDFE"/>
<path d="M128.104 361.494C120.969 361.378 113.486 360.401 106.302 360.235C99.5155 360.069 87.9176 359.556 87.6521 361.494C85.1135 359.937 80.0528 358.562 78.4932 354.553C89.079 357.352 121.567 351.438 127.789 353.294C128.967 353.641 128.569 355.646 129.05 355.812C141.71 354.42 144.232 356.623 129.68 356.441V357.7C145.36 359.606 160.708 355.381 175.823 352.018C176.736 351.04 174.313 351.653 174.247 351.074C172.969 341.282 178.246 350.262 177.731 345.706C186.293 351.836 175.74 354.818 169.518 356.441C160.426 358.81 140.183 358.744 147.401 360.865L128.121 361.494H128.104Z" fill="#FDFDFE"/>
<path d="M166.664 361.494C165.934 358.081 163.13 362.604 162.865 362.753C158.916 362.538 164.225 361.262 161.288 360.865C158.351 360.467 155.315 363.333 154.967 363.383C152.378 363.83 131.372 365.934 130.311 365.272C129.58 364.824 130.394 363.018 129.68 362.753C127.855 362.058 96.0475 363.101 90.8044 362.439C90.4062 364.327 114.78 370.109 116.406 366.547C116.887 366.564 116.556 367.79 117.037 367.806C127.988 368.171 153.838 367.806 162.865 362.753C163.279 362.77 163.711 362.753 164.126 362.753C162.931 363.416 161.288 365.222 159.065 365.901C144.049 370.556 107.065 370.755 92.6959 364.642C90.8542 363.863 89.3111 362.521 87.6353 361.494C87.9007 359.556 99.4987 360.069 106.285 360.235C113.469 360.401 120.953 361.395 128.087 361.494C134.259 361.594 140.465 362.521 146.737 362.124C165.918 360.914 177.134 353.84 166.648 361.494H166.664Z" fill="#C1C1C0"/>
<path d="M166.664 361.494C164.657 362.952 164.259 362.687 164.142 362.753C163.728 362.753 163.296 362.77 162.881 362.753C163.147 362.604 165.934 358.081 166.681 361.494H166.664Z" fill="#74726D"/>
<path d="M120.521 385.483C116.804 385.019 112.806 385.251 109.139 384.224C104.792 381.54 100.312 372.892 99.0176 371.6C101.788 368.452 120.239 380.331 120.505 385.483H120.521Z" fill="#151215"/>
<path d="M159.065 365.918C152.909 372.462 149.508 382.004 140.731 385.798L147.052 385.483C139.022 390.271 120.322 387.422 110.383 387.372C109.454 383.711 112.789 386.477 122.711 386.742V385.483C121.981 385.433 121.218 385.566 120.505 385.483C120.223 380.331 101.772 368.452 99.0177 371.6C95.9813 368.535 96.7446 370.324 96.4957 370.341C95.8652 370.391 95.2181 370.308 94.6042 370.341L91.4517 365.918L92.7127 364.658C107.082 370.788 144.066 370.573 159.082 365.918H159.065Z" fill="#151215"/>
<path d="M120.836 376.636C125.349 376.222 133.38 375.825 128.734 382.004C124.619 387.471 118.082 377.713 120.836 376.636Z" fill="#ADACAE"/>
<path d="M99.0176 371.6C100.295 372.892 104.792 381.54 109.139 384.224C103.663 382.683 100.494 375.228 96.4956 370.341C96.7445 370.324 95.9812 368.535 99.0176 371.6Z" fill="#848389"/>
<path d="M184.352 297.744C185.115 303.327 182.958 304.636 179.291 308.165C192.548 324.02 176.902 320.01 179.921 327.731C180.203 328.443 185.845 332.668 184.352 337.19C184.036 338.151 180.237 339.825 179.921 340.984C178.976 344.43 184.418 346.866 183.721 350.444C183.24 352.896 166.664 363.283 163.81 365.901C155.332 373.671 152.594 382.17 147.052 385.467L140.731 385.781C149.508 381.988 152.909 372.445 159.065 365.901C161.288 365.205 162.931 363.399 164.126 362.753C164.242 362.687 164.64 362.952 166.648 361.494C177.134 353.857 165.918 360.914 146.737 362.124C140.465 362.521 134.26 361.594 128.087 361.494L147.367 360.865C140.15 358.744 160.392 358.81 169.485 356.441C175.724 354.818 186.276 351.836 177.698 345.706C178.229 350.262 172.936 341.282 174.214 351.074C174.297 351.653 176.703 351.057 175.79 352.018C160.674 355.364 145.327 359.606 129.647 357.7V356.441C144.198 356.623 141.676 354.42 129.016 355.812C128.535 355.646 128.933 353.641 127.755 353.294C121.533 351.438 89.0291 357.352 78.4598 354.553C80.0361 358.562 85.0801 359.937 87.6187 361.494C89.2945 362.521 90.8376 363.863 92.6793 364.642L91.4183 365.901C60.1585 349.152 75.0252 344.049 75.6225 341.597C77.0992 335.567 70.2964 336.047 71.1924 330.232C71.3749 329.023 74.909 324.881 74.992 324.55C76.1535 318.967 63.9084 316.084 74.3615 308.463C75.2907 307.784 74.8925 306.989 75.9378 307.204C76.9001 307.834 74.8759 311.296 74.3615 312.257C74.2785 312.406 72.1713 313.765 71.8395 314.46C72.2875 317.774 116.937 315.239 122.097 314.775C134.127 313.698 166.382 308.745 177.084 305.315C178.66 304.818 176.752 306.939 178.345 306.574C179.092 304.752 180.768 303.758 181.83 302.151C183.837 299.103 182.394 298.838 182.46 298.672C182.991 297.479 184.318 297.827 184.352 297.728V297.744Z" fill="#39393C"/>
<path d="M165.702 338.151C166.565 338.218 166.764 338.483 167.278 339.096C160.193 343.933 158.036 342.276 156.842 342.575C142.406 346.087 88.2992 352.432 76.5684 350.146C72.0056 349.251 72.7522 346.534 75.3074 345.722C77.2653 345.109 102.535 345.524 116.39 344.463C127.291 343.618 140.399 342.575 151.151 341.316C155.348 340.819 164.955 338.102 165.685 338.168L165.702 338.151Z" fill="#FDFDFE"/>
<path d="M116.406 338.781C128.436 338.83 133.131 341.432 127.158 342.575C124.039 343.171 85.1134 345.391 82.9067 345.093C82.7076 345.06 79.9532 342.508 79.7541 342.575C79.4057 342.674 75.3572 348.655 78.4931 341.316C82.16 343.254 82.9398 340.156 83.5538 340.056C85.1798 339.775 112.922 338.781 116.423 338.797L116.406 338.781Z" fill="#FDFDFE"/>
<path d="M150.222 320.474C152.412 319.48 152.014 319.265 152.113 319.215C152.229 319.165 152.86 318.022 154.005 317.326C155.614 316.68 165.769 313.417 162.533 317.326C159.314 321.22 145.543 325.908 150.205 320.474H150.222Z" fill="#74726D"/>
<path d="M181.515 334.357C184.717 335.782 178.561 338.814 177.085 339.41C164.109 344.695 166.134 334.854 172.024 338.781C171.244 334.589 181.183 338.052 181.498 334.357H181.515Z" fill="#DCDEDF"/>
<path d="M175.193 330.564C177.93 329.917 178.179 338.3 174.877 335.302C174.695 335.136 173.55 330.961 175.193 330.564Z" fill="#C1C1C0"/>
<path d="M152.113 319.215C152.013 319.265 152.395 319.48 150.221 320.474C138.341 325.892 135.056 323.523 152.113 319.215Z" fill="#ADACAE"/>
<path d="M151.167 333.098C151.449 332.899 151.084 334.291 155.912 334.043C154.187 335.732 147.168 335.915 151.167 333.098Z" fill="#949494"/>
<path d="M149.906 338.151C150.636 338.251 153.275 337.87 153.391 338.466C153.424 338.681 149.243 340.206 149.906 338.151Z" fill="#39393C"/>
<path d="M154.021 317.31C153.689 317.426 152.743 317.36 152.76 316.995C152.86 315.239 155.913 316.647 154.021 317.31Z" fill="#74726D"/>
<path d="M148.645 360.235H149.276C151.582 360.517 148.231 361.643 148.645 360.235Z" fill="#858482"/>
<path d="M175.823 309.739C177.648 315.322 183.091 317.625 183.091 318.254C172.455 330.547 122.745 334.54 105.024 334.987C100.577 335.103 66.9616 337.754 74.677 329.304C74.8761 329.089 76.1703 329.669 76.8837 328.99C77.7133 328.194 77.4147 323.489 79.0905 322.992C88.9131 324.285 99.0012 323.688 108.791 322.992C107.779 319.745 128.187 318.055 128.386 320.474C140.946 318.784 162.715 316.929 136.599 322.363L139.121 323.622L129 324.881C128.386 325.395 129.382 326.09 130.261 326.14C132.036 326.256 163.96 322.263 165.652 321.717C168.29 320.872 169.983 317.426 171.974 317.293C172.223 317.293 173.6 319.182 173.865 319.182C177.35 319.248 173.517 312.373 175.757 309.722L175.823 309.739Z" fill="#FDFDFE"/>
<path d="M172.654 322.992C180.784 321.899 157.986 328.178 149.906 329.304C143.8 330.149 137.395 330.05 131.256 330.249L172.654 322.992Z" fill="#514E50"/>
<path d="M75.9546 332.469L83.8525 333.413L75.9546 333.728V332.469Z" fill="#514E50"/>
<path d="M129.05 329.934V331.193C122.944 331.69 123.856 331.143 129.05 329.934Z" fill="#514E50"/>
<path d="M120.206 331.21C126.063 331.243 124.935 331.392 120.206 332.469V331.21Z" fill="#606261"/>
<path d="M118.929 331.21C120.803 332.104 116.904 333.198 116.722 332.154C116.705 332.038 118.829 331.16 118.929 331.21Z" fill="#514E50"/>
<path d="M180.884 317.956C181.282 317.906 181.714 317.89 181.83 318.271C182.361 320.077 178.014 318.354 180.884 317.956Z" fill="#858482"/>
<path d="M162.865 362.753C153.839 367.79 127.988 368.154 117.037 367.806C116.556 367.806 116.888 366.564 116.406 366.547C114.78 370.109 90.4064 364.327 90.8046 362.439C96.0478 363.101 127.855 362.058 129.68 362.753C130.394 363.018 129.581 364.824 130.311 365.272C131.356 365.918 152.362 363.83 154.967 363.383C155.315 363.317 158.352 360.467 161.289 360.865C164.225 361.262 158.916 362.538 162.865 362.753Z" fill="#74726D"/>
<path d="M184.352 297.744C184.318 297.844 182.974 297.496 182.46 298.689C182.394 298.854 183.837 299.103 181.83 302.168C183.356 298.241 174.38 304.421 165.718 305.962C156.211 307.635 141.228 306.608 130.958 309.109V307.85C142.738 306.641 154.502 305.431 166.349 304.702C168.738 303.543 175.69 302.698 173.301 301.555C141.676 306.84 108.492 309.126 76.5848 305.349C79.9033 307.038 78.8912 313.317 74.3781 312.29C74.8924 311.329 76.9167 307.883 75.9543 307.237C74.909 307.022 75.3072 307.817 74.3781 308.496C75.3238 303.791 68.5376 301.869 66.1649 296.187C69.5995 271.071 63.1949 277.665 54.1521 265.256C39.8496 245.658 58.8643 238.484 38.9868 207.818C31.1884 195.791 16.5706 184.227 8.00903 160.486C-24.8934 69.1854 62.133 -21.5357 160.027 4.90533C233.033 24.6201 273.784 110.189 234.925 177.517C227.74 189.959 207.913 210.585 203.947 222.331C197.277 242.096 213.371 256.393 185.613 277.234V294.911C184.733 295.64 184.65 296.767 184.352 297.744Z" fill="#39393C"/>
<path d="M128.734 279.454C123.259 279.57 117.733 279.073 112.308 280.084C94.7366 278.941 63.6427 278.659 54.152 260.833C45.9222 245.359 57.7193 240.29 47.1998 216.649C40.8616 202.418 28.0026 192.03 20.0217 178.776C-17.7921 116.054 13.2023 36.3495 80.3843 11.2173C190.656 -30.0511 285.299 85.0898 231.772 176.888C226.081 186.662 217.702 194.648 211.546 204.025C191.237 234.955 203.018 238.401 199.533 255.15C194.058 281.542 149.84 279.023 128.734 279.454Z" fill="#FDFDFE"/>
<path d="M68.3719 279.454C83.4211 282.685 99.0344 283.314 114.515 283.248L114.83 301.24C115.477 303.095 130.128 300.793 128.104 303.129C119.592 303.41 70.3298 304.056 68.0566 296.817L68.3719 279.454Z" fill="#FDFDFE"/>
<path d="M182.145 293.967L183.721 294.911C180.784 299.07 144.165 304.553 143.9 301.853C156.576 299.666 169.817 299.186 182.145 293.967Z" fill="#FDFDFE"/>
<path d="M170.132 278.195C180.27 277.665 161.189 281.111 154.967 281.343L132.534 281.028C145.161 281.757 157.738 278.841 170.149 278.195H170.132Z" fill="#76767A"/>
<path d="M137.263 282.602C139.951 290.206 136.948 312.257 136.948 292.377L137.263 282.602Z" fill="#ADACAE"/>
<path d="M128.734 279.454C129.116 281.542 127.142 280.332 126.212 280.713C122.861 280.564 119.443 280.929 116.091 280.713C111.478 280.432 112.491 280.1 112.292 280.084C117.734 279.073 123.242 279.57 128.718 279.454H128.734Z" fill="#151215"/>
<path d="M126.196 280.713C126.196 280.713 126.428 281.857 125.88 281.972C124.42 282.287 115.195 282.486 116.091 280.713C119.426 280.929 122.861 280.564 126.212 280.713H126.196Z" fill="#74726D"/>
<path d="M131.572 291.449C133.861 294.315 131.472 307.999 131.256 298.076C131.207 295.905 131.024 293.569 131.572 291.449Z" fill="#858482"/>
<path d="M78.1612 277.549C77.5473 277.499 76.867 277.632 76.2697 277.549C74.8262 277.35 67.5256 275.876 67.1108 275.66C62.2326 273.093 76.3195 275.992 78.1778 277.549H78.1612Z" fill="#858482"/>
<path d="M75.3237 302.168C79.8202 301.853 91.2191 304.471 80.3844 303.427C78.692 303.261 76.6013 303.808 75.3237 302.168Z" fill="#858482"/>
<path d="M134.741 285.766C136.151 285.485 135.604 287.158 135.687 289.245C135.969 296.535 133.364 293.868 134.741 285.766Z" fill="#74726D"/>
<path d="M78.1613 277.549C80.9654 279.918 75.5065 280.597 76.2698 277.549C76.8837 277.632 77.5474 277.499 78.1613 277.549Z" fill="#151215"/>
<path d="M177.084 300.279C179.391 300.395 176.056 302.449 175.508 301.223C175.375 300.942 176.736 300.991 177.084 300.279Z" fill="#858482"/>
<path d="M148.96 248.524C149.624 256.923 150.205 265.356 150.537 273.772C160.16 273.556 168.506 267.642 169.502 267.46C178.213 265.853 158.766 272.678 158.119 273.142C154.436 275.793 167.776 270.873 165.702 273.142C168.904 271.171 169.767 273.341 171.393 273.142C176.387 272.529 181.431 269.68 185.613 269.995C168.456 278.576 104.012 277.549 83.8524 274.418C91.1862 272.264 76.4025 272.38 76.2698 270.939C76.2366 270.674 79.5053 269.879 76.585 266.83C82.3425 271.254 86.2251 272.397 93.3432 273.142C94.9527 273.308 97.2092 274.219 100.295 273.772L100.926 263.997L99.6649 263.682L83.2385 263.368L99.9967 261.794V260.535C87.6687 262.49 83.0394 260.038 98.7357 259.905C99.9137 259.342 100.096 255.018 100.312 253.593C101.158 247.977 100.71 239.412 104.742 229.289C106.634 211.811 96.7944 189.131 106.003 178.163C102.519 150.43 95.7657 122.962 94.6208 94.8478C93.841 90.1262 91.4849 91.6172 91.4683 87.9062C91.4683 87.6577 92.6795 86.9453 92.7293 86.6471C92.7957 86.2495 92.2481 78.2973 96.5289 83.4994C97.6572 84.8744 94.3719 84.8247 94.6374 85.388C121.334 94.4999 118.032 78.1482 119.609 78.1316C121.251 78.1316 120.173 79.8712 120.87 80.0203C123.408 80.567 120.92 69.8647 132.567 81.5942C133.032 82.058 131.887 82.8036 131.937 82.8533C140.797 91.6835 143.485 88.5357 154.37 86.3323C157.771 85.6365 159.181 87.0447 159.43 86.9619C160.841 86.5146 159.895 80.8818 163.545 84.1289C157.124 115.573 153.175 147.614 145.841 178.793C153.905 191.616 147.467 210.552 147.102 218.554C146.654 228.511 148.214 238.633 148.994 248.54L148.96 248.524Z" fill="#39393C"/>
<path d="M132.202 84.4271C141.411 96.0737 152.046 83.9798 160.326 89.1653C154.734 118.87 150.902 149.039 144.215 178.462L131.256 174.983L132.202 84.4105V84.4271Z" fill="#FDFDFE"/>
<path d="M118.298 85.0566L118.613 174.999C118.331 175.496 113.735 173.657 107.546 176.573L94.5874 89.1653C95.5 83.3005 106.335 95.146 118.298 85.0566Z" fill="#FDFDFE"/>
<path d="M112.607 207.504C118.099 211.927 128.618 209.028 135.67 210.337C125.914 218.073 106.899 219.515 112.607 207.504Z" fill="#FDFDFE"/>
<path d="M113.237 203.71C128.685 206.427 141.71 199.088 136.632 208.763C130.443 208.166 112.009 210.519 113.237 203.71Z" fill="#FDFDFE"/>
<path d="M120.206 216.963C122.612 216.665 136.334 216.284 136.317 218.537C136.317 225.413 105.721 218.736 120.206 216.963Z" fill="#FDFDFE"/>
<path d="M117.037 196.139C122.263 195.111 128.502 204.008 113.237 201.821C110.914 200.993 116.174 196.304 117.037 196.139Z" fill="#FDFDFE"/>
<path d="M140.432 207.504C142.423 207.785 143.435 218.935 129.365 215.39C135.288 213.468 139.751 207.404 140.432 207.504Z" fill="#FDFDFE"/>
<path d="M131.571 196.768C135.106 195.807 137.113 198.392 138.839 200.877C122.13 205.284 129.497 197.331 131.571 196.768Z" fill="#FDFDFE"/>
<path d="M105.655 182.885C106.866 182.272 106.916 187.292 106.6 190.141C105.173 203.461 103.481 186.994 105.655 182.885Z" fill="#DCDEDF"/>
<path d="M103.763 184.144C104.294 184.144 104.078 190.489 104.078 191.4C104.211 208.183 101.656 191.715 103.763 184.144Z" fill="#858482"/>
<path d="M131.572 223.275C132.633 225.595 124.686 225.81 119.874 224.22L131.572 223.275Z" fill="#ADACAE"/>
<path d="M110.085 203.71C111.395 203.378 111.064 205.101 111.03 207.189C110.898 216.582 107.646 209.608 110.085 203.71Z" fill="#FDFDFE"/>
<path d="M116.091 222.016C115.942 221.685 115.61 220.608 115.46 220.128C115.626 220.227 116.605 219.796 118.613 222.331C117.667 223.176 116.887 222.397 116.091 222.016Z" fill="#B7BCC6"/>
<path d="M129.049 177.203C129.68 177.716 129.896 177.931 129.995 178.776C130.31 181.609 127.623 181.874 129.049 177.203Z" fill="#DCDEDF"/>
<path d="M141.062 203.08C141.61 203.594 142.008 203.793 142.008 204.654C142.008 206.907 139.718 206.559 141.062 203.08Z" fill="#FDFDFE"/>
<path d="M105.024 208.133C105.572 208.133 105.207 209.227 105.339 209.707C106.468 214.081 103.299 208.15 105.024 208.133Z" fill="#858482"/>
<path d="M115.461 220.128C115.461 220.128 113.785 219.581 114.515 218.869C115.875 218.62 115.378 220.078 115.461 220.128Z" fill="#C1C1C0"/>
<path d="M143.9 201.192C143.468 195.393 143.252 187.855 139.154 183.515C138.341 183.896 143.335 194.714 141.991 201.192C141.908 201.192 142.406 202.716 141.046 202.451C137.545 192.395 129.796 192.792 125.88 202.451C124.453 202.451 125.266 193.074 116.406 194.88C111.843 195.807 111.246 203.312 109.454 201.821C108.01 195.857 113.42 185.238 111.346 186.049C104.543 197.762 110.615 211.612 107.231 223.607V188.269C107.778 182.852 114.681 184.542 114.183 182.587C99.7475 186.049 110.333 173.359 117.667 176.59C119.028 177.186 118.613 185.271 119.874 181.328C121.384 176.639 118.364 88.9168 119.874 82.8698C120.139 81.8095 124.885 76.74 125.88 76.8725C126.328 76.9388 129.829 82.1243 131.256 82.8698C128.983 95.3945 132.169 171.272 130.626 175.645C130.46 176.126 129.166 177.136 128.734 176.275L128.419 81.9255L128.104 180.069C121.085 184.028 123.491 176.59 122.728 176.59C119.559 182.968 127.423 183.531 130.31 182.272C132.915 181.129 127.357 174.833 139.154 177.849C149.79 180.566 147.566 193.952 147.052 202.782C146.87 206.046 146.737 210.535 145.161 213.517C146.587 197.53 144.464 162.971 145.161 199.005C144.447 199.701 144.58 200.247 143.9 201.208V201.192Z" fill="#FDFDFE"/>
<path d="M143.9 201.192C143.136 202.268 142.456 201.142 142.008 201.192C143.335 194.714 138.341 183.912 139.171 183.515C143.269 187.855 143.468 195.393 143.916 201.192H143.9Z" fill="#151215"/>
<path d="M122.097 184.144L130.626 184.459C127.307 184.625 122.097 186.729 122.097 184.144Z" fill="#39393C"/>
<path d="M120.206 225.81L132.534 226.755L133.795 274.087C133.264 274.981 123.989 275.362 122.098 275.031C120.272 274.716 120.853 272.198 119.26 274.087L120.206 225.81Z" fill="#FDFDFE"/>
<path d="M122.728 267.46C123.243 267.46 123.01 269.216 123.043 270.293C123.276 277.582 121.567 270.607 122.728 267.46Z" fill="#76767A"/>
<path d="M116.091 222.016C116.307 222.497 115.942 223.988 116.091 224.849C116.257 225.346 118.231 224.916 118.613 226.108C119.393 228.511 116.937 265.67 117.982 274.07C117.8 274.7 116.821 273.772 116.721 273.44C114.996 268.122 118.762 226.34 116.406 226.423C112.789 230.101 115.676 275.478 113.254 275.014C112.656 274.898 113.204 273.126 112.623 273.126C112.291 273.126 113.635 274.434 108.193 275.014C106.783 269.531 107.148 274.318 106.932 274.385C102.535 275.793 105.771 269.812 102.502 274.385C101.324 273.672 102.435 249.948 102.817 246.933C104.128 236.844 109.968 227.583 109.139 217.278L110.085 216.334C110.499 216.268 114.498 221.271 116.091 222.016Z" fill="#FDFDFE"/>
<path d="M106.932 259.889C107.446 259.889 107.247 263.865 107.247 264.627C107.247 274.517 105.903 265.157 106.932 259.889Z" fill="#74726D"/>
<path d="M143.584 202.451C144.978 211.281 143.402 220.343 143.899 229.273C144.298 236.281 149.226 270.641 147.699 274.087L136.002 275.031L134.425 224.849C140.116 215.704 144.049 219.995 143.584 202.451Z" fill="#FDFDFE"/>
<path d="M144.53 264.295V266.814C143.651 267.178 143.352 268.503 143.269 269.332C143.12 270.773 143.369 272.297 143.269 273.755C141.062 275.047 134.824 271.933 139.47 267.128C140.067 279.272 139.984 261.777 144.53 264.295Z" fill="#ADACAE"/>
<path d="M144.53 266.83V264.312C144.745 264.428 145.641 264.063 145.791 264.627C144.779 271.999 144.53 278.941 144.53 266.83Z" fill="#74726D"/>
<path d="M143.269 273.772C143.368 272.33 143.119 270.79 143.269 269.348C144.347 269.995 144.215 273.209 143.269 273.772Z" fill="#858482"/>
</g>
<defs>
<clipPath id="clip0_65_7113">
<rect width="249" height="388" fill="white" transform="translate(0.924316 0.25)"/>
</clipPath>
</defs>
</svg>
