<svg width="25" height="37" viewBox="0 0 47 53" fill="none" xmlns="http://www.w3.org/2000/svg">
<path d="M8.9203 52.14C7.8803 52.08 6.6603 51.51 5.4903 50.99C5.0903 50.81 4.6103 49.97 4.7403 49.66C4.9703 49.08 5.6103 48.28 6.1003 48.26C17.8303 47.82 27.8003 40.9 39.2103 39.36C41.4503 39.06 41.9903 38.09 41.2803 35.93C40.2303 32.72 39.0903 29.46 38.6703 26.13C37.8903 19.99 37.5703 13.79 37.1203 7.62002C36.8803 4.25002 36.8903 4.21002 33.4603 4.72002C24.7203 6.03002 16.0003 7.46002 7.2403 8.60002C4.4303 8.97002 4.4103 10.28 4.9403 12.42C6.3203 18.08 7.7003 23.75 8.8803 29.46C9.3303 31.64 9.3303 33.93 9.3203 36.18C9.3203 36.69 8.4703 37.54 7.9303 37.62C7.3803 37.7 6.4803 37.15 6.1803 36.62C5.7403 35.84 5.7003 34.84 5.5003 33.93C3.8703 26.59 2.3103 19.23 0.600297 11.91C-0.569703 6.92002 -0.349703 6.02002 4.3803 5.19002C14.9403 3.33002 25.5503 1.78002 36.1403 0.090024C38.5503 -0.299976 39.4903 0.540024 39.5503 3.10002C39.8103 15.21 41.5103 27.08 45.8703 38.48C46.8303 40.99 45.9403 43.04 43.5503 43.14C32.9603 43.61 23.7103 48.84 13.6803 51.25C12.2203 51.6 10.7603 52.26 8.9203 52.14Z" fill="#3D2683"/>
<path d="M11.3299 16.92C13.0799 16.46 13.9599 18.61 14.8399 19.51C17.4499 22.2 19.9399 25 22.5099 27.74C22.9999 28.26 23.4799 29.24 24.1899 29.1C25.0299 28.93 25.1799 27.65 25.3899 26.85C26.3299 23.22 27.1299 19.56 28.0299 15.92C28.2999 14.83 28.4999 13.65 29.0899 12.74C29.6199 11.92 30.4499 10.51 31.4399 10.77C32.5499 11.06 32.8499 13 32.6699 13.94C31.5199 19.82 30.0799 25.64 28.8299 31.5C28.3999 33.51 28.4199 35.63 27.8799 37.6C27.6299 38.51 26.5999 39.69 25.7999 39.8C25.1299 39.89 23.8599 38.75 23.5599 37.9C21.5299 32.23 17.4799 28.07 13.5099 23.81C12.2599 22.47 11.1899 20.91 10.2999 19.3C10.0799 18.9 10.2399 17.2 11.3399 16.92H11.3299Z" fill="#3D2683"/>
</svg>
