<svg width="543" height="262" viewBox="0 0 543 262" fill="none" xmlns="http://www.w3.org/2000/svg">
<path d="M49.2265 0.0853094L426.763 0.0853094C436.19 1.93376 443.114 6.62597 445.986 16.0673L450.323 193.191L448.702 207.822C449.939 211.462 472.533 210.723 453.849 211.349C461.556 213.481 467.101 212.415 457.105 212.969C459.309 214.861 469.774 214.32 475.519 214.59H459.267V215.671C484.988 216.723 510.923 215.998 536.73 216.752L461.172 217.022C461.115 217.164 463.106 218.799 463.603 218.913C467.371 219.809 503.288 218.23 512.9 218.913V219.994L465.239 219.453L465.779 221.074C529.351 220.932 536.745 220.96 467.4 222.155C467.187 222.596 469.945 224.288 470.101 224.316C474.083 225.198 501.525 223.662 510.184 224.316V225.397C506.9 225.695 470.855 223.69 470.912 225.667C487.207 227.458 504.582 225.781 521.289 226.748L473.898 227.018V228.098L515.331 228.368L477.14 229.179V230.26C526.763 228.539 527.872 230.8 477.41 231.07L506.928 232.421V233.501L480.382 232.961C479.841 233.118 480.638 233.956 480.922 234.042C482.813 234.653 511.705 233.544 518.033 234.852C506.359 236.502 494.344 234.17 482.557 234.582C482.017 234.738 482.813 235.577 483.097 235.663C484.789 236.203 512.701 235.535 518.573 237.014C507.838 237.582 495.567 236.203 484.178 236.743C486.88 239.246 497.785 236.914 504.497 238.094L485.273 238.364C487.534 240.853 498.084 238.549 504.497 239.715C468.978 240.383 489.339 241.933 508.833 241.876C443.669 243.213 529.166 244.464 542.958 245.132C523.749 246.17 504.113 244.72 484.733 244.862C484.789 247.095 490.832 245.232 494.216 246.213C468.779 248.374 504.852 246.583 512.63 248.374C507.952 248.63 486.112 247.877 484.733 248.104C484.562 248.133 483.623 249 484.192 249.185L522.384 249.995L482.571 250.265V251.346C519.142 251.943 504.497 251.147 479.585 252.697C479.358 253.365 491.941 253.45 493.392 253.507L491.771 255.128H519.938L515.601 255.669V256.749L524.545 257.019C516.796 256.92 518.687 258.854 518.317 258.91C514.549 259.522 499.435 259.465 492.866 261.072H37.3112C31.9649 260.148 25.0119 260.674 22.6801 254.574C11.5468 255.142 -3.52509 251.602 0.740539 236.971C1.32351 234.966 26.4338 210.95 29.9885 207.182L27.8273 199.604C29.7041 138.406 31.6379 77.2082 32.7043 15.9819C34.7376 7.53597 40.9085 2.16126 49.2265 0V0.0853094Z" fill="#141213"/>
<path d="M482.016 256.294C486.197 256.38 500.899 257.503 496.648 258.456C493.121 259.252 435.507 256.792 424.331 258.185C443.398 257.887 462.978 255.896 482.016 256.294Z" fill="#D8D8DA"/>
<path d="M434.896 258.996C517.436 258.498 515.232 260.588 434.355 260.076L434.896 258.996Z" fill="#FDFDFE"/>
<path d="M475.519 254.119C477.396 254.019 490.178 253.422 488.785 255.47C488.159 256.394 468.865 255.143 466.305 255.74C468.452 254.318 472.604 254.275 475.519 254.119Z" fill="#FDFDFE"/>
<path d="M36.2305 258.996C54.7291 259.365 57.8287 260.261 36.2305 260.076V258.996Z" fill="#FDFDFE"/>
<path d="M89.8493 258.455C90.1764 258.37 91.0721 258.342 91.2001 258.726C86.906 261.968 80.3796 260.93 89.8493 258.455Z" fill="#B9B7B8"/>
<path d="M126.69 259.536C129.563 257.745 129.676 262.394 126.69 260.617C126.235 260.347 126.235 259.82 126.69 259.536Z" fill="#D8D8DA"/>
<path d="M374.224 256.835C374.964 257.119 374.125 258.313 373.684 258.455C370.158 259.621 372.66 256.237 374.224 256.835Z" fill="#807C7C"/>
<path d="M97.4423 259.536C100.514 257.702 99.7884 262.195 97.4423 260.617C96.9873 260.318 96.9873 259.806 97.4423 259.536Z" fill="#D8D8DA"/>
<path d="M270.228 259.536C272.788 259.721 267.854 261.541 267.797 260.347C267.797 260.219 270.1 259.522 270.228 259.536Z" fill="#D8D8DA"/>
<path d="M293.519 259.536C295.552 259.252 293.348 261.783 292.708 260.347C292.68 260.29 293.462 259.536 293.519 259.536Z" fill="#D8D8DA"/>
<path d="M335.237 258.456C335.905 258.001 335.948 260.531 335.237 260.076C334.824 259.821 334.767 258.768 335.237 258.456Z" fill="#726E69"/>
<path d="M140.226 260.076C140.681 260.119 142.075 259.877 142.118 260.347C142.16 260.745 139.416 260.887 140.226 260.076Z" fill="#FDFDFE"/>
<path d="M154.317 259.536L154.587 260.347L153.777 260.617L153.507 260.347L154.317 259.536Z" fill="#FDFDFE"/>
<path d="M194.4 259.536L194.67 260.347L193.86 260.617L193.589 260.347L194.4 259.536Z" fill="#D8D8DA"/>
<path d="M183.025 260.076H183.565C185.542 260.318 182.67 261.285 183.025 260.076Z" fill="#D8D8DA"/>
<path d="M217.69 260.076H218.23C220.207 260.318 217.335 261.285 217.69 260.076Z" fill="#D8D8DA"/>
<path d="M329.265 260.076H329.805C331.781 260.318 328.909 261.285 329.265 260.076Z" fill="#D8D8DA"/>
<path d="M424.872 211.334C424.402 210.694 423.692 210.069 423.791 209.173C429.862 209.23 440.512 207.851 444.38 208.092C445.361 208.149 446.37 208.05 447.366 208.092C451.702 210.95 481.249 235.407 481.761 237.611C482.443 240.554 478.917 241.137 476.614 241.677C467.869 243.711 342.517 241.222 318.444 242.758L312.757 225.155L313.567 224.345L374.779 224.885L369.092 220.278C371.395 217.392 376.471 224.202 376.94 224.345C381.177 225.596 425.057 223.122 434.356 224.885C437.469 223.378 427.914 212.642 424.872 211.349V211.334Z" fill="#B9B7B8"/>
<path d="M279.172 246.54C289.751 246.028 300.529 246.739 311.136 246.54C333.672 247.777 356.28 247.535 378.845 247.621L378.575 250.877C371.324 251.446 346.768 250.066 343.37 250.877C342.972 250.976 343.099 251.602 343.099 251.957C310.496 252.085 277.892 251.616 245.331 253.038C227.231 252.526 209.002 251.986 190.888 251.957C181.233 249.867 163.019 254.289 164.882 247.621C174.081 247.621 183.352 247.08 192.509 247.08C201.04 247.08 200.684 245.687 204.154 251.417L203.073 246C214.221 244.279 222.795 251.502 207.95 251.417L256.152 251.957C260.318 251.346 258.953 248.232 260.489 247.621C261.441 247.251 275.049 247.564 277.821 248.161C279.726 247.28 279.072 246.54 279.172 246.54Z" fill="#D8D8DA"/>
<path d="M14.8313 244.379C14.8455 244.919 14.8029 245.474 14.8313 246C14.8597 246.682 14.6322 247.322 15.1014 247.621C65.0235 247.663 114.96 247.564 164.868 247.621C162.991 254.275 181.219 249.867 190.874 251.957C132.477 251.858 74.0524 252.029 15.6418 251.957C2.64582 250.436 1.90644 242.445 3.72644 241.123C4.19566 240.782 13.4379 243.839 14.8313 244.379Z" fill="#FDFDFE"/>
<path d="M294.329 243.284C345.602 243.284 396.875 243.597 448.162 243.284C447.138 248.189 460.234 243.27 461.698 246.54C411.506 246 361.229 245.587 311.122 246.54C300.515 246.739 289.751 246.028 279.158 246.54C279.414 245.317 278.788 244.962 278.618 244.379C283.736 243.91 289.196 243.298 294.329 243.298V243.284Z" fill="#95969A"/>
<path d="M468.751 247.621L469.291 251.417C445.418 253.507 373.912 251.83 343.086 251.957C343.086 251.602 342.958 250.976 343.356 250.877C346.754 250.066 371.31 251.446 378.561 250.877L378.831 247.621C401.126 247.706 451.774 248.687 468.751 247.621Z" fill="#FDFDFE"/>
<path d="M184.376 246.54L14.8313 246C14.8029 245.459 14.8455 244.905 14.8313 244.379L198.722 243.839V244.919C191.997 245.403 183.338 243.583 184.361 246.54H184.376Z" fill="#95969A"/>
<path d="M313.837 240.582C309.984 243.184 299.405 240.071 299.206 242.744H294.329C291.67 242.815 294.855 240.568 294.87 239.758C294.926 236.431 288.471 226.648 287.291 222.695C294.045 222.994 300.841 223.15 307.61 223.235C309.771 228.909 312.984 234.696 313.837 240.568V240.582Z" fill="#D8D8DA"/>
<path d="M184.376 246.54L192.495 247.08C183.338 247.08 174.081 247.635 164.868 247.621C114.946 247.564 65.0236 247.663 15.1016 247.621C14.6323 247.322 14.8598 246.668 14.8314 246L184.376 246.54Z" fill="#141213"/>
<path d="M299.206 242.744C299.405 240.071 309.97 243.184 313.837 240.582C316.979 238.45 306.059 220.491 308.15 218.913C312.06 215.97 309.97 222.652 310.041 222.98C310.282 223.946 317.065 236.473 317.079 241.393C316.069 243.696 302.05 242.402 299.206 242.744Z" fill="#FDFDFE"/>
<path d="M469.291 251.417L468.75 247.621C470.471 247.507 481.178 244.976 481.746 245.73C479.855 252.341 474.367 250.976 469.291 251.417Z" fill="#52514F"/>
<path d="M469.291 243.839V246.54C466.803 246.753 464.201 246.384 461.712 246.54C460.248 243.27 447.152 248.19 448.176 243.284C455.456 243.241 463.305 244.18 469.305 243.824L469.291 243.839Z" fill="#726E69"/>
<path d="M469.291 246.54V243.839C475.462 243.469 481.946 240.838 482.287 241.407C484.448 245.005 471.154 246.398 469.291 246.554V246.54Z" fill="#52514F"/>
<path d="M422.17 209.159C422.71 209.159 423.251 209.159 423.791 209.159C423.692 210.055 424.403 210.68 424.872 211.32C427.644 215.131 435.607 222.61 433.815 223.776C431.611 225.212 426.521 215.202 421.36 211.32C416.653 210.012 396.022 212.401 393.733 211.32C392.453 210.709 393.235 209.017 392.652 208.619C390.647 207.239 371.58 208.718 367.2 208.078C365.437 209.401 375.945 212.955 370.457 212.415C368.196 212.187 366.532 208.69 363.418 208.078C359.124 207.239 339.204 208.704 331.455 208.078L336.061 212.145C336.218 214.804 328.98 208.263 328.213 208.078C324.502 207.197 291.386 208.747 282.172 208.078L287.86 213.225C282.144 212.799 281.305 206.471 270.257 208.078C271.025 209.784 272.617 210.95 273.783 212.415C272.717 213.14 273.015 212.728 272.162 212.415C268.053 210.922 272.034 207.438 257.261 207.538C246.526 207.609 244.422 207.723 246.697 213.496C244.706 213.595 245.374 215.557 243.995 211.875C243.213 209.799 243.597 208.377 243.185 208.078C242.658 207.709 232.151 208.192 230.189 207.538C229.407 208.235 230.388 208.562 230.459 209.159C229.819 209.102 228.98 209.258 228.838 209.159C228.767 209.102 229.051 208.235 228.568 208.078C213.169 203.073 218.885 215.259 216.112 214.576C213.055 213.837 221.245 205.718 204.737 207.538C204.339 207.822 204.339 212.728 204.467 213.496C203.329 214.207 201.509 214.619 201.765 212.955C201.794 212.159 201.566 207.78 200.955 207.538C197.144 207.908 181.504 207.04 180.366 207.538C179.101 208.092 179.342 221.956 176.57 207.538C173.982 208.931 167.327 207.481 165.735 208.078C165.18 208.292 164.327 211.875 159.777 213.496L164.114 208.078H142.445C137.653 214.548 129.975 215.899 140.283 208.078C134.724 208.547 107.737 207.353 105.618 208.078C105.12 208.249 99.9448 214.562 97.4992 214.576L103.457 208.078C100.13 208.149 83.4084 207.879 82.3278 208.619C81.688 209.059 82.598 211.391 81.2472 211.875C78.7305 212.77 59.4641 210.183 56.3359 211.875C54.6439 212.785 48.2028 229.151 47.3924 222.439C47.2502 221.216 55.1416 210.723 53.6202 210.254C52.3831 212.827 42.6433 224.089 48.7431 224.885C49.8949 225.027 70.9386 224.743 72.0334 224.345C72.5169 224.174 76.8394 216.14 79.8822 219.738L74.735 224.345H105.604C111.178 216.012 116.709 214.534 108.305 224.345L157.602 223.804C160.63 225.013 149.142 240.909 156.251 241.407C152.256 238.62 158.583 227.956 160.318 222.724C201.936 222.368 244.052 221.088 285.713 222.724C303.415 250.436 286.538 239.999 278.675 243.312C276.513 244.222 278.22 245.388 277.324 246.014C276.57 246.54 261.427 245.971 258.91 246.014C256.92 247.223 258.285 249.611 255.654 250.351C252.427 251.261 224.373 249.739 217.733 250.351C212.145 240.213 211.377 244.535 201.481 242.772H12.4C10.0966 241.322 1.35204 241.606 3.45641 237.085C4.29532 235.279 27.3723 212.287 30.8133 208.107C32.8039 207.765 33.9698 208.633 34.8798 208.647C41.7475 208.818 48.5441 209.315 55.4686 209.187C65.1516 209.002 79.2992 209.415 80.65 205.931C185.911 205.391 291.13 205.746 396.448 206.472C395.752 209.571 413.013 209.116 422.184 209.173L422.17 209.159Z" fill="#FDFDFE"/>
<path d="M287.291 222.709C288.472 226.662 294.927 236.445 294.87 239.772C294.87 240.582 291.671 242.815 294.33 242.758V243.298C289.197 243.298 283.737 243.91 278.618 244.379C278.533 244.109 278.661 243.639 278.618 243.298C286.481 239.985 303.359 250.422 285.656 222.709C286.197 222.724 286.751 222.681 287.277 222.709H287.291Z" fill="#52514F"/>
<path d="M55.4545 208.078V209.159C48.5442 209.287 41.7334 208.789 34.8657 208.619V208.078C41.7192 208.05 48.601 208.121 55.4545 208.078Z" fill="#807C7C"/>
<path d="M283.495 224.33C284.234 227.06 292.467 239.274 288.642 240.582C282.798 242.587 222.369 240.326 210.098 240.582C209.742 240.582 209.813 241.265 209.828 241.663C203.699 241.564 197.528 241.805 191.414 241.663C191.414 241.308 191.542 240.682 191.144 240.582C186.964 239.587 166.19 241.734 158.64 240.042L162.166 223.25C182.585 224.373 274.168 221.771 282.685 223.25C283.125 223.321 282.599 224.032 283.495 224.33Z" fill="#B9B7B8"/>
<path d="M209.827 241.663C209.813 241.265 209.742 240.582 210.097 240.582C222.368 240.326 282.798 242.587 288.642 240.582C292.467 239.274 284.234 227.06 283.495 224.33C283.537 224.345 283.338 223.619 284.305 223.79C286.85 226.833 296.334 239.999 288.642 241.663C281.404 243.227 223.193 241.876 209.827 241.663Z" fill="#2B2A2B"/>
<path d="M191.414 241.663C153.99 240.767 151.929 245.914 162.166 223.25L158.64 240.042C166.19 241.734 186.964 239.587 191.144 240.582C191.542 240.682 191.414 241.308 191.414 241.663Z" fill="#141213"/>
<path d="M233.402 248.161C234.753 247.877 246.171 247.692 245.588 249.512C237.54 249.128 226.549 249.611 233.402 248.161Z" fill="#2B2A2B"/>
<path d="M273.754 212.415C274.195 212.969 272.987 213.652 273.484 214.036C273.726 214.221 275.205 213.865 275.375 214.036V217.292C273.058 219.908 272.333 217.292 272.119 217.292L271.309 214.59L271.039 217.292C270.911 217.292 270.114 218.629 268.607 218.373C268.223 216.709 262.451 216.311 262.109 217.832L262.379 214.576C262.479 214.633 264.825 215.842 264.541 215.116C266.73 211.931 270.854 216.169 272.119 212.415C272.972 212.728 272.674 213.14 273.74 212.415H273.754Z" fill="#2B2A2B"/>
<path d="M387.234 213.496L423.25 214.306C411.52 214.306 398.481 215.728 387.234 213.496Z" fill="#807C7C"/>
<path d="M204.424 213.496C204.552 214.235 204.14 215.188 204.694 215.657C207.851 215.913 205.334 214.946 206.585 214.036C209.5 214.733 207.894 219.752 209.842 214.036C210.012 214.207 210.737 213.467 210.922 214.846C211.69 220.278 204.04 217.448 200.898 218.373C199.746 214.064 201.708 213.24 201.708 212.955C201.467 214.633 203.273 214.207 204.41 213.496H204.424Z" fill="#2B2A2B"/>
<path d="M195.751 214.036L198.452 213.496C204.552 217.306 195.822 220.619 187.618 218.102C193.661 217.747 195.282 213.965 195.466 217.292C196.106 217.036 195.509 215.074 195.737 214.036H195.751Z" fill="#2B2A2B"/>
<path d="M292.438 209.159C298.14 209.244 306.557 215.529 305.704 221.344C304.709 228.155 303.742 214.434 298.396 211.86C297.5 211.434 293.775 213.126 292.438 209.159Z" fill="#FDFDFE"/>
<path d="M55.1841 221.088C78.4317 220.562 78.4175 222.624 55.1841 222.169V221.088Z" fill="#6A6668"/>
<path d="M159.194 217.292C163.403 216.695 158.398 223.093 157.573 223.25C152.938 224.16 158.199 217.434 159.194 217.292Z" fill="#FDFDFE"/>
<path d="M122.353 215.117C126.306 214.221 130.814 216.183 134.809 215.657L138.335 217.548C131.226 216.027 117.292 216.254 122.353 215.117Z" fill="#B9B7B8"/>
<path d="M341.194 208.619C342.502 208.562 350.337 214.334 350.138 214.846C349.541 216.354 342.118 214.477 348.517 214.306C345.73 213.026 340.654 210.268 341.208 208.619H341.194Z" fill="#D8D8DA"/>
<path d="M225.269 213.496C227.771 212.884 226.079 220.264 225.809 221.615C224.103 222.923 223.818 213.837 225.269 213.496Z" fill="#FDFDFE"/>
<path d="M186.267 220.534C190.774 220.534 195.296 220.534 199.803 220.534C231.454 220.619 195.239 221.885 186.267 220.534Z" fill="#2B2A2B"/>
<path d="M184.646 212.415C186.238 212.102 184.432 215.87 183.025 221.629C181.674 221.629 182.428 212.856 184.646 212.415Z" fill="#FDFDFE"/>
<path d="M264.541 215.117C264.825 215.842 262.465 214.633 262.38 214.576C262.081 214.377 257.474 209.784 257.503 209.429C257.716 206.144 264.74 213.496 264.541 215.117Z" fill="#FDFDFE"/>
<path d="M375.319 221.088L391.301 221.359C385.528 221.444 376.357 223.548 375.319 221.088Z" fill="#3C3A3E"/>
<path d="M400.231 219.453C402.691 218.671 407.696 222.283 407.539 222.98C407.241 224.373 398.112 220.136 400.231 219.453Z" fill="#FDFDFE"/>
<path d="M347.152 217.292C355.854 223.619 353.749 227.714 346.341 218.102L347.152 217.292Z" fill="#FDFDFE"/>
<path d="M134.809 217.832C138.606 217.392 132.122 226.079 131.283 222.439C131.212 222.155 134.113 217.918 134.809 217.832Z" fill="#D8D8DA"/>
<path d="M114.775 209.159C115.699 208.974 116.126 209.287 116.666 209.969C103.969 221.344 113.083 209.486 114.775 209.159Z" fill="#FDFDFE"/>
<path d="M408.89 221.629C418.502 221.188 442.147 222.425 419.724 222.169C416.17 222.126 412.331 222.653 408.89 221.629Z" fill="#6A6668"/>
<path d="M89.3093 208.619C94.229 208.846 84.6029 214.363 84.1621 213.225C84.8446 212.301 88.7263 208.59 89.3093 208.619Z" fill="#FDFDFE"/>
<path d="M308.15 208.619C308.648 208.547 313.937 211.292 313.838 211.604C305.832 209.244 308.321 212.301 307.069 212.415C304.908 212.628 306.828 208.832 308.15 208.619Z" fill="#D8D8DA"/>
<path d="M320.876 214.576C320.961 214.946 321.217 215.344 321.416 215.657C327.004 224.586 325.525 226.449 319.255 214.306L320.065 213.496C320.918 214.121 320.805 214.576 320.876 214.576Z" fill="#FDFDFE"/>
<path d="M126.69 208.619C127.615 208.434 128.041 208.746 128.581 209.429C117.05 219.652 125.212 208.903 126.69 208.619Z" fill="#FDFDFE"/>
<path d="M284.859 212.955C285.158 212.856 287.035 215.771 287.291 216.482C289.765 223.321 286.153 222.951 284.859 212.955Z" fill="#D8D8DA"/>
<path d="M368.267 217.292C369.959 216.752 376.556 217.505 378.831 218.102C378.831 218.714 364.157 218.614 368.267 217.292Z" fill="#2B2A2B"/>
<path d="M151.601 209.159C157.047 207.964 147.122 215.031 146.454 213.225C147.833 212.415 151.118 209.273 151.601 209.159Z" fill="#FDFDFE"/>
<path d="M291.357 216.752C297.045 215.742 311.975 218.828 289.736 217.832C289.48 217.392 291.272 216.766 291.357 216.752Z" fill="#726E69"/>
<path d="M331.44 213.496C332.265 214.334 333.473 215.372 333.871 216.482C337.199 225.553 331.042 217.605 331.44 213.496Z" fill="#FDFDFE"/>
<path d="M148.36 216.752C148.743 216.993 148.758 218.742 148.63 219.183C147.791 222.297 141.136 225.24 148.36 216.752Z" fill="#FDFDFE"/>
<path d="M99.8738 218.913L99.3335 217.832C107.637 217.719 109.685 219.453 99.8738 218.913Z" fill="#2B2A2B"/>
<path d="M383.168 214.576V215.116C379.599 215.387 377.836 213.766 374.495 213.225L383.168 214.576Z" fill="#6A6668"/>
<path d="M359.878 212.415L358.797 212.955C358.1 212.187 351.318 207.41 356.906 209.159C357.574 209.372 359.337 211.747 359.892 212.415H359.878Z" fill="#FDFDFE"/>
<path d="M388.855 217.292C398.88 216.837 398.837 218.828 388.855 218.373V217.292Z" fill="#2B2A2B"/>
<path d="M321.416 215.671C321.217 215.358 320.961 214.96 320.875 214.59C322.767 214.761 325.084 213.837 326.293 215.941C325.482 221.942 326.563 213.837 321.416 215.671Z" fill="#95969A"/>
<path d="M149.44 213.496C156.009 214.477 151.729 213.979 148.9 214.576C148.075 214.747 147.933 217.719 147.009 214.846L149.44 213.496Z" fill="#B9B7B8"/>
<path d="M209.827 214.036C207.879 219.752 209.5 214.733 206.571 214.036C208.178 212.884 208.562 212.728 209.827 214.036Z" fill="#D8D8DA"/>
<path d="M340.099 220.534L344.706 221.344C342.36 221.956 339.53 221.785 340.099 220.534Z" fill="#2B2A2B"/>
<path d="M372.063 209.159C372.276 209.13 375.646 211.391 375.589 211.59C375.106 213.012 368.935 209.472 372.063 209.159Z" fill="#D8D8DA"/>
<path d="M191.144 211.875C191.471 211.804 194.129 212.785 194.129 213.225C194.129 215.429 188.456 212.472 191.144 211.875Z" fill="#FDFDFE"/>
<path d="M278.362 214.036C278.618 213.894 280.054 213.951 280.253 214.306C275.959 221.558 277.58 214.448 278.362 214.036Z" fill="#B9B7B8"/>
<path d="M181.944 213.496C182.542 214.178 182.087 215.87 181.674 216.482C179.172 220.079 180.195 214.391 181.944 213.496Z" fill="#52514F"/>
<path d="M290.817 219.453C291.528 219.382 292.438 219.539 292.708 220.264C293.732 222.994 285.741 219.937 290.817 219.453Z" fill="#FDFDFE"/>
<path d="M173.271 217.292C175.944 217.235 170.129 224.401 171.92 218.643C171.949 218.557 173.186 217.292 173.271 217.292Z" fill="#FDFDFE"/>
<path d="M168.934 217.292C171.877 217.704 168.564 219.126 162.166 218.102C163.503 218.23 168.593 217.249 168.934 217.292Z" fill="#B9B7B8"/>
<path d="M383.168 215.117V214.576C385.258 209.386 384.121 213.169 386.424 213.766C385.045 214.036 383.353 215.102 383.168 215.117Z" fill="#D8D8DA"/>
<path d="M88.2287 213.496C89.8923 214.235 84.3612 215.927 84.1621 215.387L88.2287 213.496Z" fill="#B7BCC6"/>
<path d="M108.277 216.211C111.59 215.145 113.85 217.463 107.736 217.292C107.196 217.136 107.992 216.297 108.277 216.211Z" fill="#B9B7B8"/>
<path d="M361.498 215.671H360.418C359.764 214.861 361.1 215.486 358.797 212.969L359.877 212.429C360.56 213.268 361.712 214.434 361.498 215.685V215.671Z" fill="#6A6668"/>
<path d="M335.237 214.036C337.199 215.074 337.312 213.979 337.398 214.036C340.213 215.899 334.895 216.595 335.237 214.036Z" fill="#D8D8DA"/>
<path d="M99.3335 217.832L99.8738 218.913C99.5752 218.899 93.8308 220.875 99.3335 217.832Z" fill="#D8D8DA"/>
<path d="M171.109 215.117L174.095 216.467C173.356 217.192 170.228 216.482 171.109 215.117Z" fill="#B9B7B8"/>
<path d="M220.392 213.496C220.889 213.211 222.852 213.695 222.823 214.306C222.766 215.643 218.529 214.548 220.392 213.496Z" fill="#FDFDFE"/>
<path d="M122.894 218.913C126.135 218.771 125.581 220.434 121.273 219.994C120.931 219.61 122.794 218.913 122.894 218.913Z" fill="#B9B7B8"/>
<path d="M354.19 218.913C356.636 218.017 358.47 220.548 353.65 219.994C353.11 219.851 353.877 219.027 354.19 218.913Z" fill="#D8D8DA"/>
<path d="M113.139 219.453C113.737 219.652 116.424 220.52 116.125 221.344C115.841 222.112 112.756 220.477 113.139 219.453Z" fill="#807C7C"/>
<path d="M95.8071 210.254C98.6793 208.462 98.793 213.112 95.8071 211.334C95.3521 211.064 95.3521 210.538 95.8071 210.254Z" fill="#6A6668"/>
<path d="M169.474 212.415C170.541 211.889 171.252 215.216 170.015 215.117C169.858 215.117 168.664 212.799 169.474 212.415Z" fill="#FDFDFE"/>
<path d="M198.452 213.496L195.75 214.036C195.992 212.955 197.258 212.742 198.452 213.496Z" fill="#D8D8DA"/>
<path d="M272.12 217.292C271.764 217.292 271.395 217.306 271.039 217.292L271.309 214.59L272.12 217.292Z" fill="#726E69"/>
<path d="M280.523 215.671C281.447 215.045 282.144 218.003 281.063 217.832C279.784 217.647 280.054 215.984 280.523 215.671Z" fill="#D8D8DA"/>
<path d="M315.729 216.211C316.112 216.055 324.302 217.704 315.729 217.292V216.211Z" fill="#52514F"/>
<path d="M336.317 219.453C337.426 219.155 338.023 220.861 336.857 221.074C334.838 221.458 335.421 219.695 336.317 219.453Z" fill="#FDFDFE"/>
<path d="M259.934 215.117C260.403 215.557 260.745 215.728 260.745 216.467C260.745 218.401 258.782 218.102 259.934 215.117Z" fill="#58575D"/>
<path d="M212.273 212.955C213.552 212.742 213.879 214.406 212.813 214.576C211.533 214.789 211.206 213.126 212.273 212.955Z" fill="#FDFDFE"/>
<path d="M275.375 217.292V214.036C276.342 214.946 276.655 215.842 275.375 217.292Z" fill="#95969A"/>
<path d="M155.398 215.671C157.189 214.875 156.862 217.264 155.938 217.292C155.668 217.292 154.616 216.012 155.398 215.671Z" fill="#95969A"/>
<path d="M91.4843 210.254C94.0863 208.675 92.9204 212.131 91.4843 211.334C91.0293 211.093 91.0293 210.524 91.4843 210.254Z" fill="#3C3A3E"/>
<path d="M319.525 211.334C321.558 211.05 319.354 213.581 318.715 212.145C318.686 212.088 319.468 211.334 319.525 211.334Z" fill="#D8D8DA"/>
<path d="M354.19 214.576C354.645 214.619 356.039 214.377 356.081 214.846C356.124 215.244 353.38 215.387 354.19 214.576Z" fill="#2B2A2B"/>
<path d="M361.499 215.671L361.228 216.752C360.461 216.183 360.461 215.728 360.418 215.671H361.499Z" fill="#FDFDFE"/>
<path d="M343.625 217.832C343.981 218.017 344.308 216.681 345.246 218.102C343.668 218.97 343.697 217.861 343.625 217.832Z" fill="#918C90"/>
<path d="M151.061 219.453C151.516 219.496 152.909 219.254 152.952 219.723C152.995 220.122 150.25 220.264 151.061 219.453Z" fill="#3C3A3E"/>
<path d="M343.625 217.832C341.962 216.951 341.749 216.41 343.355 216.752C343.81 216.851 343.569 217.818 343.625 217.832Z" fill="#918C90"/>
<path d="M173.811 213.496L174.081 214.306L173.271 214.576L173 214.306L173.811 213.496Z" fill="#D8D8DA"/>
<path d="M154.858 210.254H155.398C157.374 210.495 154.502 211.462 154.858 210.254Z" fill="#3C3A3E"/>
<path d="M243.952 211.875C243.014 213.183 243.128 212.998 241.791 213.496C241.037 211.761 240.796 212.884 240.17 212.955C238.322 213.154 238.108 212.955 238.009 212.955C231.397 213.737 236.743 213.837 236.928 214.036C237.341 214.505 237.312 216.496 237.468 217.292C229.833 218.671 229.179 220.818 229.35 212.955C233.26 216.709 230.686 211.192 230.43 209.159C230.359 208.562 229.364 208.22 230.16 207.538C232.122 208.192 242.63 207.709 243.156 208.078C243.568 208.377 243.184 209.799 243.966 211.875H243.952Z" fill="#141213"/>
<path d="M230.416 209.159C230.672 211.178 233.245 216.709 229.335 212.955C229.364 211.533 228.539 210.609 228.795 209.159C228.937 209.258 229.776 209.102 230.416 209.159Z" fill="#A4A7AB"/>
<path d="M237.994 212.955L236.914 214.036C236.729 213.823 231.383 213.737 237.994 212.955Z" fill="#D8D8DA"/>
<path d="M233.402 212.955C233.885 213.297 233.615 214.064 233.672 214.846C233.985 219.411 231.809 216.496 233.402 212.955Z" fill="#807C7C"/>
<path d="M235.023 214.576C235.435 214.576 235.435 217.292 235.023 217.278C234.61 217.278 234.596 214.576 235.023 214.576Z" fill="#807C7C"/>
<path d="M246.668 213.496C250.109 213.311 253.749 212.173 257.233 213.496C261.228 215.017 257.901 220.107 255.882 217.292C257.645 217.178 257.56 215.344 255.882 214.59C255.384 214.363 254.659 214.875 254.261 215.131C253.422 215.657 253.763 216.624 253.18 217.292C252.725 217.292 252.142 217.335 252.1 217.292C252.228 211.263 251.502 214.42 251.019 214.59C250.863 214.647 250.635 214.534 250.479 214.59C249.995 212.244 249.825 213.609 249.398 214.59C248.673 216.254 248.986 217.448 248.588 217.847C248.218 218.202 239.701 218.344 238.563 217.576C238.407 217.477 239.274 213.851 237.483 217.306C237.326 216.524 237.355 214.519 236.942 214.05L238.023 212.969C238.137 212.969 238.336 213.169 240.184 212.969C240.27 215.259 241.691 213.552 241.805 213.51C243.156 212.998 243.028 213.197 243.966 211.889C245.346 215.572 244.692 213.624 246.668 213.51V213.496Z" fill="#2B2A2B"/>
<path d="M255.882 217.292C255.739 217.093 255.981 215.486 255.882 214.59C257.559 215.358 257.645 217.178 255.882 217.292Z" fill="#95969A"/>
<path d="M252.085 217.292C251.004 216.197 252.128 215.102 251.004 214.59C251.488 214.434 252.213 211.263 252.085 217.292Z" fill="#95969A"/>
<path d="M253.166 217.292C253.763 216.609 253.408 215.657 254.247 215.131C254.375 219.027 253.991 217.32 253.166 217.292Z" fill="#A4A7AB"/>
<path d="M250.464 214.576C250.251 214.661 249.753 214.534 249.384 214.576C249.825 213.595 249.995 212.23 250.464 214.576Z" fill="#B9B7B8"/>
<path d="M241.791 213.496C241.677 213.538 240.255 215.244 240.17 212.955C240.81 212.884 241.051 211.761 241.791 213.496Z" fill="#FDFDFE"/>
<path d="M244.777 215.116C246.17 214.377 246.341 216.083 245.317 216.197C245.26 216.197 244.222 215.401 244.777 215.116Z" fill="#52514F"/>
<path d="M443.839 207.538C436.673 208.419 429.379 208.121 422.17 208.078C415.544 208.036 398.894 208.291 404.567 206.457C406.6 205.803 435.408 207.083 442.488 205.917C445.489 203.599 444.308 199.604 445.474 196.433L441.678 19.3092C440.526 10.5362 435.45 5.84394 426.777 4.40784L107.196 4.94816C120.036 6.01457 132.861 5.87238 145.658 5.48848L146.468 6.83926L140.781 15.2284C143.34 7.06676 139.572 15.3279 139.16 15.2284C138.634 15.1146 139.146 13.6927 138.62 13.6074C138.349 13.5648 137.866 14.9582 137.269 14.4179C136.942 14.1193 137.752 7.82036 134.567 13.6074C134.468 13.778 132.292 15.2141 133.216 16.309L429.507 17.9299L432.493 130.33C431.327 137.069 434.014 146.283 431.412 151.999C435.777 151.558 430.175 162.919 433.033 160.673L433.573 192.637L44.9322 192.907C44.4346 175.546 45.3446 158.213 45.7427 140.909C50.4207 145.345 49.8519 135.207 50.0794 134.681C51.2596 131.894 52.6814 130.842 52.781 130.614C52.98 132.349 51.3307 136.87 56.0371 126.547C57.8286 122.609 59.3927 117.362 61.1843 113.281C57.8997 118.741 55.3688 124.827 52.7952 130.614C52.6957 129.747 51.5582 130.429 51.7146 129.263C51.8568 128.126 58.7244 110.48 59.8335 107.864C59.9614 107.608 61.6961 105.859 63.0896 103.257C71.8625 83.8768 63.8289 98.5791 59.8335 107.864C56.5774 114.462 53.5061 120.988 51.7146 128.183C51.2027 128.908 50.9894 127.671 51.1743 126.562C51.416 125.182 61.3691 99.1194 54.9707 113.566C53.2075 117.547 46.1835 138.065 51.1743 121.685C54.9138 109.4 65.4499 92.5219 66.886 87.5595C69.1467 79.7392 59.9188 100.897 59.3074 101.636C57.0608 104.338 60.0325 99.0341 58.7671 98.9346C54.7716 106.584 45.9986 127.756 49.013 117.348C49.4396 115.883 51.4728 111.362 52.2691 109.499C53.236 107.366 54.5014 105.191 55.5252 103.001C59.3785 94.9248 64.4972 87.2893 67.1704 78.6301C62.6488 86.4362 59.3216 94.8538 55.5252 103.001C54.4446 105.262 53.3071 107.054 52.2691 109.499C51.416 111.362 49.7808 113.239 49.013 115.187C48.2025 117.22 47.7475 122.68 46.3114 122.495C47.1788 87.3462 48.9419 52.1973 48.4727 17.1337C63.2602 15.0862 56.5916 15.5127 56.0513 14.9724C55.9518 14.8587 56.0513 12.4841 56.3214 11.9865L52.2549 10.9058C52.1696 10.4082 51.615 8.24693 51.4444 8.20427C49.7097 12.3846 49.1268 5.85816 54.7005 5.50269C55.0986 5.47426 54.8427 6.59755 55.2408 6.58333C55.6674 6.56911 55.1129 5.4316 56.3214 5.50269C56.7622 5.53113 56.5347 6.58333 56.5916 6.58333C56.1793 6.08567 54.7858 8.5313 55.7811 8.74458C55.8949 8.77302 56.8049 6.83926 56.5916 6.58333C57.1461 6.62598 57.1461 4.62112 59.2932 5.77285C55.6532 13.6359 57.6722 10.8348 60.6439 5.50269L92.8778 5.77285L92.6077 4.42207C78.5169 7.50755 42.4155 -3.41251 38.1641 15.527C35.9175 25.537 35.9318 169.773 32.7468 197.528L35.7327 205.917C52.7668 204.836 99.0772 207.808 55.4968 208.078C48.6433 208.121 41.7614 208.05 34.908 208.078C30.7561 204.026 30.6139 197.272 30.5713 191.556L34.908 21.4704C35.8464 11.2329 39.3158 5.3605 49.2689 2.24658L425.725 2.24658C435.294 3.72534 441.65 8.57396 443.868 18.2285L447.124 200.229L443.868 207.538H443.839Z" fill="#FDFDFE"/>
<path d="M443.839 207.538L444.38 208.078C440.512 207.836 429.862 209.216 423.791 209.159C423.251 209.159 422.71 209.159 422.17 209.159V208.078C429.379 208.121 436.673 208.419 443.839 207.538Z" fill="#95969A"/>
<path d="M59.7909 107.878C58.6676 110.48 51.8142 128.14 51.672 129.278C51.5156 130.443 52.6531 129.761 52.7526 130.628C52.6531 130.856 51.2312 131.894 50.0511 134.695C49.8236 135.221 50.4065 145.359 45.7144 140.923C45.8565 134.766 46.0983 128.638 46.2547 122.509C47.705 122.694 48.16 117.234 48.9562 115.201C49.724 113.253 51.3592 111.376 52.2123 109.513C51.4161 111.376 49.3828 115.898 48.9562 117.362C45.9419 127.77 54.7148 106.598 58.7103 98.9488C59.9758 99.0483 57.004 104.352 59.2506 101.65C59.8762 100.897 69.09 79.7534 66.8292 87.5737C65.3931 92.5361 54.8712 109.414 51.1175 121.699C46.1267 138.079 53.1365 117.561 54.9139 113.58C61.3265 99.1336 51.3592 125.211 51.1175 126.576C50.9326 127.685 51.1459 128.922 51.6578 128.197C53.4636 121.002 56.5206 114.49 59.7767 107.878H59.7909Z" fill="#D8D8DA"/>
<path d="M318.444 180.451C321.373 179.712 316.809 186.537 316.283 183.707C316.724 187.248 311.491 186.423 309.785 191.826C306.359 191.769 305.491 189.864 304.368 191.826C304.24 187.475 302.079 194.499 302.207 190.205C295.837 194.513 302.861 189.309 307.084 183.707C307.979 188.101 312.899 183.622 315.203 181.546V183.707C316.056 183.067 318.061 180.565 318.459 180.451H318.444Z" fill="#FDFDFE"/>
<path d="M414.577 172.332L414.037 172.872C411.179 177.735 413.298 173.327 414.307 175.574C418.473 168.436 422.213 172.958 410.781 180.181C411.037 182.342 413.497 177.11 413.483 179.911C409.942 181.958 412.075 184.247 404.809 180.721C406.771 179.74 414.791 167.341 415.644 171.507C415.701 171.82 414.592 172.261 414.563 172.318L414.577 172.332Z" fill="#807C7C"/>
<path d="M69.0049 169.616C73.0004 157.971 77.6783 146.738 82.0008 135.221L86.0674 128.453C79.8254 141.918 75.1047 156.108 69.0049 169.616Z" fill="#D8D8DA"/>
<path d="M73.0572 146.866L73.8819 147.151L60.6016 178.29L64.6681 165.024L73.0572 146.866Z" fill="#D8D8DA"/>
<path d="M226.62 38.533C229.378 32.9735 243.298 13.579 233.658 28.5087C236.53 30.67 229.236 35.6608 226.62 38.533Z" fill="#D8D8DA"/>
<path d="M55.4541 103.001C59.2505 94.8395 62.5777 86.4362 67.0993 78.6301C64.4261 87.2893 59.3074 94.9248 55.4541 103.001Z" fill="#D8D8DA"/>
<path d="M77.9343 118.713L78.7447 119.523C64.1705 149.099 64.3411 147.449 77.9343 118.713Z" fill="#D8D8DA"/>
<path d="M280.253 169.076L281.603 167.995C282.599 168.422 270.484 183.892 269.688 185.868C271.565 179.399 277.252 174.792 280.253 169.076Z" fill="#D8D8DA"/>
<path d="M52.7528 130.628C55.3407 124.827 57.8574 118.756 61.1419 113.296C59.3646 117.391 57.7863 122.637 55.9947 126.562C51.3025 136.87 52.9377 132.349 52.7386 130.628H52.7528Z" fill="#D8D8DA"/>
<path d="M66.5589 112.201C66.8717 114.021 64.5541 118.144 63.3028 120.874C53.8474 141.577 62.7056 117.988 66.5589 112.201Z" fill="#D8D8DA"/>
<path d="M345.517 95.4083L334.142 107.864C333.445 106.741 337.312 103.712 339.829 101.096C339.872 101.053 338.877 100.413 339.289 100.015C340.028 99.2901 341.791 100.015 345.517 95.4083Z" fill="#D8D8DA"/>
<path d="M264.541 20.1196C261.768 25.1104 256.948 32.7744 253.166 36.9121C255.157 32.9166 261.456 23.0771 264.541 20.1196Z" fill="#D8D8DA"/>
<path d="M66.5589 89.9909C67.0992 90.0904 66.4593 92.4365 66.2887 92.9769C62.9473 103.285 52.1411 118.215 66.5589 89.9909Z" fill="#D8D8DA"/>
<path d="M401.311 21.2003C404.297 21.2998 398.268 28.9922 396.974 27.158C396.462 26.447 400.941 21.1861 401.311 21.2003Z" fill="#D8D8DA"/>
<path d="M101.765 177.209C102.788 176.911 102.191 178.475 102.035 179.1C98.6649 192.921 92.6219 198.637 101.765 177.209Z" fill="#D8D8DA"/>
<path d="M59.791 107.878C63.7865 98.5933 71.8201 83.8911 63.0471 103.271C61.6537 105.873 59.919 107.622 59.791 107.878Z" fill="#D8D8DA"/>
<path d="M75.773 110.039L76.5834 110.31C67.9811 127.045 66.9289 126.69 75.773 110.039Z" fill="#D8D8DA"/>
<path d="M67.6398 94.868L68.4502 95.1381C61.1134 110.75 59.9474 110.395 67.6398 94.868Z" fill="#D8D8DA"/>
<path d="M424.061 185.868C424.217 185.84 426.222 187.845 425.952 188.3C418.473 192.082 422.525 186.181 424.061 185.868Z" fill="#726E69"/>
<path d="M55.7243 94.868C56.3925 96.5742 54.146 99.3185 53.2929 101.096C46.7949 114.518 52.2549 100.783 55.7243 94.868Z" fill="#D8D8DA"/>
<path d="M418.103 185.328C418.26 185.328 420.577 187.077 420.535 187.219C420.492 187.418 417.762 190.219 417.549 190.205C416.923 190.148 418.8 187.29 415.658 187.774C416.184 187.376 417.918 185.328 418.089 185.342L418.103 185.328Z" fill="#807C7C"/>
<path d="M265.351 23.3757C265.707 24.1293 264.513 26.4897 264.001 27.4423C258.754 37.2106 255.896 37.0969 265.351 23.3757Z" fill="#D8D8DA"/>
<path d="M102.049 185.868C103.286 181.688 104.452 177.451 107.196 173.953C106.044 178.133 103.712 181.901 102.049 185.868Z" fill="#D8D8DA"/>
<path d="M289.182 28.2528C290.277 28.0538 289.765 28.978 289.452 29.6036C287.533 33.5564 275.404 44.7467 289.182 28.2528Z" fill="#D8D8DA"/>
<path d="M361.228 73.7531C361.541 74.919 359.238 77.649 358.242 78.9003C349.839 89.6355 357.162 77.5068 361.228 73.7531Z" fill="#B9B7B8"/>
<path d="M65.4786 58.0413C64.725 63.4444 56.862 75.8574 62.4926 63.7288C63.3742 61.8235 64.5401 59.9324 65.4786 58.0413Z" fill="#D8D8DA"/>
<path d="M52.4824 98.1241C53.1791 99.3469 51.5866 101.494 50.8614 103.001C46.7949 111.461 46.7949 107.935 52.4824 98.1241Z" fill="#D8D8DA"/>
<path d="M161.355 24.9967C161.768 26.4897 159.919 28.6367 159.194 29.8738C152.682 40.9644 158.014 29.0491 161.355 24.9967Z" fill="#D8D8DA"/>
<path d="M298.126 35.8314C297.088 37.9074 296.163 40.026 294.599 41.7891L294.329 38.2628C296.106 36.5139 294.045 40.2819 298.126 35.8314Z" fill="#D8D8DA"/>
<path d="M64.9381 86.749C65.4358 87.9861 63.6584 90.062 63.047 91.3559C57.8572 102.262 61.6109 91.3133 64.9381 86.749Z" fill="#D8D8DA"/>
<path d="M180.309 36.3718C180.934 37.5804 178.944 39.4288 178.148 40.7085C171.948 50.6048 176.754 40.2819 180.309 36.3718Z" fill="#D8D8DA"/>
<path d="M137.255 30.9544C139.302 26.902 139.985 26.2337 142.672 22.8354C140.881 25.6934 139.189 28.2102 137.255 30.9544Z" fill="#D8D8DA"/>
<path d="M57.3594 76.4546L58.1698 76.7248C53.0084 87.7443 51.9989 87.4457 57.3594 76.4546Z" fill="#D8D8DA"/>
<path d="M419.994 182.627C417.392 182.541 416.013 187.674 416.198 183.977C416.312 181.731 422.014 179.996 419.994 182.627Z" fill="#726E69"/>
<path d="M243.952 22.8354C242.658 25.5939 241.279 28.0538 239.345 30.4141C239.232 28.2813 242.388 24.6555 243.952 22.8354Z" fill="#D8D8DA"/>
<path d="M112.6 159.336C114.206 159.165 111.306 163.986 109.898 167.455L112.6 159.336Z" fill="#D8D8DA"/>
<path d="M424.331 179.37C423.677 179.442 423.08 180.522 422.98 180.451C420.023 178.603 429.009 173.953 424.331 179.37Z" fill="#726E69"/>
<path d="M123.704 167.455C122.609 170.029 121.557 172.588 120.178 175.034C118.571 174.522 123.292 168.166 123.704 167.455Z" fill="#D8D8DA"/>
<path d="M301.382 47.2065C301.652 46.6519 301.993 45.1732 302.462 44.2205C309.927 37.2817 304.041 43.2821 301.382 47.2065Z" fill="#D8D8DA"/>
<path d="M430.019 154.459C430.019 156.663 426.379 159.734 426.492 156.35C426.549 154.829 429.35 156.35 430.019 154.459Z" fill="#6A6668"/>
<path d="M427.587 167.455C426.635 166.73 425.881 166.488 425.967 166.104C433.076 159.592 427.559 164.569 427.587 167.455Z" fill="#6A6668"/>
<path d="M280.253 169.076C273.84 174.778 278.959 168.649 281.603 165.82C281.746 166.986 280.75 168.123 280.253 169.076Z" fill="#D8D8DA"/>
<path d="M322.497 36.3718C323.122 36.1443 323.421 35.7319 323.847 35.2911C321.8 39.9265 317.662 46.2823 322.497 36.3718Z" fill="#B9B7B8"/>
<path d="M291.898 34.7508L292.708 35.0209C286.751 42.0166 285.713 41.1635 291.898 34.7508Z" fill="#D8D8DA"/>
<path d="M52.2124 109.499C53.2504 107.054 54.3879 105.262 55.4685 103.001C54.4447 105.191 53.1935 107.366 52.2124 109.499Z" fill="#D8D8DA"/>
<path d="M226.079 23.9161C224.8 25.9494 223.904 28.2386 222.013 29.8738C221.7 27.8689 225.127 25.1531 226.079 23.9161Z" fill="#D8D8DA"/>
<path d="M150.521 26.0773C150.805 28.6794 145.061 35.3053 148.359 29.3334C148.957 28.2528 149.795 27.0869 150.521 26.0773Z" fill="#D8D8DA"/>
<path d="M154.047 30.9544C151.743 35.5897 148.53 39.3862 151.345 33.9404C151.914 32.8455 153.293 31.7933 154.047 30.9544Z" fill="#D8D8DA"/>
<path d="M298.936 51.0029C299.348 51.1736 299.263 51.9556 299.206 52.3537C298.936 54.4723 292.623 60.302 298.936 51.0029Z" fill="#D8D8DA"/>
<path d="M108.547 178.29C107.879 180.536 107.381 182.755 106.116 184.788C105.632 182.228 107.41 180.266 108.547 178.29Z" fill="#D8D8DA"/>
<path d="M136.714 27.7125C136.544 28.0111 135.947 30.7554 133.728 33.1299C133.231 31.0397 135.947 28.8642 136.714 27.7125Z" fill="#D8D8DA"/>
<path d="M102.049 185.868C101.75 186.878 101.821 190.035 100.158 191.826C99.7738 189.508 101.267 187.76 102.049 185.868Z" fill="#D8D8DA"/>
<path d="M226.079 23.9161C226.25 23.6459 226.904 20.6884 229.605 18.4987C230.075 19.6931 227.174 22.5084 226.079 23.9161Z" fill="#D8D8DA"/>
<path d="M167.313 20.66C167.91 21.2003 166.716 22.6364 166.232 23.3616C162.479 29.0349 163.915 23.6886 167.313 20.66Z" fill="#D8D8DA"/>
<path d="M78.7446 137.126C79.484 135.121 79.8821 132.989 81.176 131.169C81.6737 133.515 79.6831 135.335 78.7446 137.126Z" fill="#D8D8DA"/>
<path d="M54.3735 91.0858C55.1413 89.1236 55.4968 86.9197 56.8049 85.1281C57.3168 87.4742 55.2835 89.28 54.3735 91.0858Z" fill="#D8D8DA"/>
<path d="M69.0048 169.616C68.2939 171.692 67.8389 173.711 66.5734 175.574C65.8909 173.441 68.2797 171.237 69.0048 169.616Z" fill="#D8D8DA"/>
<path d="M315.999 61.2831C315.814 61.5249 315.188 64.0416 312.472 66.1602C311.761 64.9943 315.174 62.3496 315.999 61.2831Z" fill="#D8D8DA"/>
<path d="M424.061 162.578C426.052 162.251 424.829 165.834 424.061 165.834C422.838 165.834 423.137 162.734 424.061 162.578Z" fill="#726E69"/>
<path d="M111.519 170.171L112.329 170.441C109.542 176.953 108.448 177.039 111.519 170.171Z" fill="#D8D8DA"/>
<path d="M259.934 39.0875C260.503 39.6421 259.55 40.7796 259.123 41.5189C256.493 46.1543 256.209 43.1257 259.934 39.0875Z" fill="#D8D8DA"/>
<path d="M324.942 49.3677C325.824 50.2066 324.487 50.6901 323.861 51.529C320.292 56.335 322.88 50.8038 324.942 49.3677Z" fill="#D8D8DA"/>
<path d="M412.686 164.753C413.496 165.479 412.402 166.047 411.605 166.915C408.662 170.1 408.278 168.578 412.686 164.753Z" fill="#6A6668"/>
<path d="M424.331 173.953C424.516 173.91 427.559 172.56 427.033 174.223C426.151 177.067 424.53 173.967 424.331 173.953Z" fill="#726E69"/>
<path d="M419.994 155.54C419.895 156.919 422.127 154.886 419.454 157.701C419.454 157.274 419.596 156.777 419.184 156.62C415.814 158.426 419.027 156.364 419.994 155.54Z" fill="#807C7C"/>
<path d="M123.704 167.455C123.804 167.213 123.861 165.265 125.595 162.578C126.235 164.526 124.5 166.019 123.704 167.455Z" fill="#D8D8DA"/>
<path d="M54.3738 91.0858C54.2742 91.3275 54.2031 93.3039 52.4827 95.9628C51.7291 94.1712 53.7055 92.4081 54.3738 91.0858Z" fill="#D8D8DA"/>
<path d="M187.077 28.2528C187.717 27.2717 188.527 24.6981 190.063 24.4564C189.864 26.2906 188.072 27.1437 187.077 28.2528Z" fill="#D8D8DA"/>
<path d="M231.767 21.7406C232.392 22.1956 231.653 23.1056 231.226 23.9019C228.88 28.3808 228.965 24.428 231.767 21.7406Z" fill="#D8D8DA"/>
<path d="M58.9802 27.158C59.2646 27.03 59.6485 27.1153 59.7907 27.4281C59.9755 27.8263 54.3733 34.4238 58.9802 27.158Z" fill="#D8D8DA"/>
<path d="M287.021 40.7085C287.817 41.4337 286.836 41.9171 286.21 42.5996C283.75 45.3154 283.182 43.9788 287.021 40.7085Z" fill="#D8D8DA"/>
<path d="M322.497 36.3717C321.871 36.5992 321.572 37.0116 321.146 37.4524C319.937 36.9121 323.108 34.182 323.577 33.6559C323.236 34.4238 322.866 35.6181 322.497 36.3575V36.3717Z" fill="#B9B7B8"/>
<path d="M224.458 33.1156C225.141 31.7364 225.568 30.3003 226.89 29.3192C227.501 30.7553 225.113 32.3905 224.458 33.1156Z" fill="#D8D8DA"/>
<path d="M69.2749 25.537C70.1423 26.3475 68.9479 26.7314 68.4645 27.4281C65.5638 31.6226 67.4549 26.8878 69.2749 25.537Z" fill="#D8D8DA"/>
<path d="M409.444 140.908C410.454 140.752 410.141 144.463 408.904 144.165C408.747 144.122 408.904 141.221 409.444 140.908Z" fill="#807C7C"/>
<path d="M426.236 138.747C427.047 139.487 426.123 139.785 425.696 140.368C423.663 143.155 422.554 141.819 426.236 138.747Z" fill="#807C7C"/>
<path d="M430.019 151.203C430.403 151.331 430.36 152.184 430.289 152.554C429.962 154.388 426.535 156.364 430.019 151.203Z" fill="#473E4F"/>
<path d="M159.734 22.2951C160.573 23.0771 159.535 23.39 159.194 23.916C157.004 27.3854 157.943 23.5179 159.734 22.2951Z" fill="#D8D8DA"/>
<path d="M49.2263 108.419C50.1647 108.618 49.0983 109.968 48.9561 110.31C47.0508 115.101 48.5153 108.262 49.2263 108.419Z" fill="#D8D8DA"/>
<path d="M422.17 147.421C422.099 147.563 422.412 148.43 420.279 150.122L422.17 147.421Z" fill="#807C7C"/>
<path d="M78.7443 137.126C78.5879 137.539 78.8581 139.231 77.3936 140.382C76.7111 139.316 78.3747 137.852 78.7443 137.126Z" fill="#D8D8DA"/>
<path d="M424.331 173.953C423.578 173.896 422.739 175.972 422.17 175.304C424.601 171.109 424.132 173.996 424.331 173.953Z" fill="#726E69"/>
<path d="M171.11 18.4987C171.437 18.3849 171.849 18.4845 171.92 18.7689C172.631 21.4136 165.337 20.5178 171.11 18.4987Z" fill="#D8D8DA"/>
<path d="M318.174 58.5815C317.477 59.4631 316.667 60.4158 316.013 61.2831C316.709 60.3873 317.619 59.3351 318.174 58.5815Z" fill="#D8D8DA"/>
<path d="M425.142 169.616C426.222 169.886 423.677 172.361 423.521 172.318C422.44 172.048 424.985 169.574 425.142 169.616Z" fill="#726E69"/>
<path d="M418.373 169.076C418.26 169.062 416.383 169.801 416.212 168.806C416.098 168.152 416.88 166.829 418.373 169.076Z" fill="#6A6668"/>
<path d="M320.335 55.8658C318.814 58.4963 318.273 58.4394 318.174 58.5674C318.984 57.5436 318.7 57.4299 320.335 55.8658Z" fill="#D8D8DA"/>
<path d="M417.293 159.336C417.947 158.995 418.971 158.227 419.454 157.715C419.454 159.279 416.809 161.44 417.293 159.336Z" fill="#726E69"/>
<path d="M309.771 55.8657C310.61 56.0648 309.643 56.9464 309.501 57.2165C307.268 61.3542 308.463 55.5387 309.771 55.8657Z" fill="#D8D8DA"/>
<path d="M425.682 182.086C426.762 182.356 424.217 184.83 424.061 184.788C422.98 184.518 425.525 182.044 425.682 182.086Z" fill="#726E69"/>
<path d="M193.86 20.1197C194.187 20.0059 194.599 20.1054 194.67 20.3898C195.381 23.0345 188.087 22.1387 193.86 20.1197Z" fill="#D8D8DA"/>
<path d="M224.188 21.2003C224.899 21.7974 223.335 23.9445 223.108 23.9018C222.326 23.7739 223.733 21.3567 224.188 21.2003Z" fill="#D8D8DA"/>
<path d="M137.255 30.9544C137.17 31.125 137.141 32.6464 135.904 33.656C135.037 32.49 137.027 31.2814 137.255 30.9544Z" fill="#D8D8DA"/>
<path d="M259.394 184.788C260.801 184.105 259.024 187.532 258.853 187.489C258.114 187.319 259.052 184.944 259.394 184.788Z" fill="#D8D8DA"/>
<path d="M123.975 27.158C125.126 26.902 124.387 28.2955 124.245 28.5088C123.093 30.215 121.955 29.76 123.975 27.158Z" fill="#D8D8DA"/>
<path d="M80.1096 25.537C80.8205 26.1342 79.2565 28.2812 79.029 28.2386C78.2469 28.1106 79.6546 25.6934 80.1096 25.537Z" fill="#D8D8DA"/>
<path d="M127.771 184.788C129.178 184.105 127.401 187.532 127.23 187.489C126.491 187.319 127.429 184.944 127.771 184.788Z" fill="#D8D8DA"/>
<path d="M301.382 47.2065C301.282 47.4198 301.268 48.9127 300.031 49.9081C299.164 48.7421 301.168 47.5193 301.382 47.2065Z" fill="#D8D8DA"/>
<path d="M408.619 170.171C407.425 170.654 406.913 172.176 406.458 171.522C407.638 168.536 408.463 170.185 408.619 170.171Z" fill="#807C7C"/>
<path d="M164.057 20.66C164.768 21.2572 163.204 23.4042 162.976 23.3616C162.194 23.2336 163.602 20.8164 164.057 20.66Z" fill="#D8D8DA"/>
<path d="M139.956 22.8354C140.027 22.7075 140.056 21.1576 141.307 20.1339C142.16 21.314 140.226 22.4657 139.956 22.8354Z" fill="#D8D8DA"/>
<path d="M89.5791 139.828C89.8493 139.302 89.7497 137.539 90.9299 137.667C91.3991 138.719 89.636 139.728 89.5791 139.828Z" fill="#D8D8DA"/>
<path d="M429.208 150.663C429.294 150.364 429.123 149.881 429.208 149.582C432.137 148.089 431.057 148.629 429.208 150.663Z" fill="#6A6668"/>
<path d="M161.625 28.7931C161.711 28.6936 161.313 27.8689 162.976 26.6318C163.929 27.7125 161.91 28.4376 161.625 28.7931Z" fill="#D8D8DA"/>
<path d="M429.208 114.917C429.137 115.03 429.493 115.841 427.857 117.078C426.962 115.969 428.81 115.357 429.208 114.917Z" fill="#807C7C"/>
<path d="M198.737 27.7125C199.362 27.7836 198.495 30.1724 197.656 29.8738C197.187 29.7174 198.467 27.6699 198.737 27.7125Z" fill="#D8D8DA"/>
<path d="M187.077 28.2528C187.006 28.3666 187.376 29.177 185.726 30.4141C184.816 29.305 186.693 28.6794 187.077 28.2528Z" fill="#D8D8DA"/>
<path d="M421.359 164.213C422.355 164.554 420.407 166.417 420.279 166.374C419.283 166.033 421.231 164.171 421.359 164.213Z" fill="#726E69"/>
<path d="M419.184 164.753C420.179 165.095 418.231 166.957 418.103 166.915C417.108 166.573 419.056 164.711 419.184 164.753Z" fill="#6A6668"/>
<path d="M408.35 165.834C409.345 166.175 407.397 168.038 407.269 167.995C406.274 167.654 408.222 165.791 408.35 165.834Z" fill="#807C7C"/>
<path d="M161.626 28.7932C161.54 28.8927 161.939 29.7174 160.275 30.9544C159.322 29.8738 161.341 29.1486 161.626 28.7932Z" fill="#D8D8DA"/>
<path d="M429.478 118.158C430.474 118.5 428.526 120.362 428.398 120.32C427.403 119.978 429.351 118.116 429.478 118.158Z" fill="#726E69"/>
<path d="M431.1 167.455C432.095 167.796 430.147 169.659 430.019 169.616C429.024 169.275 430.972 167.412 431.1 167.455Z" fill="#726E69"/>
<path d="M431.1 132.79C432.095 133.131 430.147 134.993 430.019 134.951C429.024 134.61 430.972 132.747 431.1 132.79Z" fill="#726E69"/>
<path d="M417.293 159.336C413.71 161.213 416.824 158.213 417.023 158.255C417.478 158.341 417.236 159.322 417.293 159.336Z" fill="#726E69"/>
<path d="M405.648 189.665C407.454 188.84 407.084 191.3 406.188 191.286C406.103 191.286 405.292 189.821 405.648 189.665Z" fill="#807C7C"/>
<path d="M421.359 133.33C422.355 133.671 420.407 135.534 420.279 135.491C419.283 135.15 421.231 133.287 421.359 133.33Z" fill="#6A6668"/>
<path d="M307.069 59.6622C308.065 60.0034 306.117 61.8661 305.989 61.8234C304.993 61.4822 306.941 59.6195 307.069 59.6622Z" fill="#D8D8DA"/>
<path d="M429.748 137.667C426.108 138.904 429.279 136.543 429.478 136.586C429.933 136.671 429.691 137.652 429.748 137.667Z" fill="#6A6668"/>
<path d="M409.444 157.701C410.44 158.042 408.492 159.905 408.364 159.862C407.368 159.521 409.316 157.658 409.444 157.701Z" fill="#6A6668"/>
<path d="M429.749 137.667C433.389 136.43 430.218 138.79 430.019 138.747C429.564 138.662 429.806 137.681 429.749 137.667Z" fill="#6A6668"/>
<path d="M424.602 137.126C425.227 137.268 425.398 139.487 424.602 139.288C423.976 139.145 423.805 136.927 424.602 137.126Z" fill="#6A6668"/>
<path d="M427.587 179.37C430.659 176.868 428.426 180.565 427.858 180.451C427.388 180.366 427.659 179.413 427.587 179.37Z" fill="#726E69"/>
<path d="M415.132 179.911C414.094 180.152 413.511 182.029 413.511 179.911C416.298 178.29 414.648 179.74 415.132 179.911Z" fill="#726E69"/>
<path d="M415.132 179.911C416.028 179.697 416.34 178.446 416.753 179.1C415.032 182.527 415.288 179.968 415.132 179.911Z" fill="#726E69"/>
<path d="M431.64 162.038C432.635 162.379 430.687 164.242 430.559 164.199C429.564 163.858 431.512 161.995 431.64 162.038Z" fill="#726E69"/>
<path d="M422.71 154.999C423.564 154.886 423.919 153.492 424.331 154.189C422.597 157.63 422.867 155.042 422.71 154.999Z" fill="#6A6668"/>
<path d="M142.672 22.8355C143.44 21.6126 143.255 21.7975 144.293 20.6742C143.454 22.153 143.411 21.897 142.672 22.8355Z" fill="#D8D8DA"/>
<path d="M431.099 138.747C431.654 138.918 431.554 140.766 430.559 140.368C429.734 140.041 430.915 138.69 431.099 138.747Z" fill="#6A6668"/>
<path d="M89.5794 139.828C89.423 140.155 89.9775 141.264 88.7689 141.989C87.9585 141.221 89.3093 140.283 89.5794 139.828Z" fill="#D8D8DA"/>
<path d="M56.549 6.58331C56.7623 6.83925 55.8523 8.773 55.7385 8.74457C54.7432 8.53128 56.1366 6.08565 56.549 6.58331Z" fill="#544E5B"/>
<path d="M408.619 170.171C411.691 168.92 409.06 171.28 408.89 171.252C408.435 171.18 408.676 170.157 408.619 170.171Z" fill="#807C7C"/>
<path d="M414.577 156.62C414.577 156.62 413.483 156.791 413.497 156.35C415.743 153.194 414.421 156.35 414.577 156.62Z" fill="#787178"/>
<path d="M58.9806 71.5775C59.7484 71.8192 58.9806 73.7672 58.4403 73.7388C57.7578 73.7104 58.8668 71.5349 58.9806 71.5775Z" fill="#D8D8DA"/>
<path d="M88.2283 154.999C89.3942 154.16 88.8823 156.919 88.2283 156.62C87.8159 156.435 87.7733 155.326 88.2283 154.999Z" fill="#D8D8DA"/>
<path d="M399.69 165.834C399.903 166.175 400.216 166.858 400.23 166.915C400.5 168.479 398.581 168.138 399.69 165.834Z" fill="#807C7C"/>
<path d="M51.402 97.0435C52.1698 97.2852 51.402 99.2332 50.8616 99.2047C50.1791 99.1763 51.2882 97.0008 51.402 97.0435Z" fill="#D8D8DA"/>
<path d="M425.682 148.501C426.478 148.743 425.483 150.407 424.601 150.122C424.004 149.937 425.582 148.473 425.682 148.501Z" fill="#6A6668"/>
<path d="M229.605 188.044C230.771 187.205 230.259 189.963 229.605 189.665C229.193 189.48 229.15 188.371 229.605 188.044Z" fill="#D8D8DA"/>
<path d="M67.0994 14.7022C67.853 14.8018 66.9146 16.3801 66.5591 16.3232C65.8055 16.2237 66.7439 14.6454 67.0994 14.7022Z" fill="#52514F"/>
<path d="M123.974 18.4987C124.728 18.5982 123.79 20.1765 123.434 20.1196C122.68 20.0201 123.619 18.4418 123.974 18.4987Z" fill="#D8D8DA"/>
<path d="M401.851 164.753C402.605 164.853 401.667 166.431 401.311 166.374C400.557 166.275 401.496 164.697 401.851 164.753Z" fill="#807C7C"/>
<path d="M411.876 159.336C411.819 159.407 412.146 160.232 411.065 160.957C410.127 159.962 411.833 159.407 411.876 159.336Z" fill="#6A6668"/>
<path d="M415.942 164.753C416.696 164.853 415.757 166.431 415.402 166.374C414.648 166.275 415.587 164.697 415.942 164.753Z" fill="#6A6668"/>
<path d="M429.749 159.876C427.843 161.199 428.938 158.725 429.479 158.796C429.919 158.853 429.678 159.578 429.749 159.876Z" fill="#6A6668"/>
<path d="M427.587 167.455C427.701 167.54 429.834 166.175 427.857 168.536C427.473 168.493 427.587 167.853 427.587 167.455Z" fill="#6A6668"/>
<path d="M424.331 167.995C426.222 166.673 425.156 169.147 424.601 169.076C424.146 169.019 424.388 168.024 424.331 167.995Z" fill="#6A6668"/>
<path d="M414.577 157.701C414.549 158.568 414.478 158.782 413.767 159.322C412.828 158.327 414.535 157.772 414.577 157.701Z" fill="#726E69"/>
<path d="M411.876 159.336C411.933 159.265 411.606 158.44 412.686 157.715C413.625 158.71 411.918 159.265 411.876 159.336Z" fill="#6A6668"/>
<path d="M428.668 172.332C428.256 172.233 427.9 172.915 427.858 172.872C427.331 172.503 427.687 171.92 427.587 171.792C428.014 171.891 428.327 171.209 428.398 171.251C428.91 171.536 428.568 172.233 428.668 172.332Z" fill="#726E69"/>
<path d="M428.668 172.332C428.924 172.602 429.422 171.422 429.749 172.062C428.668 174.778 428.796 172.361 428.668 172.332Z" fill="#726E69"/>
<path d="M431.099 171.792C431.853 171.891 430.915 173.47 430.559 173.413C429.806 173.313 430.744 171.735 431.099 171.792Z" fill="#726E69"/>
<path d="M108.547 178.29C108.76 177.92 108.021 176.484 109.358 176.669C109.855 177.238 108.576 178.205 108.547 178.29Z" fill="#D8D8DA"/>
<path d="M411.605 156.62C412.359 156.72 411.42 158.298 411.065 158.241C410.311 158.142 411.25 156.563 411.605 156.62Z" fill="#6A6668"/>
<path d="M414.577 157.701C414.577 157.345 414.534 156.962 414.577 156.62C414.805 157.033 416.369 154.871 414.577 157.701Z" fill="#6A6668"/>
<path d="M421.36 177.749C422.113 177.849 421.175 179.427 420.819 179.37C420.066 179.271 421.004 177.693 421.36 177.749Z" fill="#6A6668"/>
<path d="M421.089 183.167C421.559 183.309 421.814 182.257 422.17 182.897C421.104 185.613 421.217 183.21 421.089 183.167Z" fill="#6A6668"/>
<path d="M406.188 183.167C407.454 183.821 405.221 184.916 404.837 183.977C404.809 183.906 406.117 183.124 406.188 183.167Z" fill="#807C7C"/>
<path d="M374.765 185.328C375.206 185.712 375.206 186.565 374.765 186.949C374.694 187.02 373.371 186.082 374.765 185.328Z" fill="#D8D8DA"/>
<path d="M419.995 155.54C419.995 155.54 419.71 154.658 420.805 153.919C421.758 154.957 419.995 155.454 419.995 155.54Z" fill="#807C7C"/>
<path d="M412.146 153.378C412.899 153.478 411.961 155.056 411.605 154.999C410.852 154.9 411.79 153.322 412.146 153.378Z" fill="#6A6668"/>
<path d="M429.478 186.409C430.232 186.508 429.293 188.087 428.938 188.03C428.184 187.93 429.123 186.352 429.478 186.409Z" fill="#6A6668"/>
<path d="M409.174 188.044C407.283 189.366 408.349 186.892 408.904 186.963C409.359 187.02 409.117 188.015 409.174 188.044Z" fill="#807C7C"/>
<path d="M409.174 188.044C411.065 186.722 409.999 189.196 409.444 189.125C408.989 189.068 409.231 188.072 409.174 188.044Z" fill="#6A6668"/>
<path d="M429.208 150.663C429.208 150.663 429.493 151.544 428.398 152.284C427.46 151.26 429.18 150.748 429.208 150.663Z" fill="#787178"/>
<path d="M421.089 151.203C420.634 151.089 420.137 152.355 419.468 151.473C420.919 149.767 421.018 151.174 421.089 151.203Z" fill="#807C7C"/>
<path d="M429.208 149.582C428.853 149.767 428.483 149.952 428.128 150.122C428.213 150.08 427.687 150.023 429.208 148.501C429.137 148.814 429.294 149.283 429.208 149.582Z" fill="#6A6668"/>
<path d="M427.047 150.122C425.824 149.61 426.834 148.956 427.317 148.501C428.199 149.155 426.905 149.696 427.047 150.122Z" fill="#6A6668"/>
<path d="M412.146 163.118C412.899 163.218 411.961 164.796 411.605 164.739C410.852 164.64 411.79 163.061 412.146 163.118Z" fill="#6A6668"/>
<path d="M425.142 159.876C425.895 159.976 424.957 161.554 424.602 161.497C423.848 161.398 424.786 159.82 425.142 159.876Z" fill="#6A6668"/>
<path d="M417.563 133.87C418.317 133.97 417.378 135.548 417.023 135.491C416.269 135.392 417.208 133.813 417.563 133.87Z" fill="#787178"/>
<path d="M90.3894 132.79C91.143 132.889 90.2046 134.467 89.8491 134.411C89.0955 134.311 90.034 132.733 90.3894 132.79Z" fill="#D8D8DA"/>
<path d="M431.099 130.628C431.853 130.728 430.915 132.306 430.559 132.249C429.806 132.15 430.744 130.571 431.099 130.628Z" fill="#6A6668"/>
<path d="M421.9 130.088C422.653 130.188 421.715 131.766 421.359 131.709C420.606 131.609 421.544 130.031 421.9 130.088Z" fill="#787178"/>
<path d="M405.107 160.957C405.861 161.057 404.922 162.635 404.567 162.578C403.813 162.478 404.752 160.9 405.107 160.957Z" fill="#807C7C"/>
<path d="M429.208 114.916C429.208 114.916 428.924 114.035 430.019 113.296C430.971 114.277 429.251 114.845 429.208 114.916Z" fill="#726E69"/>
<path d="M429.749 111.66C429.692 111.731 430.019 112.556 428.938 113.281C428 112.286 429.706 111.731 429.749 111.66Z" fill="#6A6668"/>
<path d="M429.748 111.66C429.805 111.589 429.478 110.765 430.559 110.039C431.497 111.035 429.791 111.589 429.748 111.66Z" fill="#807C7C"/>
<path d="M425.142 97.5838C425.895 97.6833 424.957 99.2616 424.602 99.2047C423.848 99.1052 424.786 97.5269 425.142 97.5838Z" fill="#807C7C"/>
<path d="M63.3174 73.7531C64.6113 73.7531 63.8719 74.137 63.8577 74.2934C63.6871 76.0565 62.4074 75.2318 63.3174 73.7531Z" fill="#D8D8DA"/>
<path d="M429.749 160.957C429.82 160.715 429.805 160.132 429.749 159.876C432.066 159.038 430.502 160.09 429.749 160.957Z" fill="#726E69"/>
<path d="M320.335 55.8658C320.335 55.8658 320.051 54.9842 321.146 54.2448C322.084 55.2259 320.378 55.7947 320.335 55.8658Z" fill="#D8D8DA"/>
<path d="M326.563 47.2065C327.317 47.306 326.378 48.8843 326.023 48.8275C325.269 48.7279 326.208 47.1496 326.563 47.2065Z" fill="#D8D8DA"/>
<path d="M419.184 162.578C419.937 162.678 418.999 164.256 418.644 164.199C417.89 164.099 418.828 162.521 419.184 162.578Z" fill="#58575D"/>
<path d="M413.226 45.0453C414.62 44.3059 414.79 46.0121 413.767 46.1259C413.71 46.1259 412.672 45.3296 413.226 45.0453Z" fill="#95969A"/>
<path d="M226.62 38.533C226.62 38.533 226.904 39.4146 225.809 40.154C224.871 39.1586 226.577 38.6041 226.62 38.533Z" fill="#D8D8DA"/>
<path d="M253.166 36.912C253.166 36.912 253.45 37.7936 252.356 38.533C251.417 37.5377 253.123 36.9831 253.166 36.912Z" fill="#D8D8DA"/>
<path d="M298.126 35.8315C298.126 35.8315 297.841 34.9499 298.936 34.2105C299.874 35.2058 298.168 35.7604 298.126 35.8315Z" fill="#D8D8DA"/>
<path d="M224.458 33.1157C224.458 33.1157 224.742 33.9972 223.648 34.7366C222.709 33.7413 224.415 33.1868 224.458 33.1157Z" fill="#D8D8DA"/>
<path d="M161.896 33.1156C162.649 33.2152 161.711 34.7935 161.355 34.7366C160.602 34.637 161.54 33.0588 161.896 33.1156Z" fill="#D8D8DA"/>
<path d="M323.577 33.6702C323.577 33.6702 323.293 32.7886 324.388 32.0493C325.326 33.0588 323.606 33.5849 323.577 33.6702Z" fill="#B9B7B8"/>
<path d="M181.674 30.4141C181.674 30.4141 181.958 31.3098 180.863 32.035C179.925 31.0397 181.631 30.4852 181.674 30.4141Z" fill="#D8D8DA"/>
<path d="M154.047 30.9544C154.047 30.9544 153.763 30.0728 154.857 29.3334C155.796 30.3288 154.09 30.8833 154.047 30.9544Z" fill="#D8D8DA"/>
<path d="M181.674 30.4141C182.214 29.2766 181.987 29.6889 182.754 28.7932C182.214 29.9307 182.442 29.5183 181.674 30.4141Z" fill="#D8D8DA"/>
<path d="M182.754 28.7931C182.754 28.7931 182.47 27.8973 183.565 27.1722C184.503 28.1675 182.797 28.722 182.754 28.7931Z" fill="#D8D8DA"/>
<path d="M136.714 27.7125C137.283 26.7456 137.667 26.3048 137.795 26.0916C137.44 26.6319 137.07 27.1722 136.714 27.7125Z" fill="#D8D8DA"/>
<path d="M137.795 26.0773C138.278 25.2668 138.62 24.8829 138.876 24.4564C138.492 25.0393 138.165 25.5228 137.795 26.0773Z" fill="#D8D8DA"/>
<path d="M138.875 24.4564C139.33 23.7312 139.43 23.5464 139.956 22.8354C139.345 23.9587 139.146 24.044 138.875 24.4564Z" fill="#D8D8DA"/>
<path d="M243.952 22.8354C243.952 22.8354 243.668 21.9396 244.763 21.2145C245.701 22.2098 243.995 22.7501 243.952 22.8354Z" fill="#D8D8DA"/>
<path d="M180.309 20.6599C181.062 20.7595 180.124 22.3378 179.769 22.2809C179.015 22.1814 179.953 20.6031 180.309 20.6599Z" fill="#D8D8DA"/>
<path d="M94.7266 4.96238C94.9967 4.83441 95.9352 4.87707 96.0774 5.23254C96.4044 6.00036 92.7075 5.84395 94.7266 4.96238Z" fill="#52514F"/>
<path d="M221.487 19.5793C222.24 19.6789 221.302 21.2571 220.946 21.2003C220.193 21.1007 221.131 19.5224 221.487 19.5793Z" fill="#D8D8DA"/>
<path d="M144.293 20.6599C144.293 20.6599 144.009 19.7784 145.103 19.039C146.042 20.0343 144.336 20.5889 144.293 20.6599Z" fill="#D8D8DA"/>
<path d="M264.541 20.1197C264.541 20.1197 264.257 19.2381 265.352 18.4987C266.29 19.494 264.584 20.0486 264.541 20.1197Z" fill="#D8D8DA"/>
<path d="M424.601 151.203L425.412 151.473L424.601 152.284L424.331 152.013L424.601 151.203Z" fill="#807C7C"/>
<path d="M422.17 151.743C422.312 151.843 423.222 151.544 423.251 152.013C421.829 153.734 422.269 151.786 422.17 151.743Z" fill="#58575D"/>
<path d="M427.317 159.336L427.587 160.147L426.777 160.417L426.507 160.147L427.317 159.336Z" fill="#726E69"/>
<path d="M424.331 179.37L425.412 179.641C423.99 181.375 424.445 179.356 424.331 179.37Z" fill="#52514F"/>
<path d="M418.644 152.284L419.454 152.554L418.644 153.378L418.374 153.108L418.644 152.284Z" fill="#58575D"/>
<path d="M427.587 179.37C425.767 179.669 427.061 178.233 427.317 178.29C427.786 178.389 427.516 179.328 427.587 179.37Z" fill="#726E69"/>
<path d="M421.359 157.161L421.629 157.971L420.819 158.241L420.549 157.971L421.359 157.161Z" fill="#6A6668"/>
<path d="M405.918 145.245C405.918 145.245 406.174 147.008 404.837 146.056C405.42 145.259 405.875 145.302 405.918 145.245Z" fill="#807C7C"/>
<path d="M414.577 172.332C414.207 173.086 414.051 172.844 414.037 172.872L414.577 172.332Z" fill="#6A6668"/>
<path d="M409.444 171.792L409.715 172.602L408.89 172.872L408.62 172.602L409.444 171.792Z" fill="#726E69"/>
<path d="M424.601 190.745L424.872 191.556L424.061 191.826L423.791 191.556L424.601 190.745Z" fill="#58575D"/>
<path d="M427.587 171.792C427.531 171.721 426.564 171.991 426.507 171.522C426.137 168.834 427.474 171.763 427.587 171.792Z" fill="#726E69"/>
<path d="M420.265 169.076L421.09 169.346L420.265 170.171L419.995 169.901L420.265 169.076Z" fill="#6A6668"/>
<path d="M418.374 169.076C418.374 169.076 419.44 168.905 419.454 169.346C419.539 171.948 418.487 169.09 418.374 169.076Z" fill="#6A6668"/>
<path d="M421.359 190.745L421.629 191.556L420.819 191.826L420.549 191.556L421.359 190.745Z" fill="#726E69"/>
<path d="M422.44 168.536L423.251 168.806L422.44 169.616L422.17 169.346L422.44 168.536Z" fill="#52514F"/>
<path d="M423.521 134.411L424.331 134.681L423.521 135.491L423.25 135.221L423.521 134.411Z" fill="#6A6668"/>
<path d="M422.98 144.165L423.251 144.975L422.44 145.245L422.17 144.975L422.98 144.165Z" fill="#6A6668"/>
<path d="M420.265 167.455L420.549 168.266L419.724 168.536L419.454 168.266L420.265 167.455Z" fill="#6A6668"/>
<path d="M408.89 190.745L409.174 191.556L408.349 191.826L408.079 191.556L408.89 190.745Z" fill="#58575D"/>
<path d="M400.771 189.665L401.581 189.935L400.771 190.745L400.5 190.475L400.771 189.665Z" fill="#807C7C"/>
<path d="M405.918 145.245C406.359 144.62 406.387 144.605 406.999 144.165C406.273 145.188 406.928 144.534 405.918 145.245Z" fill="#807C7C"/>
<path d="M416.483 131.169L417.293 131.439L416.483 132.249L416.212 131.979L416.483 131.169Z" fill="#726E69"/>
<path d="M431.099 143.624L431.37 144.435L430.559 144.705L430.289 144.435L431.099 143.624Z" fill="#52514F"/>
<path d="M425.141 125.211L425.412 126.021L424.601 126.292L424.331 126.021L425.141 125.211Z" fill="#726E69"/>
<path d="M424.331 167.995C422.511 168.294 423.805 166.858 424.061 166.915C424.53 167.014 424.26 167.953 424.331 167.995Z" fill="#52514F"/>
<path d="M420.265 123.035L421.09 123.306L420.265 124.116L419.995 123.846L420.265 123.035Z" fill="#807C7C"/>
<path d="M419.184 153.919L419.454 154.729L418.644 154.999L418.374 154.729L419.184 153.919Z" fill="#807C7C"/>
<path d="M406.999 144.165C406.999 144.165 407.496 142.729 408.079 143.354C408.292 144.52 407.041 144.094 406.999 144.165Z" fill="#807C7C"/>
<path d="M414.307 166.915L414.577 167.725L413.767 167.995L413.497 167.725L414.307 166.915Z" fill="#6A6668"/>
<path d="M409.444 164.213L410.254 164.483L409.444 165.294L409.174 165.024L409.444 164.213Z" fill="#6A6668"/>
<path d="M418.103 145.786L418.914 146.056L418.103 146.866L417.833 146.596L418.103 145.786Z" fill="#807C7C"/>
<path d="M420.819 159.336L421.629 159.606L420.819 160.417L420.549 160.147L420.819 159.336Z" fill="#6A6668"/>
<path d="M75.7726 14.7023C76.1707 14.6738 76.185 16.3374 75.7726 16.3232C75.3603 16.3232 75.3461 14.7165 75.7726 14.7023Z" fill="#52514F"/>
<path d="M414.307 117.618L414.577 118.429L413.767 118.713L413.497 118.429L414.307 117.618Z" fill="#726E69"/>
<path d="M387.775 185.868L388.586 186.139L387.775 186.963L387.505 186.679L387.775 185.868Z" fill="#726E69"/>
<path d="M409.984 114.917L410.254 115.727L409.444 115.997L409.174 115.727L409.984 114.917Z" fill="#6A6668"/>
<path d="M421.36 114.376L422.17 114.646L421.36 115.457L421.089 115.187L421.36 114.376Z" fill="#787178"/>
<path d="M400.501 185.328C400.501 185.328 400.756 187.091 399.42 186.139C400.003 185.342 400.458 185.385 400.501 185.328Z" fill="#726E69"/>
<path d="M422.17 147.421V146.34C424.416 146.369 422.227 147.293 422.17 147.421Z" fill="#6A6668"/>
<path d="M427.858 140.909L428.668 141.179L427.858 142.003L427.587 141.733L427.858 140.909Z" fill="#58575D"/>
<path d="M418.643 147.421L418.914 148.231L418.103 148.501L417.833 148.231L418.643 147.421Z" fill="#726E69"/>
<path d="M414.862 184.788L415.672 185.058L414.862 185.868L414.577 185.598L414.862 184.788Z" fill="#726E69"/>
<path d="M429.208 148.501C429.208 148.501 428.938 146.752 430.289 147.691C429.677 148.53 429.222 148.445 429.208 148.501Z" fill="#52514F"/>
<path d="M429.748 160.957C429.606 161.483 429.293 161.696 428.938 162.038C427.985 160.701 429.706 161 429.748 160.957Z" fill="#52514F"/>
<path d="M428.127 150.122C427.388 150.478 427.729 152.212 427.047 150.122C427.175 150.179 428 150.179 428.127 150.122Z" fill="#6A6668"/>
<path d="M431.099 184.247L431.924 184.518L431.099 185.328L430.829 185.058L431.099 184.247Z" fill="#726E69"/>
<path d="M426.777 184.247L427.587 184.518L426.777 185.328L426.507 185.058L426.777 184.247Z" fill="#726E69"/>
<path d="M422.44 159.336L423.251 159.606L422.44 160.417L422.17 160.147L422.44 159.336Z" fill="#6A6668"/>
<path d="M422.17 151.743C420.62 151.203 421.189 151.231 421.09 151.203C422.156 151.473 421.786 151.487 422.17 151.743Z" fill="#807C7C"/>
<path d="M411.065 184.247L411.876 184.518L411.065 185.328L410.795 185.058L411.065 184.247Z" fill="#726E69"/>
<path d="M400.5 185.328C400.5 185.328 400.515 184.83 401.311 184.247C402.264 185.584 400.543 185.271 400.5 185.328Z" fill="#726E69"/>
<path d="M421.089 183.167C420.677 183.01 419.923 184.575 420.009 182.627C421.445 182.669 421.032 183.153 421.089 183.167Z" fill="#52514F"/>
<path d="M422.711 154.999C422.256 154.871 421.63 156.279 421.63 154.729C422.625 153.876 422.654 155.014 422.711 154.999Z" fill="#807C7C"/>
<path d="M56.549 6.58332C56.549 6.58332 56.7196 5.53112 56.2789 5.50268C55.056 5.43159 55.6248 6.5691 55.1982 6.58332C54.8001 6.59753 55.0418 5.47424 54.6579 5.50268C49.0842 5.87237 49.6814 12.3846 51.4018 8.20426C51.5724 8.24692 52.127 10.4082 52.2123 10.9058C52.2123 10.9769 51.7573 10.849 51.1317 11.7163L52.2123 10.9058L56.2789 11.9865C56.0229 12.4841 55.9092 14.8587 56.0087 14.9724C56.5348 15.5127 63.2034 15.1004 48.4301 17.1337C48.8993 52.1831 47.1362 87.332 46.2689 122.495C46.1124 128.623 45.8707 134.752 45.7285 140.909C45.3304 158.213 44.4204 175.546 44.9181 192.907L433.559 192.637L433.019 160.673C430.161 162.919 435.749 151.573 431.398 151.999C434 146.283 431.313 137.084 432.479 130.33L429.493 17.9299L133.202 16.309C132.278 15.1999 134.468 13.7638 134.553 13.6074C133.615 15.1999 135.534 14.1193 135.634 14.1477C135.762 14.1904 135.634 16.5934 136.714 13.8776C136.373 13.2377 136.003 14.361 135.634 14.1477C135.548 14.0909 135.378 12.1997 134.553 13.6074C137.752 7.82035 136.928 14.1193 137.255 14.4179C137.852 14.9582 138.349 13.5648 138.605 13.6074C139.132 13.6927 138.605 15.1146 139.146 15.2284C139.558 15.3279 143.326 7.06675 140.767 15.2284L146.454 6.83925L145.644 5.48847C132.847 5.87237 120.036 6.01456 107.182 4.94815L426.763 4.40783C435.422 5.84393 440.512 10.5361 441.664 19.3092L445.46 196.433C444.294 199.604 445.474 203.599 442.474 205.917C435.393 207.083 406.586 205.803 404.553 206.457C398.88 208.291 415.53 208.036 422.156 208.078V209.159C412.985 209.088 395.723 209.557 396.42 206.457C291.116 205.732 185.883 205.377 80.6213 205.917C79.2706 209.401 65.1087 208.974 55.4399 209.173V208.092C99.0204 207.822 52.7099 204.851 35.6759 205.931L32.6899 197.542C35.8749 169.787 35.8607 25.5512 38.1073 15.5412C42.3445 -3.3983 78.4459 7.52175 92.5509 4.43627L92.821 5.78706L60.5871 5.5169C57.6012 10.849 55.5821 13.6501 59.2363 5.78706C57.0751 4.63534 57.0751 6.64019 56.5348 6.59753L56.549 6.58332Z" fill="#141213"/>
<path d="M75.7729 204.836C76.5408 204.893 77.8347 207.168 76.3133 207.538C74.7776 207.908 73.6543 204.68 75.7729 204.836Z" fill="#FDFDFE"/>
<path d="M45.1739 36.3718C41.8182 39.0307 46.2687 39.2582 44.6336 40.9787C44.2923 41.3484 39.9129 40.3388 44.3634 42.8698C44.4345 42.9124 45.3871 41.7465 45.444 41.7891C44.8326 44.8035 48.2878 42.5854 47.3351 45.3154C47.0934 46.0121 44.6904 45.8273 44.6336 46.9364C44.4061 50.875 46.6384 46.0406 46.7948 48.017C43.6382 54.1311 43.3112 49.5242 41.3775 51.2731C44.2354 54.8562 39.2446 62.8899 45.1739 55.88C46.2118 58.1266 45.5578 58.8375 45.7142 60.2167C43.7236 62.7335 44.1643 65.7763 43.2828 62.378C40.8514 65.3497 43.6525 59.4774 41.3917 63.9989C40.6239 64.1269 39.8561 65.4208 40.0409 66.1602C41.2211 66.2882 41.1357 64.525 41.3917 63.9989C42.7993 63.7572 44.1217 66.0464 45.7284 65.0796C41.15 76.7959 44.9321 68.2219 46.809 71.3074C47.0081 71.6345 45.245 72.2174 45.1881 72.388C43.4818 76.9523 41.804 76.4546 41.932 76.7248C43.6951 80.3079 47.6337 74.791 45.1881 78.6159C42.8846 77.9618 45.1881 81.4028 45.1881 81.6018C45.1881 82.2701 41.7045 80.7487 46.2687 84.3034C45.2876 87.3462 45.4156 94.5836 46.2687 95.1382C42.9131 97.9108 42.5292 105.134 40.8514 101.906C44.2781 98.2947 41.4912 99.8872 41.3917 99.7451C39.202 96.5743 37.7801 99.0057 37.055 98.3943C38.1925 91.7683 37.055 93.2897 37.055 92.9769C37.0265 88.9388 37.4815 76.412 38.6759 75.1038C35.9317 73.1843 39.8276 64.3402 37.5953 62.6482C39.1451 58.6669 36.8843 40.1966 40.2968 44.7751C42.9842 40.3388 42.3728 31.8502 45.1739 36.386V36.3718Z" fill="#6A6668"/>
<path d="M274.835 11.4604C275.233 11.2328 275.319 12.5979 276.456 11.1902C276.726 10.8632 278.916 3.62578 274.835 11.4604C273.84 12.0149 272.375 9.66878 271.849 15.7971C269.674 15.2426 258.398 16.1099 257.773 15.7971C256.706 15.271 260.176 13.7211 254.787 13.3657C254.929 11.0907 255.711 10.0385 256.948 9.29909C257.246 9.11425 257.73 9.88206 257.758 9.83941C259.251 7.96252 258.427 7.82034 256.948 9.29909C255.014 7.83456 260.062 6.65439 260.474 6.59752C261.114 6.49799 270.982 6.62595 273.47 6.59752C273.57 6.59752 274.991 7.67815 275.091 7.67815C275.29 7.67815 275.973 6.59752 276.172 6.59752C285.983 6.56908 295.936 8.00518 305.42 6.59752C307.254 7.16627 304.822 10.9343 304.069 11.7447C302.434 13.4936 299.192 10.8489 297.841 15.8113C288.13 16.5933 287.063 14.7876 286.466 14.7307C286.167 14.7022 283.708 16.8777 283.21 14.1904C282.883 16.4938 277.793 16.5223 277.252 14.7307C271.096 17.6882 272.688 15.5696 274.821 11.4746L274.835 11.4604Z" fill="#141213"/>
<path d="M43.2687 188.584C42.6715 195.381 46.8518 194.286 45.7001 196.433C53.6341 191.94 45.7427 196.205 47.8613 198.594C43.9654 203.955 35.7754 209.699 34.3251 199.675C33.1591 191.599 37.3821 195.04 43.2687 188.57V188.584Z" fill="#52514F"/>
<path d="M170.839 12.0007C168.906 12.2424 169.915 10.9343 168.678 12.2708C173.001 18.2143 167.015 14.7876 164.071 13.0813C164.029 13.0529 163.545 13.8207 163.261 13.6216C163.147 13.5363 162.237 12.3135 161.1 11.7305C166.844 3.27033 158.839 7.08098 161.64 9.56927C157.346 17.8873 160.573 8.87255 158.114 13.0955C156.905 8.61661 156.35 18.8399 153.777 12.5552C149.653 17.347 158.128 5.21831 154.317 8.7588C154.004 5.16144 151.26 6.54066 149.17 10.3797C148.957 10.5219 148.175 10.849 148.089 10.9201C148.971 8.81567 149.355 6.7255 151.616 5.50269C154.687 6.55488 173.754 5.23253 174.095 6.31316L170.839 12.0007Z" fill="#807C7C"/>
<path d="M129.392 193.461C132.946 192.423 127.188 199.319 126.69 199.959C124.856 199.803 129.022 193.575 129.392 193.461Z" fill="#6A6668"/>
<path d="M401.311 204.296C401.51 204.296 404.382 206.187 402.392 206.998C399.079 208.363 398.766 204.182 401.311 204.296Z" fill="#D8D8DA"/>
<path d="M232.307 201.04C233.26 200.77 235.478 201.95 234.738 202.931C233.544 204.538 229.733 201.751 232.307 201.04Z" fill="#FDFDFE"/>
<path d="M251.004 13.6216C250.948 13.5506 249.938 13.8065 249.924 13.3515C249.924 13.0387 252.256 9.24225 253.99 9.82522L251.004 13.6216Z" fill="#141213"/>
<path d="M149.17 10.3655C149.653 10.0385 150.18 9.79679 150.521 9.28491C148.374 15.7971 145.132 17.802 149.17 10.3655Z" fill="#95969A"/>
<path d="M174.622 11.4604C174.423 11.2471 172.915 13.2662 174.081 9.83945C175.261 8.87257 175.304 6.44115 176.783 7.40803L174.622 11.4746V11.4604Z" fill="#95969A"/>
<path d="M174.081 9.82524C173.612 10.2091 172.986 10.6073 172.46 10.9059C172.773 10.4366 173.455 6.72554 174.081 9.82524Z" fill="#95969A"/>
<path d="M199.277 6.5833C200.272 6.92455 198.324 8.78721 198.196 8.74456C197.201 8.40331 199.149 6.54065 199.277 6.5833Z" fill="#95969A"/>
<path d="M193.049 7.12366C192.992 7.23741 193.333 8.0621 191.698 9.28492C190.859 8.13319 192.565 7.6071 193.049 7.12366Z" fill="#95969A"/>
<path d="M147.265 9.2849C148.26 9.62615 146.312 11.4888 146.184 11.4462C145.189 11.1049 147.137 9.24224 147.265 9.2849Z" fill="#B9B7B8"/>
<path d="M170.839 12.0007C170.982 12.1571 171.906 11.2329 172.46 10.92C169.972 14.6596 171.408 11.9296 170.839 12.0007Z" fill="#95969A"/>
<path d="M174.622 11.4604L175.702 10.92C175.645 11.0196 175.56 12.2424 174.892 13.0813C174.366 13.0102 174.764 11.6025 174.622 11.4604Z" fill="#95969A"/>
<path d="M148.089 10.92C148.004 11.0054 147.976 12.2282 147.279 13.0813C146.269 11.4461 148.047 11.0196 148.089 10.92Z" fill="#807C7C"/>
<path d="M45.7145 65.0795C45.814 65.0227 45.3306 63.6008 46.525 62.9183C47.3639 63.6861 45.7571 64.98 45.7145 65.0795Z" fill="#95969A"/>
<path d="M40.8372 101.921C39.8419 100.015 41.2069 99.5886 41.3775 99.7592C41.7615 100.129 40.5671 101.338 40.8372 101.921Z" fill="#6A6668"/>
<path d="M252.085 14.162C252.341 14.2757 254.118 12.541 252.355 15.7829L252.085 14.162Z" fill="#141213"/>
<path d="M179.228 9.82523C179.982 9.92476 179.043 11.5031 178.688 11.4462C177.934 11.3466 178.873 9.76836 179.228 9.82523Z" fill="#95969A"/>
<path d="M144.563 10.9201C145.316 11.0196 144.378 12.5979 144.022 12.541C143.269 12.4415 144.207 10.8632 144.563 10.9201Z" fill="#95969A"/>
<path d="M135.62 14.162C135.52 14.1335 133.6 15.2141 134.539 13.6216C135.364 12.2282 135.534 14.1193 135.62 14.162Z" fill="#95969A"/>
<path d="M252.085 14.162C251.73 14.0055 251.346 14.7449 251.275 14.7023C250.763 14.4463 251.104 13.7496 251.004 13.6216C251.971 13.0813 252.142 12.7401 252.085 14.162Z" fill="#141213"/>
<path d="M135.62 14.162C136.004 14.3752 136.359 13.2377 136.7 13.8918C135.62 16.6076 135.748 14.2046 135.62 14.162Z" fill="#95969A"/>
<path d="M163.247 13.6216C163.19 14.1193 163.36 14.7307 163.247 14.9724C162.763 15.982 161.469 15.0435 163.247 13.6216Z" fill="#95969A"/>
<path d="M43.8091 106.243C44.1503 106.2 44.52 106.186 44.6196 106.513C45.0746 108.063 41.3492 106.584 43.8091 106.243Z" fill="#807C7C"/>
<path d="M44.8894 26.0773C45.643 26.1768 44.7046 27.7551 44.3491 27.6983C43.5955 27.5987 44.534 26.0204 44.8894 26.0773Z" fill="#95969A"/>
<path d="M147.819 6.043C148.573 6.14254 147.634 7.72082 147.279 7.66395C146.525 7.56442 147.464 5.98613 147.819 6.043Z" fill="#95969A"/>
<path d="M194.4 7.12363C195.153 7.22316 194.215 8.80145 193.859 8.74458C193.106 8.64504 194.044 7.06676 194.4 7.12363Z" fill="#95969A"/>
<path d="M185.726 8.20426C186.48 8.30379 185.542 9.88208 185.186 9.8252C184.432 9.72567 185.371 8.14738 185.726 8.20426Z" fill="#A4A7AB"/>
<path d="M47.3352 20.1196C49.2263 18.7973 48.1599 21.2713 47.6054 21.2002C47.1504 21.1434 47.3921 20.148 47.3352 20.1196Z" fill="#807C7C"/>
<path d="M47.3351 20.1196C45.444 21.442 46.5104 18.9679 47.065 19.039C47.52 19.0959 47.2783 20.0912 47.3351 20.1196Z" fill="#95969A"/>
<path d="M151.601 9.28488C152.426 8.98629 152.795 10.0811 152.141 10.3655C151.345 10.721 150.947 9.51238 151.601 9.28488Z" fill="#95969A"/>
<path d="M175.702 10.9201L176.513 9.29913C177.451 10.2945 175.745 10.849 175.702 10.9201Z" fill="#95969A"/>
<path d="M45.174 78.6158L45.4441 80.2368C44.9323 79.9951 45.2593 78.6443 45.174 78.6158Z" fill="#6A6668"/>
<path d="M45.7144 60.2025C45.7144 60.2025 46.7523 60.0176 46.795 60.4726L45.9845 61.2831L45.7144 60.2025Z" fill="#6A6668"/>
<path d="M45.1738 36.3718C45.2307 36.4713 47.1645 36.0447 45.444 37.4524L45.1738 36.3718Z" fill="#6A6668"/>
<path d="M52.2125 10.92L51.1318 11.7305C51.7717 10.8632 52.2267 10.9911 52.2125 10.92Z" fill="#FDFDFE"/>
<path d="M193.049 7.12363C193.049 7.12363 192.793 5.37471 194.13 6.31315C193.532 7.12363 193.077 7.06675 193.049 7.12363Z" fill="#95969A"/>
<path d="M40.8371 101.92C40.5669 101.323 41.7613 100.115 41.3774 99.7592C41.4769 99.9014 44.2638 98.3089 40.8371 101.92Z" fill="#141213"/>
<path d="M41.3776 63.9989C41.1075 64.525 41.207 66.2881 40.0269 66.1602C39.842 65.4066 40.6098 64.1269 41.3776 63.9989Z" fill="#141213"/>
<path d="M274.835 11.4603C278.916 3.62578 276.726 10.8632 276.456 11.1902C275.304 12.5979 275.233 11.2328 274.835 11.4603Z" fill="#141213"/>
<path d="M256.962 9.28491C258.441 7.82038 259.28 7.94835 257.773 9.82523C257.744 9.86789 257.261 9.10007 256.962 9.28491Z" fill="#141213"/>
<path d="M225.269 7.66394C228.695 6.37003 229.349 11.0338 226.349 11.4604C223.577 11.8443 223.591 8.30379 225.269 7.66394Z" fill="#FDFDFE"/>
<path d="M225.809 8.74459C226.207 8.46021 227.558 8.78725 227.16 9.55506C226.733 10.394 224.643 9.5835 225.809 8.74459Z" fill="#141213"/>
</svg>
