<svg width="34" height="35" viewBox="0 0 34 35" fill="none" xmlns="http://www.w3.org/2000/svg">
<g clip-path="url(#clip0_95_165)">
<path d="M31.4957 9.20788C31.0834 8.15422 30.0756 6.10415 30.0183 6.03544C27.5101 3.25239 26.2389 2.23308 22.6541 1.29394C22.07 1.14506 20.2032 0.824376 20.2032 0.744206C20.2032 0.308997 18.9319 0.492243 18.8403 0.469337C17.6607 0.263185 16.0687 -0.263647 14.8661 0.137203C13.8927 0.457884 11.9457 1.08779 11.8655 1.12215C11.3845 1.35121 10.9149 1.59172 10.4568 1.83223C10.0445 2.04983 9.20843 2.47359 9.20843 2.47359L9.12825 2.5194C8.34946 3.03478 7.57066 3.56161 6.79187 4.07699C6.41392 4.32896 5.81837 4.99322 5.76111 5.05049C3.10404 8.57798 1.32884 12.1169 0.275179 16.4117C-0.0225956 17.6257 -0.0684071 18.9199 0.0804804 20.1568C0.160651 20.9356 0.527143 22.4589 0.561501 22.539C1.38611 25.4824 2.45123 27.7616 4.19206 30.2812C4.57001 30.8309 5.41752 31.3005 6.00162 31.6555C6.55136 31.9991 7.67374 32.6634 7.75391 32.6977C9.24278 33.4422 10.8347 34.3011 12.4496 34.702C16.2749 35.6182 19.4473 34.1064 22.9175 33.1673C24.2346 32.8123 27.3841 32.5718 28.037 30.8424C28.3118 30.9798 28.6096 31.0485 28.7928 30.8653C29.2052 30.453 27.5216 29.6742 27.43 29.6742C26.7886 29.6742 26.216 29.6284 25.8953 29.72C25.4715 29.846 24.624 30.0979 24.5324 30.0979C22.1273 30.3384 20.2032 32.7894 17.466 32.6405C17.214 32.6405 15.2555 32.5603 15.2555 32.4801C15.2555 32.1709 12.3122 32.2396 12.1862 32.2282C11.0638 32.0449 9.90705 31.3005 8.86484 30.8424C8.3151 30.5904 7.33015 29.9261 7.27289 29.8689C6.67734 29.2733 5.99017 28.7236 5.5206 28.025C5.26863 27.647 4.77616 26.8682 4.7189 26.7881C4.30659 26.2841 4.00882 25.7458 3.71104 25.1617C3.56216 24.8754 3.49344 24.2226 3.5278 24.1424C4.04318 22.5848 3.58506 20.2943 3.87138 18.6107C3.98591 17.9808 3.98591 17.3509 4.15771 16.7324C4.24933 16.3659 4.44403 15.6215 4.44403 15.6215L4.47839 15.5413C4.77616 14.7625 5.38316 13.2393 5.38316 13.1477C5.38316 12.2429 6.21922 11.2465 6.66589 10.4906C8.24638 7.82209 9.59782 5.77202 12.3465 4.20298C13.0337 3.80212 13.7896 3.4929 14.5798 3.3211C15.1983 3.18367 16.4581 2.92025 16.6184 2.92025C17.1338 2.88589 18.1531 2.84008 18.2333 2.85154C19.161 3.09205 20.0085 3.16076 20.9018 3.55016C21.3256 3.73341 22.2418 3.93956 22.3105 3.98537C22.9748 4.36332 26.09 6.05834 25.8953 6.75697C25.6777 7.48995 27.5101 8.37182 27.5559 8.44054C27.9682 9.09336 28.6211 10.5021 28.6554 10.5822C29.6518 13.0675 29.4342 17.0531 29.0105 19.3551C28.8158 20.4661 28.7814 21.1761 28.4493 22.1611C28.3004 22.5963 27.5216 23.6156 27.9339 23.4324C28.2775 23.2835 27.4872 24.0508 27.2582 24.3486C26.8 24.967 26.3992 25.4595 25.7807 25.9291C25.5059 26.1467 24.8645 26.4101 24.7729 26.4903C24.5209 26.5704 24.0055 26.3185 23.9254 26.2841C23.7536 26.204 23.41 26.0665 23.41 26.0665L23.3298 25.9864C21.715 24.1424 24.1659 20.0309 25.0363 17.9808C25.2997 17.3623 25.2768 16.5034 25.1165 15.8506C25.0363 15.5413 24.5209 15.0832 24.4408 15.0832C23.6391 15.0832 21.8753 14.9343 21.2912 15.0832C20.2261 15.3695 19.4358 18.0495 18.9205 18.9428C18.7945 19.1604 16.8933 22.8139 16.6986 22.7452C16.6184 22.7223 15.3815 24.0852 15.3357 24.1081C14.6256 24.5776 14.3279 24.6807 13.5262 24.9556C13.2284 25.0587 12.6099 25.2076 12.5298 25.2992C10.7889 25.7344 11.0867 22.539 11.0867 21.8061C11.0867 21.703 11.2356 20.615 11.2585 20.615C11.9228 20.615 11.4532 19.3093 11.6021 18.6565C11.8999 17.3051 13.0451 15.6329 13.6521 14.5106C14.2362 13.4454 14.8089 11.7275 15.8625 10.9945C16.3779 10.628 17.1567 10.4333 17.7408 10.147C17.9928 10.021 18.5883 9.97523 18.68 9.99813C19.3099 10.1012 20.3292 10.3532 20.8102 10.8342C20.8216 10.8456 20.8331 10.8686 20.8446 10.88C20.8789 11.1892 20.9247 11.4985 21.0049 11.7619C20.9934 12.0138 20.9476 12.2314 20.9247 12.2773C20.5468 12.8614 21.3027 13.1362 21.5775 12.6208C21.6119 12.5521 21.6463 12.4605 21.6692 12.3574C21.8868 12.2773 22.07 12.1055 21.841 12.1055C21.8295 12.1055 21.7608 10.9716 21.7608 10.8686C21.7608 10.2157 21.4057 9.07045 20.9133 8.61234C20.3063 8.05114 17.9584 7.43269 17.34 7.53576C16.7444 7.65029 15.5533 7.85644 15.4502 7.85644C13.7552 7.85644 12.0602 9.2766 10.9836 10.4792C10.4682 11.0518 9.42603 12.1971 9.38022 12.2773C7.66229 15.0603 5.65803 18.8627 6.43683 22.1496C6.79187 23.6729 6.7346 25.1732 7.71955 26.2841C8.16621 26.7995 8.63578 27.3263 9.08244 27.8303C9.27714 28.0479 9.84979 28.2769 9.92996 28.2769C12.1175 28.1395 13.7094 27.3378 15.4846 26.1009C15.9656 25.7687 16.4352 25.4252 16.9277 25.1045C17.2713 24.8869 17.9355 24.4517 17.9699 24.5318C18.176 25.1274 18.1417 25.826 18.2218 26.4101C18.2677 26.7537 18.3707 27.4294 18.4051 27.521C18.5082 27.7501 18.7143 28.1968 18.7601 28.2655C19.0808 28.735 19.2411 29.0328 19.7909 29.2161C20.2261 29.365 21.0965 29.6513 21.1767 29.6513C21.8295 29.6856 23.1351 29.7314 23.2153 29.7085C27.1551 28.6663 30.3619 25.4137 32.0684 21.9893C32.9159 20.2943 32.6525 18.2213 33.0075 16.4576C33.3625 14.6595 32.2058 10.8456 31.5301 9.17353L31.4957 9.20788ZM15.4273 10.4562C15.4273 10.4562 15.4273 10.3761 15.5075 10.3761L15.4273 10.4562ZM28.747 25.3106C27.7506 26.3872 26.5481 27.4523 25.3112 28.1624C24.6355 28.5518 23.1008 29.0099 22.929 29.0099C21.9669 29.0099 20.6269 29.0557 19.7794 28.4945C19.3328 28.1853 19.0121 27.0515 19.0006 26.9598C18.8747 25.952 18.7945 25.0358 18.4967 24.0623C18.4165 23.7759 17.7294 23.6385 17.6607 23.6843C15.1754 25.4366 13.194 27.0515 10.1476 27.5439C9.58637 27.6356 8.88774 26.9828 8.60142 26.4903C8.37236 26.1009 7.9257 25.3335 7.84553 25.2419C7.28434 24.6807 7.16981 22.9399 7.15836 22.8597C7.13545 22.4932 7.07819 21.7488 7.1011 21.6686C7.45613 19.4926 7.47904 17.0417 8.54416 15.2665C9.02518 14.4648 9.49475 13.6631 9.98722 12.8499C10.2277 12.4376 10.8347 11.7046 10.9035 11.6473C12.0258 10.525 13.2513 9.40258 14.7631 8.80703C15.5419 8.49781 17.2369 8.29165 17.3171 8.31456C17.9928 8.45199 18.6227 8.63524 19.2755 8.82994C19.6191 8.93302 20.2948 9.15062 20.2948 9.15062C20.4781 9.33387 20.5926 9.58583 20.6728 9.8607C20.6384 9.83779 20.5926 9.81489 20.5468 9.79198C20.2032 9.60874 19.4358 9.41404 19.4358 9.41404H19.3557C18.2906 9.34532 17.8439 9.19643 16.8819 9.666C16.4008 9.90651 15.4388 10.3417 15.3701 10.4104C13.8812 12.1169 12.7016 14.2472 11.7739 16.2972C11.4303 17.076 11.0409 19.4009 10.5828 19.7903C10.2621 20.0767 10.2392 22.3901 10.2392 22.8597C10.2392 23.2835 10.2392 24.131 10.285 24.2112C10.5141 24.6349 11.0982 25.4137 11.1783 25.4595C11.854 25.8031 13.3887 25.9291 13.4804 25.8947C14.4882 25.5397 15.5877 25.1045 16.3436 24.3371C16.7559 23.9248 17.4774 23.0315 17.5232 22.9628C18.3707 21.3823 19.3328 19.8476 20.2375 18.3015C20.5468 17.7746 20.6842 17.1905 20.9705 16.6523C21.1194 16.3774 21.4859 15.8849 21.5661 15.862C22.448 15.5642 24.372 15.8849 24.372 16.0567C24.372 16.3659 24.4178 17.3852 24.2002 17.9922C24.0285 18.4733 23.6047 19.378 23.5703 19.4697C23.1351 20.7066 22.8603 21.9778 22.4365 23.2148C22.2418 23.8218 22.07 25.093 22.1044 25.1617C22.5052 26.1696 22.551 26.3414 23.3527 26.9598C23.7192 27.2462 24.7156 27.3034 24.7958 27.2691C25.2081 27.0858 26.0671 26.7881 26.1358 26.7308C28.518 24.5204 29.6633 22.0008 29.8351 18.7023C29.8923 17.5112 29.9839 16.343 29.9839 15.1634V13.3424C29.9496 12.7583 30.087 12.0138 29.8694 11.4641C29.732 11.1205 29.251 10.2157 29.3082 10.1012C29.5602 9.65455 28.6325 8.73832 28.5752 8.6696C27.9453 7.78773 27.43 7.12346 26.6741 6.43629C26.2961 6.0927 25.6548 5.24519 25.5746 5.18792C24.0743 3.93956 22.5396 3.18367 20.5239 2.58812C19.7794 2.37051 18.2447 2.01548 18.1531 2.02693C17.5805 2.07274 16.4466 2.18727 16.3665 2.21017C9.78107 3.53871 5.14265 8.73832 3.66523 15.3924C3.17276 17.6257 2.86353 19.8247 2.749 22.1153C2.71464 22.8254 2.65738 23.6271 2.79481 24.3257C2.87498 24.6922 3.00096 25.4366 3.04678 25.5168C3.64233 26.7193 4.37531 27.9677 5.14265 28.7694C5.68094 29.3306 6.74606 30.453 6.82623 30.4988C10.3881 32.4801 13.1711 33.1559 17.2254 33.3964C18.2791 33.4651 19.2641 33.1902 20.2948 32.9383C20.7758 32.8237 21.6577 32.4114 21.7379 32.3771C22.2189 32.1595 24.4751 31.0485 24.4751 30.8767C24.4751 30.2354 26.3534 30.453 26.1816 30.453H27.3612C27.2696 30.6248 27.178 30.808 27.0291 30.8996C26.3076 31.3807 25.6204 31.8502 24.6469 32.148C22.803 32.7206 20.6269 33.4193 18.6914 33.6941C17.6492 33.843 15.5419 34.0263 15.4617 34.0377C15.3128 34.0492 15.0379 34.1064 14.9463 34.1179C13.5147 34.4042 11.7281 33.6025 10.4224 33.0757C8.40672 32.2625 5.9329 31.0943 4.47839 29.4222C2.57721 27.2233 1.87858 24.1653 1.07688 21.5083C0.572954 19.8476 0.698936 17.5685 1.22577 15.9078C1.54645 14.9 1.86713 13.9036 2.19926 12.8957C2.24507 12.7239 2.34815 12.4032 2.34815 12.4032C4.7418 7.2838 7.11255 4.50075 12.0258 1.85514C13.6521 0.973264 15.1754 0.744206 16.8819 0.996169C17.7065 1.1107 19.3557 1.33976 19.4358 1.36266C23.7421 2.37052 26.8802 3.01188 29.5716 6.71116C30.7169 8.29165 30.8887 10.273 31.3583 12.0711C31.5186 12.6781 31.5759 13.5142 31.8737 14.0295C31.9882 14.2242 31.9538 14.7053 31.9653 14.7969C32.3547 19.1146 31.3812 22.5047 28.7585 25.3106H28.747Z" fill="black"/>
</g>
<defs>
<clipPath id="clip0_95_165">
<rect width="33.0301" height="35" fill="white"/>
</clipPath>
</defs>
</svg>
