<svg width="21" height="35" viewBox="0 0 21 35" fill="none" xmlns="http://www.w3.org/2000/svg">
<g clip-path="url(#clip0_95_178)">
<path d="M20.7392 8.27896C20.5161 7.25441 20.0782 6.23812 19.7064 5.25488C19.5411 4.79218 18.9628 3.97419 18.9049 3.91635C18.2935 2.99921 16.7071 1.95814 15.7073 1.46239C15.6247 1.42107 15.5256 1.37976 15.4264 1.34671C13.8648 -0.0992292 10.1384 -0.0909667 8.33718 0.0742835C7.22174 0.173434 6.14761 0.206484 5.08175 0.603084C4.70167 0.743547 4.42901 1.00795 4.18113 1.23104C4.00762 1.38802 3.66886 1.71026 3.60276 1.74331C3.45403 1.82594 3.17311 2.01597 3.13179 2.05729C0.264701 4.93264 -0.338462 9.13 0.157289 13.0712C0.314277 14.3106 0.810027 15.55 1.13227 16.7563C1.28925 17.3347 1.82632 18.4171 1.8511 18.4666C3.21442 22.1187 5.51966 25.3493 6.86645 28.9766C7.26305 30.0342 7.90753 31.0504 8.41154 32.0585C8.51895 32.265 9.03949 32.926 9.02296 32.9673C8.89903 33.2731 9.84095 33.3805 9.9401 33.397C10.0558 33.6449 10.7581 33.9423 10.9894 34.0993C11.1712 34.2232 11.6091 34.4463 11.6009 34.3802C11.5513 34.0745 12.4602 34.752 12.518 34.752C12.5428 34.7603 12.5758 34.8099 12.6419 34.8429C12.6585 34.8512 12.6998 34.876 12.6998 34.9338L12.7576 34.9917C13.0138 35.0578 13.2121 34.6281 13.2864 34.4711C13.6995 33.6201 14.0631 32.7608 14.4432 31.8932C15.4595 29.5054 16.5253 27.1671 17.3681 24.7296C17.616 24.019 17.9547 23.3994 18.1283 22.6557C18.2439 22.1848 18.4753 21.2428 18.5001 21.185C18.8636 20.2844 18.9132 19.2433 19.2024 18.3096C19.3676 17.7478 19.7064 16.6406 19.7064 16.6406L19.7229 16.5828C20.574 14.0379 21.3176 10.9891 20.7392 8.29548V8.27896ZM9.32041 32.4799C9.213 32.4964 8.69246 31.3479 8.66768 31.2983C8.00667 29.9846 7.35394 28.7369 6.71772 27.4067C5.46182 24.804 4.12329 21.6725 2.59473 18.9954C2.10724 18.1444 1.79327 16.9546 1.46277 16.0705C1.28099 15.6078 1.09095 14.608 1.07443 14.5502C0.702615 13.0795 0.454739 11.6418 0.636515 10.1298C0.768715 9.03911 0.909177 7.96498 1.04138 6.87433C1.07443 6.54383 1.26447 5.89109 1.33057 5.90762C1.86763 6.08939 2.2477 4.44515 2.43774 4.10639C2.7104 3.59411 3.02438 3.08184 3.45403 2.6935C3.72669 2.44562 4.28028 1.95814 4.33812 1.91682C4.70993 1.68547 5.38746 1.09057 5.45356 1.07405C7.54397 0.371734 10.1797 0.512197 12.3362 0.908797C13.4021 1.09883 14.5258 1.11536 15.2859 2.07381C16.2444 3.2884 16.7815 5.007 17.0706 6.61819C17.1946 7.34529 17.3764 8.83255 17.3846 8.89038C17.4011 9.15479 17.4425 9.69185 17.4342 9.74969C17.4177 9.91494 17.3764 10.2372 17.3764 10.3033C17.0293 14.4097 16.0874 18.9872 14.7406 22.8871C14.311 24.1347 13.7574 25.5889 13.2947 26.6217C13.0964 27.0596 12.8733 27.4728 12.6833 27.9107C12.5511 28.2247 12.2867 28.8526 12.2536 28.9105C11.9727 29.4723 11.4852 30.6291 11.4604 30.6952C11.2043 31.2983 10.5433 32.2816 10.2623 32.6534C10.1054 32.4716 9.97315 32.3229 9.88227 32.2981C9.83269 32.2816 9.77485 32.3229 9.71702 32.3807L9.75833 32.3311C9.64265 32.3559 9.60134 32.4303 9.59308 32.5294L9.58482 32.546V32.5294C9.58482 32.6286 9.62613 32.7525 9.68396 32.8847L9.32868 32.4799H9.32041ZM20.3757 11.8401C20.3426 12.1623 20.1691 12.6333 20.103 12.8812C19.8386 13.8727 19.6403 14.889 19.3263 15.8887C18.4174 18.7641 17.996 21.3833 16.8723 24.4074C16.0461 26.6465 15.1372 28.7039 14.2283 30.9265C13.9226 31.6784 13.6169 32.4468 13.2616 33.1904C13.0881 33.5622 12.7659 34.3059 12.6998 34.2811C12.0388 33.9588 11.7413 33.9175 10.9647 33.397C10.8738 33.3392 10.7664 33.2235 10.6507 33.0995C10.9894 32.6203 11.6587 31.6784 11.6752 31.6123C12.4519 29.2823 13.683 27.2084 14.6167 24.837C14.9389 24.019 15.1951 23.1763 15.4264 22.3335C15.5421 21.9204 15.7734 21.1024 15.7817 21.0445C15.8643 20.5736 15.9552 20.1026 16.0378 19.6317C16.0874 19.3838 16.1948 18.8963 16.2196 18.8302C16.7897 16.7811 17.2855 14.8724 17.6408 12.749C17.7564 12.0467 17.806 11.3609 17.8804 10.6586C17.9217 10.3115 17.9795 9.61749 17.9713 9.55139C17.8473 8.62598 17.8473 7.58491 17.649 6.66777C17.5416 6.18028 17.3598 5.19704 17.3433 5.13094C17.2111 4.70129 16.9302 3.84199 16.8971 3.77589C16.6658 3.31319 16.4344 2.84223 16.1948 2.41257C16.3766 2.54477 16.5584 2.67698 16.7071 2.80918C17.0293 3.10663 17.3433 3.32145 17.7316 3.52801C17.9217 3.63543 18.2687 3.89983 18.3018 3.95766C19.1032 5.55233 19.8469 6.99827 20.2352 8.80776C20.3591 9.38614 20.293 9.89841 20.3096 10.2206C20.3261 10.5677 20.3591 11.617 20.3591 11.2617C20.3591 11.08 20.3839 11.6335 20.3591 11.8153L20.3757 11.8401Z" fill="black"/>
<path d="M9.92341 15.55C11.6999 15.1864 12.9475 13.881 13.8646 12.402C14.1621 11.9145 14.3273 11.2535 14.4017 10.6834C14.4017 10.6503 14.4513 9.45224 14.6083 9.45224C14.9553 9.45224 14.1373 8.41117 14.4843 8.41117C15.0214 8.41117 14.0629 5.94068 13.6829 5.40361C13.5589 5.22184 13.1954 4.97396 13.1375 4.94091C12.0386 4.25513 10.4439 2.90007 9.01453 3.01575C8.41137 3.06532 7.59338 3.17274 7.04806 3.4454C6.89107 3.52802 6.67624 3.67675 6.50273 3.80069C5.54428 4.39559 4.40405 4.94091 3.72653 5.77543C3.61911 5.90763 4.03224 6.20508 3.99919 6.26292C2.5202 8.48553 2.96637 12.592 4.65193 14.5006C5.61864 15.5996 7.89909 15.8226 9.41113 15.6491C9.65075 15.7152 9.86557 15.7235 9.92341 15.5582V15.55ZM4.98243 13.9305C4.68498 13.4265 4.29664 12.8977 4.12313 12.3359C4.03224 12.0301 3.85046 11.4187 3.8422 11.3526C3.8422 11.3196 3.82568 11.2865 3.81741 11.2452V11.2865C3.41255 9.64228 3.85046 6.79998 5.08158 5.57713C5.68474 4.97396 6.44489 4.56084 7.20504 4.20555C7.51902 4.04856 8.14697 3.74285 8.21307 3.72632C9.83252 3.40409 10.6588 4.13945 12.0717 4.97396C12.3443 5.13095 12.8649 5.2962 13.0384 5.56886C13.1706 5.77543 13.435 6.19682 13.5011 6.23813C13.6581 6.33728 13.8068 6.6843 13.8151 6.7504C14.0216 9.83232 14.1125 12.8316 10.981 14.6081C10.5514 14.8559 9.98951 15.0047 9.38635 15.079C9.03106 14.8477 8.6262 14.6081 8.51878 14.542C7.98172 14.2362 7.47771 13.0051 7.41161 12.9473C6.39532 11.3278 7.53554 8.05588 8.60141 7.03959C9.27067 6.40338 9.66727 6.07288 10.4357 5.64323C10.7414 5.46971 11.4685 5.39535 11.4685 5.39535L11.5181 5.43666C11.6503 5.57713 12.0138 5.14748 12.0138 5.14748L11.9725 5.04006C11.832 4.93265 11.4685 4.8335 11.4107 4.85003C8.57662 5.48624 6.63493 7.93194 6.49447 10.7329C6.44489 11.7657 6.86628 13.3522 7.40334 14.071C7.65122 14.4015 8.29569 14.6163 8.21307 15.0294C8.21307 15.0625 8.21307 15.0873 8.22959 15.1121C7.74211 15.0873 7.27114 15.0212 6.85802 14.9055C6.19702 14.7155 5.01548 13.9884 4.98243 13.9223V13.9305ZM11.5015 5.21358L11.4685 5.27141C11.4272 5.27141 11.5263 5.14748 11.5015 5.21358Z" fill="black"/>
</g>
<defs>
<clipPath id="clip0_95_178">
<rect width="20.9455" height="35" fill="white"/>
</clipPath>
</defs>
</svg>
